<svg width="22" height="22" viewBox="0 0 22 22" fill="none" xmlns="http://www.w3.org/2000/svg">
<path d="M9.01438 13.5843C9.9874 13.4259 10.6477 12.5086 10.4893 11.5356C10.3308 10.5626 9.41354 9.90226 8.44052 10.0607C7.4675 10.2192 6.80717 11.1364 6.96564 12.1095C7.12411 13.0825 8.04136 13.7428 9.01438 13.5843Z" fill="#0EABEB"/>
<path d="M20.0587 2.57812H9.12319L11.2822 5.59852H20.6255V3.14445C20.6255 2.83184 20.3716 2.57812 20.0587 2.57812ZM8.60101 14.6129C6.56407 14.6129 4.90723 16.2685 4.90723 18.3038V20.625H12.2948V18.3038C12.2948 16.2642 10.644 14.6129 8.60101 14.6129Z" fill="#0EABEB"/>
<path d="M10.5391 6.49777L6.88012 1.375H1.94118C1.62865 1.375 1.375 1.62865 1.375 1.94118V20.0588C1.375 20.3714 1.62865 20.625 1.94118 20.625H3.79069V18.3044C3.79069 16.3077 5.01061 14.5903 6.74424 13.8592C5.00283 12.1811 6.20131 9.22598 8.613 9.22598C11.032 9.22598 12.2183 12.1842 10.4836 13.8569C12.2038 14.58 13.4353 16.2864 13.4353 18.3044V20.625H20.0588C20.3714 20.625 20.625 20.3714 20.625 20.0588V6.7348H11C10.8173 6.7348 10.6456 6.64648 10.5391 6.49777ZM6.77255 6.7348H6.13088V7.37647C6.13088 7.689 5.87724 7.94265 5.56471 7.94265C5.25218 7.94265 4.99853 7.689 4.99853 7.37647V6.7348H4.35686C4.04433 6.7348 3.79069 6.48116 3.79069 6.16863C3.79069 5.8561 4.04433 5.60245 4.35686 5.60245H4.99853V4.96078C4.99853 4.64826 5.25218 4.39461 5.56471 4.39461C5.87724 4.39461 6.13088 4.64826 6.13088 4.96078V5.60245H6.77255C7.08508 5.60245 7.33873 5.8561 7.33873 6.16863C7.33873 6.48116 7.08508 6.7348 6.77255 6.7348ZM13.4157 8.3201H17.6431C17.9557 8.3201 18.2093 8.57375 18.2093 8.88627C18.2093 9.1988 17.9557 9.45245 17.6431 9.45245H13.4157C13.1032 9.45245 12.8495 9.1988 12.8495 8.88627C12.8495 8.57375 13.1032 8.3201 13.4157 8.3201ZM13.4157 10.7358H17.6431C17.9557 10.7358 18.2093 10.9894 18.2093 11.302C18.2093 11.6145 17.9557 11.8681 17.6431 11.8681H13.4157C13.1032 11.8681 12.8495 11.6145 12.8495 11.302C12.8495 10.9894 13.1032 10.7358 13.4157 10.7358Z" fill="#0EABEB"/>
</svg>
