<svg width="22" height="22" viewBox="0 0 22 22" fill="none" xmlns="http://www.w3.org/2000/svg">
<path d="M20.625 6.875V4.8125C20.625 4.26549 20.4077 3.74089 20.0209 3.35409C19.6341 2.9673 19.1095 2.75 18.5625 2.75H15.8125V2.0625C15.8125 1.88016 15.7401 1.7053 15.6111 1.57636C15.4822 1.44743 15.3073 1.375 15.125 1.375C14.9427 1.375 14.7678 1.44743 14.6389 1.57636C14.5099 1.7053 14.4375 1.88016 14.4375 2.0625V2.75H7.5625V2.0625C7.5625 1.88016 7.49007 1.7053 7.36114 1.57636C7.2322 1.44743 7.05734 1.375 6.875 1.375C6.69266 1.375 6.5178 1.44743 6.38886 1.57636C6.25993 1.7053 6.1875 1.88016 6.1875 2.0625V2.75H3.4375C2.89049 2.75 2.36589 2.9673 1.97909 3.35409C1.5923 3.74089 1.375 4.26549 1.375 4.8125V6.875H20.625ZM1.375 8.25V18.5625C1.375 19.1095 1.5923 19.6341 1.97909 20.0209C2.36589 20.4077 2.89049 20.625 3.4375 20.625H18.5625C19.1095 20.625 19.6341 20.4077 20.0209 20.0209C20.4077 19.6341 20.625 19.1095 20.625 18.5625V8.25H1.375ZM14.8844 12.2093L10.0719 16.3343C9.94033 16.4468 9.77121 16.5055 9.59827 16.4987C9.42533 16.492 9.26131 16.4203 9.13894 16.2979L7.07644 14.2354C6.9512 14.1057 6.88191 13.932 6.88347 13.7518C6.88504 13.5715 6.95734 13.3991 7.08481 13.2716C7.21228 13.1442 7.38471 13.0719 7.56497 13.0703C7.74523 13.0687 7.9189 13.138 8.04856 13.2633L9.66144 14.8761L13.9927 11.1636C14.0609 11.1022 14.1406 11.055 14.2273 11.0249C14.314 10.9948 14.4058 10.9823 14.4974 10.9882C14.589 10.9942 14.6785 11.0184 14.7605 11.0594C14.8426 11.1005 14.9156 11.1576 14.9753 11.2273C15.035 11.297 15.0801 11.378 15.108 11.4654C15.1359 11.5528 15.146 11.645 15.1377 11.7363C15.1294 11.8277 15.1029 11.9166 15.0597 11.9975C15.0166 12.0785 14.9577 12.1501 14.8864 12.2079L14.8844 12.2093Z" fill="#818194"/>
</svg>
