<svg width="22" height="22" viewBox="0 0 22 22" fill="none" xmlns="http://www.w3.org/2000/svg">
<g clip-path="url(#clip0_3065_63957)">
<path d="M19.1152 4.71707L14.5329 0.134836C14.4904 0.0920399 14.4398 0.05809 14.3841 0.0349471C14.3284 0.0118042 14.2687 -7.33333e-05 14.2083 3.40646e-07H4.58335C3.57268 3.40646e-07 2.75 0.822207 2.75 1.83335V20.1667C2.75 21.1778 3.57268 22 4.58335 22H17.4167C18.4273 22 19.25 21.1778 19.25 20.1667V5.04165C19.2501 4.98133 19.2382 4.92158 19.2151 4.86587C19.1919 4.81016 19.158 4.75958 19.1152 4.71707ZM6.875 19.25C6.11677 19.25 5.5 18.6332 5.5 17.875C5.5 17.1168 6.11677 16.5 6.875 16.5C7.63323 16.5 8.25 17.1168 8.25 17.875C8.25 18.6332 7.63323 19.25 6.875 19.25ZM6.875 14.6667C6.11677 14.6667 5.5 14.0499 5.5 13.2917C5.5 12.5334 6.11677 11.9167 6.875 11.9167C7.63323 11.9167 8.25 12.5334 8.25 13.2917C8.25 14.0499 7.63323 14.6667 6.875 14.6667ZM9.625 10.0833H7.79165C7.73145 10.0834 7.67183 10.0716 7.6162 10.0485C7.56058 10.0255 7.51003 9.99176 7.46746 9.94919C7.42489 9.90662 7.39113 9.85608 7.36811 9.80045C7.34509 9.74482 7.33327 9.6852 7.3333 9.625V8.25H5.9583C5.8981 8.25004 5.83848 8.23821 5.78286 8.21519C5.72723 8.19217 5.67669 8.15841 5.63412 8.11584C5.59155 8.07327 5.55779 8.02273 5.53477 7.9671C5.51175 7.91147 5.49992 7.85185 5.49996 7.79165V5.95831C5.49992 5.8981 5.51175 5.83848 5.53477 5.78286C5.55779 5.72723 5.59155 5.67669 5.63412 5.63412C5.67669 5.59155 5.72723 5.55779 5.78286 5.53477C5.83848 5.51175 5.8981 5.49992 5.9583 5.49996H7.3333V4.125C7.33327 4.0648 7.34509 4.00518 7.36811 3.94955C7.39113 3.89392 7.42489 3.84338 7.46746 3.80081C7.51003 3.75824 7.56058 3.72448 7.6162 3.70146C7.67183 3.67844 7.73145 3.66661 7.79165 3.66665H9.625C9.6852 3.66661 9.74482 3.67844 9.80045 3.70146C9.85608 3.72448 9.90662 3.75824 9.94919 3.80081C9.99176 3.84338 10.0255 3.89392 10.0485 3.94955C10.0716 4.00518 10.0834 4.0648 10.0833 4.125V5.5H11.4583C11.5185 5.49996 11.5782 5.51179 11.6338 5.53481C11.6894 5.55783 11.74 5.59159 11.7825 5.63416C11.8251 5.67673 11.8589 5.72727 11.8819 5.7829C11.9049 5.83853 11.9167 5.89815 11.9167 5.95835V7.7917C11.9167 7.8519 11.9049 7.91152 11.8819 7.96714C11.8589 8.02277 11.8251 8.07332 11.7825 8.11588C11.74 8.15845 11.6894 8.19221 11.6338 8.21523C11.5782 8.23825 11.5185 8.25008 11.4583 8.25004H10.0833V9.62504C10.0834 9.68524 10.0715 9.74486 10.0485 9.80048C10.0255 9.8561 9.99174 9.90664 9.94917 9.94921C9.9066 9.99177 9.85606 10.0255 9.80044 10.0485C9.74481 10.0716 9.6852 10.0834 9.625 10.0833ZM16.0417 18.3333H10.5417C10.4814 18.3334 10.4218 18.3216 10.3662 18.2985C10.3106 18.2755 10.26 18.2418 10.2175 18.1992C10.1749 18.1566 10.1411 18.1061 10.1181 18.0504C10.0951 17.9948 10.0833 17.9352 10.0833 17.875C10.0833 17.8148 10.0951 17.7552 10.1181 17.6996C10.1411 17.6439 10.1749 17.5934 10.2175 17.5508C10.26 17.5082 10.3106 17.4745 10.3662 17.4515C10.4218 17.4284 10.4814 17.4166 10.5417 17.4167H16.0417C16.1019 17.4166 16.1615 17.4284 16.2171 17.4515C16.2727 17.4745 16.3233 17.5082 16.3658 17.5508C16.4084 17.5934 16.4422 17.6439 16.4652 17.6996C16.4882 17.7552 16.5 17.8148 16.5 17.875C16.5 17.9352 16.4882 17.9948 16.4652 18.0504C16.4422 18.1061 16.4084 18.1566 16.3658 18.1992C16.3233 18.2418 16.2727 18.2755 16.2171 18.2985C16.1615 18.3216 16.1019 18.3334 16.0417 18.3333ZM16.0417 13.75H10.5417C10.4814 13.75 10.4218 13.7382 10.3662 13.7152C10.3106 13.6922 10.26 13.6584 10.2175 13.6158C10.1749 13.5733 10.1411 13.5227 10.1181 13.4671C10.0951 13.4115 10.0833 13.3519 10.0833 13.2917C10.0833 13.2315 10.0951 13.1718 10.1181 13.1162C10.1411 13.0606 10.1749 13.01 10.2175 12.9675C10.26 12.9249 10.3106 12.8911 10.3662 12.8681C10.4218 12.8451 10.4814 12.8333 10.5417 12.8333H16.0417C16.1019 12.8333 16.1615 12.8451 16.2171 12.8681C16.2727 12.8911 16.3233 12.9249 16.3658 12.9675C16.4084 13.01 16.4422 13.0606 16.4652 13.1162C16.4882 13.1718 16.5 13.2315 16.5 13.2917C16.5 13.3519 16.4882 13.4115 16.4652 13.4671C16.4422 13.5227 16.4084 13.5733 16.3658 13.6158C16.3233 13.6584 16.2727 13.6922 16.2171 13.7152C16.1615 13.7382 16.1019 13.75 16.0417 13.75ZM15.5833 4.58335C15.0776 4.58335 14.6667 4.17201 14.6667 3.6667V1.56479L17.6853 4.58335H15.5833Z" fill="#0EABEB"/>
</g>
<defs>
<clipPath id="clip0_3065_63957">
<rect width="22" height="22" fill="white"/>
</clipPath>
</defs>
</svg>
