<svg width="22" height="22" viewBox="0 0 22 22" fill="none" xmlns="http://www.w3.org/2000/svg">
<g clip-path="url(#clip0_3065_71055)">
<path d="M21.0833 16.9596H0.916667C0.673552 16.9596 0.440394 17.0562 0.268485 17.2281C0.0965771 17.4 0 17.6332 0 17.8763C0 18.3625 0.193154 18.8288 0.536971 19.1727C0.880788 19.5165 1.3471 19.7096 1.83333 19.7096H20.1667C20.6529 19.7096 21.1192 19.5165 21.463 19.1727C21.8068 18.8288 22 18.3625 22 17.8763C22 17.6332 21.9034 17.4 21.7315 17.2281C21.5596 17.0562 21.3264 16.9596 21.0833 16.9596ZM18.3333 11.0013V13.7513C18.3333 13.8729 18.285 13.9894 18.1991 14.0754C18.1131 14.1613 17.9966 14.2096 17.875 14.2096H11.9167V13.7513C11.9167 13.022 11.6269 12.3225 11.1112 11.8068C10.5955 11.291 9.89601 11.0013 9.16667 11.0013H8.25C7.52065 11.0013 6.82118 11.291 6.30546 11.8068C5.78973 12.3225 5.5 13.022 5.5 13.7513V14.2096H4.125C4.00344 14.2096 3.88686 14.1613 3.80091 14.0754C3.71496 13.9894 3.66667 13.8729 3.66667 13.7513V5.95964C3.66667 5.83808 3.71496 5.7215 3.80091 5.63555C3.88686 5.54959 4.00344 5.5013 4.125 5.5013H12.375V3.66797H4.125C3.51721 3.66797 2.93432 3.90941 2.50455 4.33918C2.07478 4.76895 1.83333 5.35185 1.83333 5.95964V16.043H20.1667V11.0013H18.3333Z" fill="#0EABEB"/>
<path d="M8.70801 11C9.8471 11 10.7705 10.0766 10.7705 8.9375C10.7705 7.79841 9.8471 6.875 8.70801 6.875C7.56892 6.875 6.64551 7.79841 6.64551 8.9375C6.64551 10.0766 7.56892 11 8.70801 11Z" fill="#0EABEB"/>
<path d="M20.1667 2.29297H14.2083C13.9652 2.29297 13.7321 2.38955 13.5602 2.56145C13.3882 2.73336 13.2917 2.96652 13.2917 3.20964V7.94559C13.2917 8.14405 13.2275 8.33701 13.1083 8.49559L12.4667 9.3513C12.4156 9.4194 12.3845 9.50037 12.3769 9.58514C12.3692 9.66991 12.3853 9.75514 12.4234 9.83127C12.4615 9.90741 12.52 9.97143 12.5924 10.0162C12.6648 10.0609 12.7482 10.0846 12.8333 10.0846H20.1667C20.4098 10.0846 20.6429 9.98806 20.8148 9.81615C20.9868 9.64424 21.0833 9.41108 21.0833 9.16797V3.20964C21.0833 2.96652 20.9868 2.73336 20.8148 2.56145C20.6429 2.38955 20.4098 2.29297 20.1667 2.29297ZM19.25 6.41797C19.25 6.53953 19.2017 6.65611 19.1158 6.74206C19.0298 6.82801 18.9132 6.8763 18.7917 6.8763H17.875V7.79297C17.875 7.91453 17.8267 8.03111 17.7408 8.11706C17.6548 8.20301 17.5382 8.2513 17.4167 8.2513H16.9583C16.8368 8.2513 16.7202 8.20301 16.6342 8.11706C16.5483 8.03111 16.5 7.91453 16.5 7.79297V6.8763H15.5833C15.4618 6.8763 15.3452 6.82801 15.2592 6.74206C15.1733 6.65611 15.125 6.53953 15.125 6.41797V5.95964C15.125 5.83808 15.1733 5.7215 15.2592 5.63554C15.3452 5.54959 15.4618 5.5013 15.5833 5.5013H16.5V4.58464C16.5 4.46308 16.5483 4.3465 16.6342 4.26054C16.7202 4.17459 16.8368 4.1263 16.9583 4.1263H17.4167C17.5382 4.1263 17.6548 4.17459 17.7408 4.26054C17.8267 4.3465 17.875 4.46308 17.875 4.58464V5.5013H18.7917C18.9132 5.5013 19.0298 5.54959 19.1158 5.63554C19.2017 5.7215 19.25 5.83808 19.25 5.95964V6.41797Z" fill="#0EABEB"/>
</g>
<defs>
<clipPath id="clip0_3065_71055">
<rect width="22" height="22" fill="white"/>
</clipPath>
</defs>
</svg>
