<svg width="22" height="22" viewBox="0 0 22 22" fill="none" xmlns="http://www.w3.org/2000/svg">
<path d="M14.6663 3.89453C14.6663 5.0312 13.7405 5.95703 12.6038 5.95703H9.39551C8.82717 5.95703 8.31384 5.72786 7.93801 5.35203C7.56217 4.9762 7.33301 4.46286 7.33301 3.89453C7.33301 2.75786 8.25884 1.83203 9.39551 1.83203H12.6038C13.1722 1.83203 13.6855 2.0612 14.0613 2.43703C14.4372 2.81286 14.6663 3.3262 14.6663 3.89453Z" fill="#0EABEB"/>
<path d="M17.2612 4.61001C17.0503 4.43584 16.812 4.29834 16.5553 4.19751C16.2895 4.09667 16.0237 4.30751 15.9687 4.58251C15.657 6.15001 14.2728 7.33251 12.6045 7.33251H9.39616C8.47949 7.33251 7.61783 6.97501 6.96699 6.32417C6.49033 5.84751 6.16033 5.24251 6.03199 4.59167C5.97699 4.31667 5.70199 4.09667 5.43616 4.20667C4.37283 4.63751 3.66699 5.60917 3.66699 7.56167V16.4992C3.66699 19.2492 5.30783 20.1658 7.33366 20.1658H14.667C16.6928 20.1658 18.3337 19.2492 18.3337 16.4992V7.56167C18.3337 6.06751 17.9212 5.15084 17.2612 4.61001ZM7.33366 11.2283H11.0003C11.3762 11.2283 11.6878 11.54 11.6878 11.9158C11.6878 12.2917 11.3762 12.6033 11.0003 12.6033H7.33366C6.95783 12.6033 6.64616 12.2917 6.64616 11.9158C6.64616 11.54 6.95783 11.2283 7.33366 11.2283ZM14.667 16.27H7.33366C6.95783 16.27 6.64616 15.9583 6.64616 15.5825C6.64616 15.2067 6.95783 14.895 7.33366 14.895H14.667C15.0428 14.895 15.3545 15.2067 15.3545 15.5825C15.3545 15.9583 15.0428 16.27 14.667 16.27Z" fill="#0EABEB"/>
</svg>
