<svg width="25" height="24" viewBox="0 0 25 24" fill="none" xmlns="http://www.w3.org/2000/svg">
<path d="M17.2502 3.56V2C17.2502 1.59 16.9102 1.25 16.5002 1.25C16.0902 1.25 15.7502 1.59 15.7502 2V3.5H9.25023V2C9.25023 1.59 8.91023 1.25 8.50023 1.25C8.09023 1.25 7.75023 1.59 7.75023 2V3.56C5.05023 3.81 3.74023 5.42 3.54023 7.81C3.52023 8.1 3.76023 8.34 4.04023 8.34H20.9602C21.2502 8.34 21.4902 8.09 21.4602 7.81C21.2602 5.42 19.9502 3.81 17.2502 3.56Z" fill="white"/>
<path d="M20.5 9.83984H4.5C3.95 9.83984 3.5 10.2898 3.5 10.8398V16.9998C3.5 19.9998 5 21.9998 8.5 21.9998H16.5C20 21.9998 21.5 19.9998 21.5 16.9998V10.8398C21.5 10.2898 21.05 9.83984 20.5 9.83984ZM9.71 18.2098C9.66 18.2498 9.61 18.2998 9.56 18.3298C9.5 18.3698 9.44 18.3998 9.38 18.4198C9.32 18.4498 9.26 18.4698 9.2 18.4798C9.13 18.4898 9.07 18.4998 9 18.4998C8.87 18.4998 8.74 18.4698 8.62 18.4198C8.49 18.3698 8.39 18.2998 8.29 18.2098C8.11 18.0198 8 17.7598 8 17.4998C8 17.2398 8.11 16.9798 8.29 16.7898C8.39 16.6998 8.49 16.6298 8.62 16.5798C8.8 16.4998 9 16.4798 9.2 16.5198C9.26 16.5298 9.32 16.5498 9.38 16.5798C9.44 16.5998 9.5 16.6298 9.56 16.6698C9.61 16.7098 9.66 16.7498 9.71 16.7898C9.89 16.9798 10 17.2398 10 17.4998C10 17.7598 9.89 18.0198 9.71 18.2098ZM9.71 14.7098C9.52 14.8898 9.26 14.9998 9 14.9998C8.74 14.9998 8.48 14.8898 8.29 14.7098C8.11 14.5198 8 14.2598 8 13.9998C8 13.7398 8.11 13.4798 8.29 13.2898C8.57 13.0098 9.01 12.9198 9.38 13.0798C9.51 13.1298 9.62 13.1998 9.71 13.2898C9.89 13.4798 10 13.7398 10 13.9998C10 14.2598 9.89 14.5198 9.71 14.7098ZM13.21 18.2098C13.02 18.3898 12.76 18.4998 12.5 18.4998C12.24 18.4998 11.98 18.3898 11.79 18.2098C11.61 18.0198 11.5 17.7598 11.5 17.4998C11.5 17.2398 11.61 16.9798 11.79 16.7898C12.16 16.4198 12.84 16.4198 13.21 16.7898C13.39 16.9798 13.5 17.2398 13.5 17.4998C13.5 17.7598 13.39 18.0198 13.21 18.2098ZM13.21 14.7098C13.16 14.7498 13.11 14.7898 13.06 14.8298C13 14.8698 12.94 14.8998 12.88 14.9198C12.82 14.9498 12.76 14.9698 12.7 14.9798C12.63 14.9898 12.57 14.9998 12.5 14.9998C12.24 14.9998 11.98 14.8898 11.79 14.7098C11.61 14.5198 11.5 14.2598 11.5 13.9998C11.5 13.7398 11.61 13.4798 11.79 13.2898C11.88 13.1998 11.99 13.1298 12.12 13.0798C12.49 12.9198 12.93 13.0098 13.21 13.2898C13.39 13.4798 13.5 13.7398 13.5 13.9998C13.5 14.2598 13.39 14.5198 13.21 14.7098ZM16.71 18.2098C16.52 18.3898 16.26 18.4998 16 18.4998C15.74 18.4998 15.48 18.3898 15.29 18.2098C15.11 18.0198 15 17.7598 15 17.4998C15 17.2398 15.11 16.9798 15.29 16.7898C15.66 16.4198 16.34 16.4198 16.71 16.7898C16.89 16.9798 17 17.2398 17 17.4998C17 17.7598 16.89 18.0198 16.71 18.2098ZM16.71 14.7098C16.66 14.7498 16.61 14.7898 16.56 14.8298C16.5 14.8698 16.44 14.8998 16.38 14.9198C16.32 14.9498 16.26 14.9698 16.2 14.9798C16.13 14.9898 16.06 14.9998 16 14.9998C15.74 14.9998 15.48 14.8898 15.29 14.7098C15.11 14.5198 15 14.2598 15 13.9998C15 13.7398 15.11 13.4798 15.29 13.2898C15.39 13.1998 15.49 13.1298 15.62 13.0798C15.8 12.9998 16 12.9798 16.2 13.0198C16.26 13.0298 16.32 13.0498 16.38 13.0798C16.44 13.0998 16.5 13.1298 16.56 13.1698C16.61 13.2098 16.66 13.2498 16.71 13.2898C16.89 13.4798 17 13.7398 17 13.9998C17 14.2598 16.89 14.5198 16.71 14.7098Z" fill="white"/>
</svg>
