<svg width="36" height="36" viewBox="0 0 36 36" fill="none" xmlns="http://www.w3.org/2000/svg">
<rect x="0.5" y="0.5" width="35" height="35" rx="9.5" fill="white"/>
<rect x="0.5" y="0.5" width="35" height="35" rx="9.5" stroke="#F4F4F4"/>
<path d="M22.3537 10.262V8.83203C22.3537 8.4562 22.0421 8.14453 21.6662 8.14453C21.2904 8.14453 20.9787 8.4562 20.9787 8.83203V10.207H15.0204V8.83203C15.0204 8.4562 14.7087 8.14453 14.3329 8.14453C13.9571 8.14453 13.6454 8.4562 13.6454 8.83203V10.262C11.1704 10.4912 9.96956 11.967 9.78623 14.1579C9.76789 14.4237 9.98789 14.6437 10.2446 14.6437H25.7546C26.0204 14.6437 26.2404 14.4145 26.2129 14.1579C26.0296 11.967 24.8287 10.4912 22.3537 10.262Z" fill="#0EABEB"/>
<path d="M24.4167 20.75C22.3963 20.75 20.75 22.3963 20.75 24.4167C20.75 26.437 22.3963 28.0833 24.4167 28.0833C26.437 28.0833 28.0833 26.437 28.0833 24.4167C28.0833 22.3963 26.437 20.75 24.4167 20.75ZM26.0117 25.7257C25.9603 25.8137 25.8687 25.8613 25.7733 25.8613C25.7257 25.8613 25.678 25.8503 25.634 25.821L24.4973 25.1427C24.215 24.974 24.006 24.6037 24.006 24.2773V22.774C24.006 22.6237 24.1307 22.499 24.281 22.499C24.4313 22.499 24.556 22.6237 24.556 22.774V24.2773C24.556 24.4093 24.666 24.6037 24.7797 24.6697L25.9163 25.348C26.0483 25.425 26.0923 25.5937 26.0117 25.7257Z" fill="#0EABEB"/>
<path d="M25.3333 16.0195H10.6667C10.1625 16.0195 9.75 16.432 9.75 16.9362V22.5829C9.75 25.3329 11.125 27.1662 14.3333 27.1662H18.8525C19.485 27.1662 19.925 26.552 19.7233 25.9562C19.54 25.4245 19.3842 24.8379 19.3842 24.4162C19.3842 21.6387 21.6483 19.3745 24.4258 19.3745C24.6917 19.3745 24.9575 19.3929 25.2142 19.4387C25.7642 19.5212 26.2592 19.0904 26.2592 18.5404V16.9454C26.25 16.432 25.8375 16.0195 25.3333 16.0195ZM15.4425 23.692C15.2683 23.857 15.03 23.9579 14.7917 23.9579C14.5533 23.9579 14.315 23.857 14.1408 23.692C13.9758 23.5179 13.875 23.2795 13.875 23.0412C13.875 22.8029 13.9758 22.5645 14.1408 22.3904C14.2325 22.3079 14.3242 22.2437 14.4433 22.1979C14.7825 22.0512 15.1858 22.1337 15.4425 22.3904C15.6075 22.5645 15.7083 22.8029 15.7083 23.0412C15.7083 23.2795 15.6075 23.5179 15.4425 23.692ZM15.4425 20.4837C15.3967 20.5204 15.3508 20.557 15.305 20.5937C15.25 20.6304 15.195 20.6579 15.14 20.6762C15.085 20.7037 15.03 20.722 14.975 20.7312C14.9108 20.7404 14.8467 20.7495 14.7917 20.7495C14.5533 20.7495 14.315 20.6487 14.1408 20.4837C13.9758 20.3095 13.875 20.0712 13.875 19.8329C13.875 19.5945 13.9758 19.3562 14.1408 19.182C14.3517 18.9712 14.6725 18.8704 14.975 18.9345C15.03 18.9437 15.085 18.962 15.14 18.9895C15.195 19.0079 15.25 19.0354 15.305 19.072C15.3508 19.1087 15.3967 19.1454 15.4425 19.182C15.6075 19.3562 15.7083 19.5945 15.7083 19.8329C15.7083 20.0712 15.6075 20.3095 15.4425 20.4837ZM18.6508 20.4837C18.4767 20.6487 18.2383 20.7495 18 20.7495C17.7617 20.7495 17.5233 20.6487 17.3492 20.4837C17.1842 20.3095 17.0833 20.0712 17.0833 19.8329C17.0833 19.5945 17.1842 19.3562 17.3492 19.182C17.6975 18.8429 18.3117 18.8429 18.6508 19.182C18.8158 19.3562 18.9167 19.5945 18.9167 19.8329C18.9167 20.0712 18.8158 20.3095 18.6508 20.4837Z" fill="#0EABEB"/>
</svg>
