<svg width="25" height="24" viewBox="0 0 25 24" fill="none" xmlns="http://www.w3.org/2000/svg">
<path d="M17.2502 3.56V2C17.2502 1.59 16.9102 1.25 16.5002 1.25C16.0902 1.25 15.7502 1.59 15.7502 2V3.5H9.25023V2C9.25023 1.59 8.91023 1.25 8.50023 1.25C8.09023 1.25 7.75023 1.59 7.75023 2V3.56C5.05023 3.81 3.74023 5.42 3.54023 7.81C3.52023 8.1 3.76023 8.34 4.04023 8.34H20.9602C21.2502 8.34 21.4902 8.09 21.4602 7.81C21.2602 5.42 19.9502 3.81 17.2502 3.56Z" fill="#4F4F4F"/>
<path d="M20.5 9.83984H4.5C3.95 9.83984 3.5 10.2898 3.5 10.8398V16.9998C3.5 19.9998 5 21.9998 8.5 21.9998H13.43C14.12 21.9998 14.6 21.3298 14.38 20.6798C14.18 20.0998 14.01 19.4598 14.01 18.9998C14.01 15.9698 16.48 13.4998 19.51 13.4998C19.8 13.4998 20.09 13.5198 20.37 13.5698C20.97 13.6598 21.51 13.1898 21.51 12.5898V10.8498C21.5 10.2898 21.05 9.83984 20.5 9.83984ZM9.71 17.7098C9.52 17.8898 9.26 17.9998 9 17.9998C8.87 17.9998 8.74 17.9698 8.62 17.9198C8.5 17.8698 8.39 17.7998 8.29 17.7098C8.11 17.5198 8 17.2698 8 16.9998C8 16.8698 8.03 16.7398 8.08 16.6198C8.13 16.4898 8.2 16.3898 8.29 16.2898C8.39 16.1998 8.5 16.1298 8.62 16.0798C8.98 15.9198 9.43 16.0098 9.71 16.2898C9.8 16.3898 9.87 16.4898 9.92 16.6198C9.97 16.7398 10 16.8698 10 16.9998C10 17.2698 9.89 17.5198 9.71 17.7098ZM9.71 14.2098C9.52 14.3898 9.26 14.4998 9 14.4998C8.87 14.4998 8.74 14.4798 8.62 14.4198C8.5 14.3698 8.39 14.2998 8.29 14.2098C8.11 14.0198 8 13.7598 8 13.4998C8 13.3698 8.03 13.2398 8.08 13.1198C8.13 12.9998 8.2 12.8898 8.29 12.7898C8.39 12.6998 8.5 12.6298 8.62 12.5798C8.98 12.4298 9.43 12.5098 9.71 12.7898C9.8 12.8898 9.87 12.9998 9.92 13.1198C9.97 13.2398 10 13.3698 10 13.4998C10 13.7598 9.89 14.0198 9.71 14.2098ZM13.42 13.8798C13.37 13.9998 13.3 14.1098 13.21 14.2098C13.11 14.2998 13 14.3698 12.88 14.4198C12.76 14.4798 12.63 14.4998 12.5 14.4998C12.24 14.4998 11.98 14.3898 11.79 14.2098C11.7 14.1098 11.63 13.9998 11.58 13.8798C11.53 13.7598 11.5 13.6298 11.5 13.4998C11.5 13.2398 11.61 12.9798 11.79 12.7898C12.07 12.5098 12.51 12.4198 12.88 12.5798C13 12.6298 13.11 12.6998 13.21 12.7898C13.39 12.9798 13.5 13.2398 13.5 13.4998C13.5 13.6298 13.48 13.7598 13.42 13.8798Z" fill="#4F4F4F"/>
<path d="M19.5 15C17.29 15 15.5 16.79 15.5 19C15.5 21.21 17.29 23 19.5 23C21.71 23 23.5 21.21 23.5 19C23.5 16.79 21.71 15 19.5 15ZM21.1 20.64C20.95 20.79 20.76 20.86 20.57 20.86C20.38 20.86 20.19 20.79 20.04 20.64L19.51 20.11L18.96 20.66C18.81 20.81 18.62 20.88 18.43 20.88C18.24 20.88 18.05 20.81 17.9 20.66C17.61 20.37 17.61 19.89 17.9 19.6L18.45 19.05L17.92 18.52C17.63 18.23 17.63 17.75 17.92 17.46C18.21 17.17 18.69 17.17 18.98 17.46L19.51 18L20.01 17.5C20.3 17.21 20.78 17.21 21.07 17.5C21.36 17.79 21.36 18.27 21.07 18.56L20.57 19.06L21.1 19.59C21.39 19.88 21.39 20.35 21.1 20.64Z" fill="#4F4F4F"/>
</svg>
