<svg width="22" height="23" viewBox="0 0 22 23" fill="none" xmlns="http://www.w3.org/2000/svg">
<path d="M11.915 14.6163C11.915 12.715 11.915 11.7643 12.5191 11.1737C13.1232 10.583 14.0955 10.583 16.04 10.583C17.9846 10.583 18.9569 10.583 19.5609 11.1737C20.165 11.7643 20.165 12.715 20.165 14.6163V16.633C20.165 18.5343 20.165 19.485 19.5609 20.0757C18.9569 20.6663 17.9846 20.6663 16.04 20.6663C14.0955 20.6663 13.1232 20.6663 12.5191 20.0757C11.915 19.485 11.915 18.5343 11.915 16.633V14.6163Z" fill="#0EABEB"/>
<path d="M1.83496 8.38301C1.83496 10.2843 1.83496 11.235 2.43905 11.8257C3.04315 12.4163 4.01542 12.4163 5.95996 12.4163C7.9045 12.4163 8.87678 12.4163 9.48087 11.8257C10.085 11.235 10.085 10.2843 10.085 8.38301V6.36634C10.085 4.46501 10.085 3.51434 9.48087 2.92368C8.87678 2.33301 7.9045 2.33301 5.95996 2.33301C4.01542 2.33301 3.04315 2.33301 2.43905 2.92368C1.83496 3.51434 1.83496 4.46501 1.83496 6.36634V8.38301Z" fill="#0EABEB"/>
<path d="M11.915 5.54134C11.915 4.54474 11.915 4.04645 12.072 3.65338C12.2814 3.12929 12.6829 2.71291 13.1883 2.49582C13.5673 2.33301 14.0478 2.33301 15.0088 2.33301H17.0713C18.0323 2.33301 18.5128 2.33301 18.8918 2.49582C19.3972 2.71291 19.7987 3.12929 20.008 3.65338C20.165 4.04645 20.165 4.54474 20.165 5.54134C20.165 6.53794 20.165 7.03624 20.008 7.4293C19.7987 7.95339 19.3972 8.36978 18.8918 8.58686C18.5128 8.74967 18.0323 8.74967 17.0713 8.74967H15.0088C14.0478 8.74967 13.5673 8.74967 13.1883 8.58686C12.6829 8.36978 12.2814 7.95339 12.072 7.4293C11.915 7.03624 11.915 6.53794 11.915 5.54134Z" fill="#0EABEB"/>
<path d="M1.83496 17.4583C1.83496 18.4549 1.83496 18.9532 1.99196 19.3463C2.20129 19.8704 2.60281 20.2868 3.10818 20.5039C3.4872 20.6667 3.96771 20.6667 4.92871 20.6667H6.99121C7.95222 20.6667 8.43272 20.6667 8.81175 20.5039C9.31712 20.2868 9.71863 19.8704 9.92796 19.3463C10.085 18.9532 10.085 18.4549 10.085 17.4583C10.085 16.4617 10.085 15.9634 9.92796 15.5704C9.71863 15.0463 9.31712 14.6299 8.81175 14.4128C8.43272 14.25 7.95222 14.25 6.99121 14.25H4.92871C3.96771 14.25 3.4872 14.25 3.10818 14.4128C2.60281 14.6299 2.20129 15.0463 1.99196 15.5704C1.83496 15.9634 1.83496 16.4617 1.83496 17.4583Z" fill="#0EABEB"/>
</svg>
