<svg width="40" height="40" viewBox="0 0 40 40" fill="none" xmlns="http://www.w3.org/2000/svg">
<rect width="40" height="40" rx="10" fill="#F6F8FB"/>
<path d="M29.0702 13.23C27.4602 13.07 25.8502 12.95 24.2302 12.86V12.85L24.0102 11.55C23.8602 10.63 23.6402 9.25 21.3002 9.25H18.6802C16.3502 9.25 16.1302 10.57 15.9702 11.54L15.7602 12.82C14.8302 12.88 13.9002 12.94 12.9702 13.03L10.9302 13.23C10.5102 13.27 10.2102 13.64 10.2502 14.05C10.2902 14.46 10.6502 14.76 11.0702 14.72L13.1102 14.52C18.3502 14 23.6302 14.2 28.9302 14.73C28.9602 14.73 28.9802 14.73 29.0102 14.73C29.3902 14.73 29.7202 14.44 29.7602 14.05C29.7902 13.64 29.4902 13.27 29.0702 13.23Z" fill="#E11D29"/>
<path d="M27.2302 16.14C26.9902 15.89 26.6602 15.75 26.3202 15.75H13.6802C13.3402 15.75 13.0002 15.89 12.7702 16.14C12.5402 16.39 12.4102 16.73 12.4302 17.08L13.0502 27.34C13.1602 28.86 13.3002 30.76 16.7902 30.76H23.2102C26.7002 30.76 26.8402 28.87 26.9502 27.34L27.5702 17.09C27.5902 16.73 27.4602 16.39 27.2302 16.14ZM21.6602 25.75H18.3302C17.9202 25.75 17.5802 25.41 17.5802 25C17.5802 24.59 17.9202 24.25 18.3302 24.25H21.6602C22.0702 24.25 22.4102 24.59 22.4102 25C22.4102 25.41 22.0702 25.75 21.6602 25.75ZM22.5002 21.75H17.5002C17.0902 21.75 16.7502 21.41 16.7502 21C16.7502 20.59 17.0902 20.25 17.5002 20.25H22.5002C22.9102 20.25 23.2502 20.59 23.2502 21C23.2502 21.41 22.9102 21.75 22.5002 21.75Z" fill="#E11D29"/>
</svg>
