<svg width="14" height="14" viewBox="0 0 14 14" fill="none" xmlns="http://www.w3.org/2000/svg">
<path d="M12.4248 7.13428H10.3948C9.82317 7.13428 9.31567 7.44928 9.059 7.96261L8.569 8.93094C8.45234 9.16428 8.219 9.31011 7.96234 9.31011H6.049C5.86817 9.31011 5.6115 9.26928 5.44234 8.93094L4.95234 7.96844C4.69567 7.46094 4.18234 7.14011 3.6165 7.14011H1.57484C1.34734 7.14011 1.1665 7.32094 1.1665 7.54844V9.45011C1.1665 11.5676 2.43817 12.8334 4.5615 12.8334H9.44984C11.4507 12.8334 12.6815 11.7368 12.8332 9.78844V7.54261C12.8332 7.32094 12.6523 7.13428 12.4248 7.13428Z" fill="#4F4F4F"/>
<path d="M12.8332 4.55591V6.32925C12.7048 6.28258 12.5648 6.25925 12.4248 6.25925H10.3948C9.49067 6.25925 8.67984 6.76092 8.27734 7.56592L7.83984 8.42925H6.1715L5.734 7.57175C5.3315 6.76091 4.52067 6.25925 3.6165 6.25925H1.57484C1.43484 6.25925 1.29484 6.28258 1.1665 6.32925V4.55591C1.1665 2.43258 2.43234 1.16675 4.55567 1.16675H9.444C11.5673 1.16675 12.8332 2.43258 12.8332 4.55591Z" fill="#4F4F4F"/>
</svg>
