<svg width="15" height="15" viewBox="0 0 15 15" fill="none" xmlns="http://www.w3.org/2000/svg">
<path d="M10.9028 8.47233C11.0195 8.74177 11.0874 9.07148 11.1024 9.45273C11.4964 9.543 11.7912 9.89534 11.7912 10.3161C11.7912 10.8048 11.3936 11.2024 10.9049 11.2024C10.4162 11.2024 10.0185 10.8048 10.0185 10.3161C10.0185 9.90011 10.3069 9.55145 10.6939 9.45614C10.6769 9.07748 10.5863 8.50137 10.2157 8.21693C10.0245 8.167 9.82946 8.13266 9.63265 8.11426C9.61793 8.77763 7.42532 10.4147 7.42532 10.4147C7.42532 10.4147 5.23204 8.7779 5.21717 8.11453C4.99887 8.13447 4.78285 8.17432 4.5718 8.23357C4.30141 8.44765 4.1615 8.84649 4.15428 9.42628C4.235 9.47332 4.29902 9.5444 4.3374 9.62958C4.62866 9.76717 4.88596 10.0565 5.083 10.4684C5.116 10.5377 5.12036 10.616 5.09609 10.6874C5.21417 10.9914 5.28167 11.3235 5.28167 11.6025C5.28167 11.9934 5.28167 12.3631 4.85556 12.458C4.80936 12.4965 4.75111 12.5175 4.69097 12.5175H4.40626C4.33765 12.5174 4.27187 12.4901 4.22333 12.4416C4.1748 12.393 4.14747 12.3273 4.14732 12.2587L4.1476 12.2486C4.15057 12.1818 4.17907 12.1188 4.22722 12.0725C4.27536 12.0262 4.33946 12.0001 4.40626 11.9997H4.69097C4.71999 11.9997 4.7488 12.0046 4.7762 12.0142C4.78421 12.0125 4.7919 12.0095 4.79897 12.0053C4.8306 11.9491 4.8306 11.7151 4.8306 11.6028C4.8306 11.3762 4.77388 11.1025 4.67448 10.8482C4.6228 10.8189 4.58131 10.7745 4.55557 10.721C4.38295 10.3595 4.14814 10.1261 3.95752 10.1261C3.76253 10.1261 3.516 10.3786 3.34405 10.7538C3.31558 10.8152 3.26692 10.8649 3.20619 10.8947C3.11634 11.138 3.06697 11.3884 3.06697 11.6027C3.06697 11.697 3.06697 11.9474 3.10297 12.0063C3.10338 12.0063 3.11143 12.0112 3.13406 12.0168C3.16351 12.0054 3.19515 11.9996 3.22678 11.9996H3.51204C3.57614 11.9997 3.63795 12.0235 3.6855 12.0665C3.73305 12.1095 3.76297 12.1686 3.76948 12.2323L3.77084 12.2483C3.77084 12.4012 3.65467 12.5176 3.51204 12.5176H3.22678C3.1702 12.5176 3.11552 12.4986 3.07052 12.4643C2.90757 12.4336 2.79276 12.3617 2.72008 12.2448C2.632 12.1034 2.61591 11.9176 2.61591 11.6027C2.61591 11.3264 2.67972 11.0081 2.79563 10.7042C2.77843 10.6395 2.78446 10.5708 2.81267 10.51C2.93335 10.246 3.08688 10.02 3.25651 9.85648C3.34461 9.77028 3.44519 9.69784 3.55486 9.64158C3.59344 9.55114 3.66039 9.47571 3.74562 9.42668C3.74998 9.0633 3.80589 8.74954 3.90925 8.49087C2.72595 9.09111 1.91504 10.3187 1.91504 11.7364C1.91504 13.548 3.23865 13.6367 4.97132 13.6367C5.16045 13.6367 5.35407 13.6356 5.55193 13.6356H9.29722C9.4948 13.6356 9.68842 13.6367 9.87755 13.6367C11.6105 13.6367 12.9347 13.548 12.9347 11.7364C12.9345 10.3037 12.1063 9.06534 10.9028 8.47233Z" fill="#0EABEB"/>
<path d="M7.42549 8.59003C9.10048 8.59003 10.4582 6.0714 10.4582 4.39654C10.4582 2.72195 9.10048 1.36426 7.42549 1.36426C5.75076 1.36426 4.39307 2.72195 4.39307 4.39654C4.39307 6.0714 5.75076 8.59003 7.42549 8.59003Z" fill="#0EABEB"/>
<path d="M10.9052 10.7244C11.1311 10.7244 11.3142 10.5412 11.3142 10.3153C11.3142 10.0894 11.1311 9.90625 10.9052 9.90625C10.6792 9.90625 10.4961 10.0894 10.4961 10.3153C10.4961 10.5412 10.6792 10.7244 10.9052 10.7244Z" fill="#0EABEB"/>
</svg>
