<svg width="22" height="23" viewBox="0 0 22 23" fill="none" xmlns="http://www.w3.org/2000/svg">
<path d="M15.9907 12.9265C16.1618 13.3217 16.2614 13.8053 16.2834 14.3645C16.8612 14.4969 17.2936 15.0136 17.2936 15.6308C17.2936 16.3475 16.7104 16.9307 15.9937 16.9307C15.2769 16.9307 14.6937 16.3475 14.6937 15.6308C14.6937 15.0206 15.1167 14.5092 15.6843 14.3695C15.6593 13.8141 15.5265 12.9691 14.9829 12.552C14.7024 12.4787 14.4164 12.4284 14.1278 12.4014C14.1062 13.3743 10.8903 15.7754 10.8903 15.7754C10.8903 15.7754 7.67352 13.3747 7.65172 12.4018C7.33155 12.431 7.01472 12.4895 6.70518 12.5764C6.3086 12.8903 6.10341 13.4753 6.09281 14.3257C6.21121 14.3947 6.3051 14.4989 6.3614 14.6238C6.78857 14.8256 7.16595 15.25 7.45493 15.8542C7.50333 15.9558 7.50973 16.0706 7.47413 16.1754C7.64732 16.6211 7.74632 17.1083 7.74632 17.5175C7.74632 18.0908 7.74632 18.633 7.12135 18.7722C7.05359 18.8287 6.96816 18.8595 6.87997 18.8594H6.46239C6.36175 18.8592 6.26527 18.8192 6.19409 18.7481C6.12291 18.6769 6.08282 18.5805 6.08261 18.4798L6.08301 18.465C6.08737 18.3671 6.12918 18.2747 6.19979 18.2067C6.2704 18.1388 6.36441 18.1006 6.46239 18.1H6.87997C6.92252 18.1001 6.96478 18.1072 7.00496 18.1212C7.01672 18.1187 7.02799 18.1143 7.03836 18.1082C7.08475 18.0259 7.08475 17.6827 7.08475 17.5179C7.08475 17.1855 7.00156 16.7841 6.85577 16.4111C6.77998 16.3682 6.71913 16.3031 6.68138 16.2246C6.42819 15.6944 6.08381 15.352 5.80423 15.352C5.51824 15.352 5.15666 15.7224 4.90448 16.2728C4.86272 16.3627 4.79135 16.4357 4.70229 16.4793C4.5705 16.8361 4.4981 17.2035 4.4981 17.5177C4.4981 17.6561 4.4981 18.0233 4.5509 18.1096C4.5515 18.1096 4.5633 18.1168 4.59649 18.125C4.63969 18.1084 4.68609 18.0998 4.73249 18.0998H5.15086C5.24488 18.1 5.33552 18.1349 5.40526 18.198C5.475 18.261 5.51889 18.3477 5.52844 18.4412L5.53044 18.4646C5.53044 18.6888 5.36005 18.8596 5.15086 18.8596H4.73249C4.64949 18.8596 4.5693 18.8318 4.5033 18.7814C4.26431 18.7364 4.09592 18.631 3.98933 18.4594C3.86013 18.252 3.83654 17.9797 3.83654 17.5177C3.83654 17.1125 3.93013 16.6457 4.10012 16.2C4.0749 16.105 4.08374 16.0043 4.12512 15.9152C4.30211 15.528 4.5273 15.1964 4.77608 14.9566C4.9053 14.8302 5.05281 14.724 5.21366 14.6414C5.27024 14.5088 5.36845 14.3982 5.49344 14.3263C5.49984 13.7933 5.58184 13.3331 5.73343 12.9537C3.99793 13.8341 2.80859 15.6346 2.80859 17.7139C2.80859 20.3709 4.74989 20.5009 7.29114 20.5009C7.56853 20.5009 7.85251 20.4993 8.1427 20.4993H13.6358C13.9256 20.4993 14.2096 20.5009 14.4869 20.5009C17.0286 20.5009 18.9707 20.3709 18.9707 17.7139C18.9705 15.6126 17.7558 13.7963 15.9907 12.9265Z" fill="#818194"/>
<path d="M10.8904 13.0988C13.3471 13.0988 15.3384 9.40479 15.3384 6.94833C15.3384 4.49227 13.3471 2.50098 10.8904 2.50098C8.43416 2.50098 6.44287 4.49227 6.44287 6.94833C6.44287 9.40479 8.43416 13.0988 10.8904 13.0988Z" fill="#818194"/>
<path d="M15.994 16.2292C16.3254 16.2292 16.594 15.9606 16.594 15.6293C16.594 15.2979 16.3254 15.0293 15.994 15.0293C15.6627 15.0293 15.394 15.2979 15.394 15.6293C15.394 15.9606 15.6627 16.2292 15.994 16.2292Z" fill="#818194"/>
</svg>
