<svg width="36" height="36" viewBox="0 0 36 36" fill="none" xmlns="http://www.w3.org/2000/svg">
<rect x="0.5" y="0.5" width="35" height="35" rx="9.5" fill="white"/>
<rect x="0.5" y="0.5" width="35" height="35" rx="9.5" stroke="#F4F4F4"/>
<path d="M22.4002 15.25H18.6877V19.32L20.5852 17.4225C20.7227 17.285 20.8968 17.2208 21.071 17.2208C21.2452 17.2208 21.4193 17.285 21.5568 17.4225C21.8227 17.6883 21.8227 18.1283 21.5568 18.3942L18.486 21.465C18.2202 21.7308 17.7802 21.7308 17.5143 21.465L14.4435 18.3942C14.1777 18.1283 14.1777 17.6883 14.4435 17.4225C14.7093 17.1567 15.1493 17.1567 15.4152 17.4225L17.3127 19.32V15.25H13.6002C10.6668 15.25 8.8335 17.0833 8.8335 20.0167V22.3908C8.8335 25.3333 10.6668 27.1667 13.6002 27.1667H22.391C25.3243 27.1667 27.1577 25.3333 27.1577 22.4V20.0167C27.1668 17.0833 25.3335 15.25 22.4002 15.25Z" fill="#A7A7A7"/>
<path d="M18.6875 9.51953C18.6875 9.1437 18.3758 8.83203 18 8.83203C17.6242 8.83203 17.3125 9.1437 17.3125 9.51953V15.2487H18.6875V9.51953Z" fill="#A7A7A7"/>
</svg>
