<svg width="42" height="42" viewBox="0 0 42 42" fill="none" xmlns="http://www.w3.org/2000/svg">
<path fill-rule="evenodd" clip-rule="evenodd" d="M0 16C0 10.3995 0 7.59921 1.08993 5.46009C2.04867 3.57847 3.57847 2.04867 5.46009 1.08993C7.59921 0 10.3995 0 16 0L26 0C31.6005 0 34.4008 0 36.5399 1.08993C38.4215 2.04867 39.9513 3.57847 40.9101 5.46009C42 7.59921 42 10.3995 42 16V26C42 31.6005 42 34.4008 40.9101 36.5399C39.9513 38.4215 38.4215 39.9513 36.5399 40.9101C34.4008 42 31.6005 42 26 42H16C10.3995 42 7.59921 42 5.46009 40.9101C3.57847 39.9513 2.04867 38.4215 1.08993 36.5399C0 34.4008 0 31.6005 0 26V16Z" fill="#F4F4F4"/>
<path d="M26.5997 17.5H21.8747V22.68L24.2897 20.265C24.4647 20.09 24.6863 20.0083 24.908 20.0083C25.1297 20.0083 25.3513 20.09 25.5263 20.265C25.8647 20.6033 25.8647 21.1633 25.5263 21.5017L21.618 25.41C21.2797 25.7483 20.7197 25.7483 20.3813 25.41L16.473 21.5017C16.1347 21.1633 16.1347 20.6033 16.473 20.265C16.8113 19.9267 17.3713 19.9267 17.7097 20.265L20.1247 22.68V17.5H15.3997C11.6663 17.5 9.33301 19.8333 9.33301 23.5667V26.5883C9.33301 30.3333 11.6663 32.6667 15.3997 32.6667H26.588C30.3213 32.6667 32.6547 30.3333 32.6547 26.6V23.5667C32.6663 19.8333 30.333 17.5 26.5997 17.5Z" fill="#0EABEB"/>
<path d="M21.875 10.2031C21.875 9.72479 21.4783 9.32812 21 9.32812C20.5217 9.32812 20.125 9.72479 20.125 10.2031V17.4948H21.875V10.2031Z" fill="#0EABEB"/>
</svg>
