<svg width="40" height="40" viewBox="0 0 40 40" fill="none" xmlns="http://www.w3.org/2000/svg">
<rect width="40" height="40" rx="10" fill="#F6F8FB"/>
<path d="M24.19 10H15.81C12.17 10 10 12.17 10 15.81V24.18C10 27.83 12.17 30 15.81 30H24.18C27.82 30 29.99 27.83 29.99 24.19V15.81C30 12.17 27.83 10 24.19 10ZM18.95 25.51C18.66 25.8 18.11 26.08 17.71 26.14L15.25 26.49C15.16 26.5 15.07 26.51 14.98 26.51C14.57 26.51 14.19 26.37 13.92 26.1C13.59 25.77 13.45 25.29 13.53 24.76L13.88 22.3C13.94 21.89 14.21 21.35 14.51 21.06L18.97 16.6C19.05 16.81 19.13 17.02 19.24 17.26C19.34 17.47 19.45 17.69 19.57 17.89C19.67 18.06 19.78 18.22 19.87 18.34C19.98 18.51 20.11 18.67 20.19 18.76C20.24 18.83 20.28 18.88 20.3 18.9C20.55 19.2 20.84 19.48 21.09 19.69C21.16 19.76 21.2 19.8 21.22 19.81C21.37 19.93 21.52 20.05 21.65 20.14C21.81 20.26 21.97 20.37 22.14 20.46C22.34 20.58 22.56 20.69 22.78 20.8C23.01 20.9 23.22 20.99 23.43 21.06L18.95 25.51ZM25.37 19.09L24.45 20.02C24.39 20.08 24.31 20.11 24.23 20.11C24.2 20.11 24.16 20.11 24.14 20.1C22.11 19.52 20.49 17.9 19.91 15.87C19.88 15.76 19.91 15.64 19.99 15.57L20.92 14.64C22.44 13.12 23.89 13.15 25.38 14.64C26.14 15.4 26.51 16.13 26.51 16.89C26.5 17.61 26.13 18.33 25.37 19.09Z" fill="#39973D"/>
</svg>
