<svg width="36" height="36" viewBox="0 0 36 36" fill="none" xmlns="http://www.w3.org/2000/svg">
<rect x="0.5" y="0.5" width="35" height="35" rx="9.5" fill="white"/>
<rect x="0.5" y="0.5" width="35" height="35" rx="9.5" stroke="#F4F4F4"/>
<path d="M26.4788 15.3875C24.3613 12.06 21.263 10.1442 17.9997 10.1442C16.368 10.1442 14.7822 10.6208 13.3338 11.51C11.8855 12.4083 10.5838 13.7192 9.52051 15.3875C8.60384 16.8267 8.60384 19.1642 9.52051 20.6033C11.638 23.94 14.7363 25.8467 17.9997 25.8467C19.6313 25.8467 21.2172 25.37 22.6655 24.4808C24.1138 23.5825 25.4155 22.2717 26.4788 20.6033C27.3955 19.1733 27.3955 16.8267 26.4788 15.3875ZM17.9997 21.7033C15.9463 21.7033 14.2963 20.0442 14.2963 18C14.2963 15.9558 15.9463 14.2967 17.9997 14.2967C20.053 14.2967 21.703 15.9558 21.703 18C21.703 20.0442 20.053 21.7033 17.9997 21.7033Z" fill="#0EABEB"/>
<path d="M18.0002 15.3783C16.561 15.3783 15.3877 16.5516 15.3877 18C15.3877 19.4391 16.561 20.6125 18.0002 20.6125C19.4394 20.6125 20.6219 19.4391 20.6219 18C20.6219 16.5608 19.4394 15.3783 18.0002 15.3783Z" fill="#0EABEB"/>
</svg>
