<svg width="28" height="28" viewBox="0 0 28 28" fill="none" xmlns="http://www.w3.org/2000/svg">
<rect width="28" height="28" rx="5" fill="$color9"/>
<path d="M20.475 12.0051C18.858 9.4641 16.492 8.0011 14 8.0011C12.754 8.0011 11.543 8.3651 10.437 9.0441C9.331 9.7301 8.337 10.7311 7.525 12.0051C6.825 13.1041 6.825 14.8891 7.525 15.9881C9.142 18.5361 11.508 19.9921 14 19.9921C15.246 19.9921 16.457 19.6281 17.563 18.9491C18.669 18.2631 19.663 17.2621 20.475 15.9881C21.175 14.8961 21.175 13.1041 20.475 12.0051ZM14 16.8281C12.432 16.8281 11.172 15.5611 11.172 14.0001C11.172 12.4391 12.432 11.1721 14 11.1721C15.568 11.1721 16.828 12.4391 16.828 14.0001C16.828 15.5611 15.568 16.8281 14 16.8281Z" fill="#0EABEB"/>
<path d="M13.9999 11.998C12.9009 11.998 12.0049 12.894 12.0049 14C12.0049 15.099 12.9009 15.995 13.9999 15.995C15.0989 15.995 16.0019 15.099 16.0019 14C16.0019 12.901 15.0989 11.998 13.9999 11.998Z" fill="#0EABEB"/>
</svg>
