<svg width="28" height="29" viewBox="0 0 28 29" fill="none" xmlns="http://www.w3.org/2000/svg">
<rect y="0.0820312" width="28" height="28" rx="5" fill="#F6F8FB"/>
<path d="M20.475 12.0899C18.858 9.54894 16.492 8.08594 14 8.08594C12.754 8.08594 11.543 8.44994 10.437 9.12894C9.331 9.81494 8.337 10.8159 7.525 12.0899C6.825 13.1889 6.825 14.9739 7.525 16.0729C9.142 18.6209 11.508 20.0769 14 20.0769C15.246 20.0769 16.457 19.7129 17.563 19.0339C18.669 18.3479 19.663 17.3469 20.475 16.0729C21.175 14.9809 21.175 13.1889 20.475 12.0899ZM14 16.9129C12.432 16.9129 11.172 15.6459 11.172 14.0849C11.172 12.5239 12.432 11.2569 14 11.2569C15.568 11.2569 16.828 12.5239 16.828 14.0849C16.828 15.6459 15.568 16.9129 14 16.9129Z" fill="#0EABEB"/>
<path d="M13.9999 12.082C12.9009 12.082 12.0049 12.978 12.0049 14.084C12.0049 15.183 12.9009 16.079 13.9999 16.079C15.0989 16.079 16.0019 15.183 16.0019 14.084C16.0019 12.985 15.0989 12.082 13.9999 12.082Z" fill="#0EABEB"/>
</svg>
