<svg width="40" height="40" viewBox="0 0 40 40" fill="none" xmlns="http://www.w3.org/2000/svg">
<rect width="40" height="40" rx="10" fill="#F6F8FB"/>
<path d="M29.25 17.1497C26.94 13.5197 23.56 11.4297 20 11.4297C18.22 11.4297 16.49 11.9497 14.91 12.9197C13.33 13.8997 11.91 15.3297 10.75 17.1497C9.75 18.7197 9.75 21.2697 10.75 22.8397C13.06 26.4797 16.44 28.5597 20 28.5597C21.78 28.5597 23.51 28.0397 25.09 27.0697C26.67 26.0897 28.09 24.6597 29.25 22.8397C30.25 21.2797 30.25 18.7197 29.25 17.1497ZM20 24.0397C17.76 24.0397 15.96 22.2297 15.96 19.9997C15.96 17.7697 17.76 15.9597 20 15.9597C22.24 15.9597 24.04 17.7697 24.04 19.9997C24.04 22.2297 22.24 24.0397 20 24.0397Z" fill="#0EABEB"/>
<path d="M19.9999 17.1396C18.4299 17.1396 17.1499 18.4196 17.1499 19.9996C17.1499 21.5696 18.4299 22.8496 19.9999 22.8496C21.5699 22.8496 22.8599 21.5696 22.8599 19.9996C22.8599 18.4296 21.5699 17.1396 19.9999 17.1396Z" fill="#0EABEB"/>
</svg>
