<svg width="107" height="74" viewBox="0 0 107 74" fill="none" xmlns="http://www.w3.org/2000/svg">
<path d="M67.7601 56.9735H30.4312V52.0091C30.4312 47.8273 33.8159 44.4375 37.9914 44.4375H75.3203V49.4019C75.3206 53.5834 71.9356 56.9735 67.7601 56.9735Z" fill="#0EABEB"/>
<path d="M46.6191 73.1855V35.8001C46.6191 31.6184 50.0039 28.2285 54.1794 28.2285H59.1364V65.6135C59.1364 69.7953 55.7516 73.1852 51.5761 73.1852L46.6191 73.1855Z" fill="#0EABEB"/>
<path d="M28.0961 69.3719C23.6677 66.8737 19.4392 63.9593 15.5785 60.5376C13.6397 58.8359 11.8364 56.9666 10.1504 54.9789C8.47186 52.9853 6.92628 50.8527 5.59156 48.5718L4.64393 46.829L3.79498 45.0632C3.25864 43.8446 2.74314 42.5407 2.3392 41.2866C1.51048 38.7411 0.9438 36.0984 0.673485 33.4047C0.16718 28.0295 0.890778 22.3947 3.24669 17.2789L4.20382 15.3986L5.31573 13.5957L5.38591 13.483L5.5177 13.3028L5.65807 13.1107L5.9385 12.7261L6.49966 11.9569C6.98114 11.3949 7.46814 10.812 7.96372 10.277C9.90895 8.22113 12.1591 6.47894 14.5904 5.07714C17.0208 3.6689 19.6461 2.62806 22.3536 1.91903C25.0634 1.21736 27.868 0.850265 30.688 0.880652C31.3926 0.892009 32.0978 0.94296 32.8027 0.975803L34.8031 1.20017C35.5211 1.32387 36.2644 1.4356 36.961 1.58201C37.6395 1.74653 38.3285 1.88004 38.9982 2.07556C41.6921 2.81191 44.284 3.86994 46.7153 5.19807C51.5792 7.85187 55.861 11.4959 59.2384 15.8679L54.3601 15.5103C56.2327 13.7421 58.292 12.1932 60.4845 10.8783C62.6774 9.56583 65.0057 8.47957 67.4364 7.6938C72.2819 6.12012 77.5058 5.4958 82.6228 6.3095C83.2643 6.37457 83.8938 6.54278 84.5276 6.66494C85.1635 6.78127 85.7878 6.95408 86.4084 7.14193L87.3407 7.41356L87.4572 7.44764L87.5154 7.46483L87.6877 7.52467L87.8909 7.60234L88.2976 7.75733L89.1107 8.06734L89.5164 8.2245L89.9786 8.43905C90.5937 8.7334 91.2281 9.02316 91.8184 9.33471L93.4924 10.3151C94.5685 11.0269 95.631 11.7577 96.6059 12.595C100.561 15.8689 103.609 20.1875 105.315 25.0255C106.17 27.4405 106.686 29.9859 106.796 32.5603L106.778 34.4921L106.775 34.7331L106.765 34.9179L106.755 35.0265L106.714 35.4605L106.624 36.3319C106.431 37.6702 106.195 38.9118 105.841 40.115C105.155 42.5355 104.17 44.8385 102.936 46.9637C101.703 49.0902 100.281 51.081 98.6676 52.8837C95.4278 56.485 91.6508 59.4464 87.6524 61.9203C83.6654 64.4188 79.4985 66.506 75.3071 68.5263C79.1488 65.898 83.0341 63.3344 86.6395 60.478C90.2299 57.6207 93.5997 54.5096 96.2434 50.9055C97.5508 49.0976 98.7366 47.2191 99.6827 45.2412C100.642 43.2713 101.34 41.2034 101.769 39.1144C101.998 38.0668 102.105 37.0048 102.183 36.0361L102.209 35.1687L102.225 34.7331L102.229 34.6241L102.231 34.5698C102.234 34.4964 102.227 34.6392 102.227 34.6158L102.226 34.5916L102.217 34.397L102.149 32.8436C101.946 30.7769 101.42 28.7453 100.62 26.8223C99.8175 24.9015 98.7617 23.0764 97.4665 21.4352C96.1618 19.8023 94.6665 18.329 93.0299 17.0558C92.219 16.4063 91.3397 15.8584 90.4622 15.3185L89.1027 14.5898L87.7916 14.0066L87.4618 13.8599L87.0505 13.7178L86.2291 13.4299L85.8185 13.2859L85.6131 13.2138L85.5874 13.2049C85.4718 13.165 85.7158 13.2488 85.6824 13.2384L85.6358 13.2264L85.5426 13.2025L84.7976 13.0103C84.3035 12.8737 83.807 12.7473 83.2967 12.673C82.7889 12.5929 82.2912 12.4634 81.7745 12.4311C77.6866 11.9038 73.4526 12.4815 69.5085 13.8231C67.5277 14.4901 65.6475 15.4336 63.861 16.5024C62.0798 17.5843 60.4159 18.8511 58.9166 20.2787L56.2922 22.7784L54.038 19.9211C51.1743 16.2909 47.6059 13.1828 43.5721 10.9643C41.5554 9.85897 39.4352 8.95962 37.2491 8.31812C36.7051 8.14685 36.1476 8.03574 35.5978 7.88871C35.0562 7.76594 34.5453 7.68521 34.0179 7.57379L32.2437 7.34267C31.6831 7.31228 31.1238 7.25886 30.5617 7.24014C26.0604 7.09864 21.4694 8.15667 17.4683 10.2773C15.4657 11.3326 13.6128 12.6604 12.0077 14.2316L10.9173 15.3719L9.79371 16.7596L8.83075 18.1479L7.98119 19.6184C6.92107 21.6277 6.15794 23.8211 5.68933 26.1001C5.21582 28.38 5.05155 30.7435 5.12143 33.1134C5.18395 35.4854 5.51126 37.8691 6.0853 40.2015C6.37676 41.39 6.71696 42.4775 7.11599 43.6184L7.79209 45.3406L8.54419 47.0046C9.59082 49.2078 10.8318 51.3383 12.2446 53.368C13.6504 55.4046 15.2417 57.3224 16.9108 59.1864C20.2726 62.8976 24.0934 66.2359 28.0961 69.3719Z" fill="#0EABEB"/>
</svg>
