<svg width="47" height="47" viewBox="0 0 47 47" fill="none" xmlns="http://www.w3.org/2000/svg">
<rect width="47" height="47" rx="10" fill="#F6F8FB"/>
<path d="M14.08 30.5093L14.06 30.5293C13.79 29.9393 13.62 29.2693 13.55 28.5293C13.62 29.2593 13.81 29.9193 14.08 30.5093Z" fill="#5678E9"/>
<path d="M20.5001 21.8791C21.8146 21.8791 22.8801 20.8136 22.8801 19.4991C22.8801 18.1847 21.8146 17.1191 20.5001 17.1191C19.1857 17.1191 18.1201 18.1847 18.1201 19.4991C18.1201 20.8136 19.1857 21.8791 20.5001 21.8791Z" fill="#5678E9"/>
<path d="M27.69 13.5H19.31C15.67 13.5 13.5 15.67 13.5 19.31V27.69C13.5 28.78 13.69 29.73 14.06 30.53C14.92 32.43 16.76 33.5 19.31 33.5H27.69C31.33 33.5 33.5 31.33 33.5 27.69V25.4V19.31C33.5 15.67 31.33 13.5 27.69 13.5ZM31.87 24C31.09 23.33 29.83 23.33 29.05 24L24.89 27.57C24.11 28.24 22.85 28.24 22.07 27.57L21.73 27.29C21.02 26.67 19.89 26.61 19.09 27.15L15.35 29.66C15.13 29.1 15 28.45 15 27.69V19.31C15 16.49 16.49 15 19.31 15H27.69C30.51 15 32 16.49 32 19.31V24.11L31.87 24Z" fill="#5678E9"/>
</svg>
