<svg width="22" height="23" viewBox="0 0 22 23" fill="none" xmlns="http://www.w3.org/2000/svg">
<path d="M6.6 2.33301H8.98333C11.9167 2.33301 13.75 4.16634 13.75 7.09967V10.8122H8.02083C7.645 10.8122 7.33333 11.1238 7.33333 11.4997C7.33333 11.8755 7.645 12.1872 8.02083 12.1872H13.75V15.8997C13.75 18.833 11.9167 20.6663 8.98333 20.6663H6.60917C3.67583 20.6663 1.8425 18.833 1.8425 15.8997V7.09967C1.83333 4.16634 3.66667 2.33301 6.6 2.33301Z" fill="#E11D29"/>
<path d="M17.8202 10.8127L15.9227 8.91518C15.7852 8.77768 15.721 8.60352 15.721 8.42935C15.721 8.25518 15.7852 8.07185 15.9227 7.94352C16.1885 7.67768 16.6285 7.67768 16.8943 7.94352L19.9652 11.0143C20.231 11.2802 20.231 11.7202 19.9652 11.986L16.8943 15.0568C16.6285 15.3227 16.1885 15.3227 15.9227 15.0568C15.6568 14.791 15.6568 14.351 15.9227 14.0852L17.8202 12.1877H13.7502V10.8127H17.8202Z" fill="#E11D29"/>
</svg>
