<svg width="40" height="40" viewBox="0 0 40 40" fill="none" xmlns="http://www.w3.org/2000/svg">
<rect width="40" height="40" rx="10" fill="#F6F8FB"/>
<path d="M19.9402 10.2098L17.5302 15.8198H15.1202C14.7202 15.8198 14.3302 15.8498 13.9502 15.9298L14.9502 13.5298L14.9902 13.4398L15.0502 13.2798C15.0802 13.2098 15.1002 13.1498 15.1302 13.0998C16.2902 10.4098 17.5902 9.56983 19.9402 10.2098Z" fill="#818194"/>
<path d="M26.7301 16.0895L26.7101 16.0795C26.1101 15.9095 25.5001 15.8195 24.8801 15.8195H18.6201L20.8701 10.5895L20.9001 10.5195C21.0401 10.5695 21.1901 10.6395 21.3401 10.6895L23.5501 11.6195C24.7801 12.1295 25.6401 12.6595 26.1701 13.2995C26.2601 13.4195 26.3401 13.5295 26.4201 13.6595C26.5101 13.7995 26.5801 13.9395 26.6201 14.0895C26.6601 14.1795 26.6901 14.2595 26.7101 14.3495C26.8601 14.8595 26.8701 15.4395 26.7301 16.0895Z" fill="#818194"/>
<path d="M20.52 25.6601H20.77C21.07 25.6601 21.32 25.3901 21.32 25.0601C21.32 24.6401 21.2 24.5801 20.94 24.4801L20.52 24.3301V25.6601Z" fill="#818194"/>
<path d="M26.2902 17.5203C25.8402 17.3903 25.3702 17.3203 24.8802 17.3203H15.1202C14.4402 17.3203 13.8002 17.4503 13.2002 17.7103C11.4602 18.4603 10.2402 20.1903 10.2402 22.2003V24.1503C10.2402 24.3903 10.2602 24.6203 10.2902 24.8603C10.5102 28.0403 12.2102 29.7403 15.3902 29.9503C15.6202 29.9803 15.8502 30.0003 16.1002 30.0003H23.9002C27.6002 30.0003 29.5502 28.2403 29.7402 24.7403C29.7502 24.5503 29.7602 24.3503 29.7602 24.1503V22.2003C29.7602 19.9903 28.2902 18.1303 26.2902 17.5203ZM21.2802 23.5003C21.7402 23.6603 22.3602 24.0003 22.3602 25.0603C22.3602 25.9703 21.6502 26.7003 20.7702 26.7003H20.5202V26.9203C20.5202 27.2103 20.2902 27.4403 20.0002 27.4403C19.7102 27.4403 19.4802 27.2103 19.4802 26.9203V26.7003H19.3902C18.4302 26.7003 17.6402 25.8903 17.6402 24.8903C17.6402 24.6003 17.8702 24.3703 18.1602 24.3703C18.4502 24.3703 18.6802 24.6003 18.6802 24.8903C18.6802 25.3103 19.0002 25.6603 19.3902 25.6603H19.4802V23.9703L18.7202 23.7003C18.2602 23.5403 17.6402 23.2003 17.6402 22.1403C17.6402 21.2303 18.3502 20.5003 19.2302 20.5003H19.4802V20.2803C19.4802 19.9903 19.7102 19.7603 20.0002 19.7603C20.2902 19.7603 20.5202 19.9903 20.5202 20.2803V20.5003H20.6102C21.5702 20.5003 22.3602 21.3103 22.3602 22.3103C22.3602 22.6003 22.1302 22.8303 21.8402 22.8303C21.5502 22.8303 21.3202 22.6003 21.3202 22.3103C21.3202 21.8903 21.0002 21.5403 20.6102 21.5403H20.5202V23.2303L21.2802 23.5003Z" fill="#818194"/>
<path d="M18.6802 22.14C18.6802 22.56 18.8002 22.62 19.0602 22.72L19.4802 22.87V21.54H19.2302C18.9202 21.54 18.6802 21.81 18.6802 22.14Z" fill="#818194"/>
</svg>
