<svg width="410" height="389" viewBox="0 0 410 389" fill="none" xmlns="http://www.w3.org/2000/svg">
<path d="M388.178 281.78C418.049 211.071 421.829 111.14 370.351 49.0734C341.954 14.8327 297.273 3.45095 254.621 0.911072C216.392 -1.40342 175.483 -0.458553 140.748 17.6673C81.8906 48.2759 80.4339 121.161 36.3429 164.165C0.792628 198.839 -13.9477 248.25 16.4001 313.264C46.7478 378.278 103.108 393.014 158.601 372.21C214.094 351.406 239.24 347.071 306.005 357.474C336.691 362.259 358.957 339.27 372.423 314.434C378.189 303.798 383.487 292.893 388.178 281.78Z" fill="url(#paint0_linear_254_32015)"/>
<path opacity="0.9" d="M388.178 281.78C418.049 211.071 421.829 111.14 370.351 49.0734C341.954 14.8327 297.273 3.45095 254.621 0.911072C216.392 -1.40342 175.483 -0.458553 140.748 17.6673C81.8906 48.2759 80.4339 121.161 36.3429 164.165C0.792628 198.839 -13.9477 248.25 16.4001 313.264C46.7478 378.278 103.108 393.014 158.601 372.21C214.094 351.406 239.24 347.071 306.005 357.474C336.691 362.259 358.957 339.27 372.423 314.434C378.189 303.798 383.487 292.893 388.178 281.78Z" fill="white"/>
<g opacity="0.2">
<path d="M86.7296 2.22803H125.306V53.2423H77.001" stroke="black" stroke-width="0.520701" stroke-linecap="round" stroke-linejoin="round"/>
<path d="M71.9545 53.2423H60.2056V2.22803H81.6831" stroke="black" stroke-width="0.520701" stroke-linecap="round" stroke-linejoin="round"/>
<path d="M72.2668 17.0342H65.1221V24.177H72.2668V17.0342Z" stroke="black" stroke-width="0.520701" stroke-linecap="round" stroke-linejoin="round"/>
<path d="M81.8913 17.0342H74.7466V24.177H81.8913V17.0342Z" stroke="black" stroke-width="0.520701" stroke-linecap="round" stroke-linejoin="round"/>
<path d="M91.5163 17.0342H84.3716V24.177H91.5163V17.0342Z" stroke="black" stroke-width="0.520701" stroke-linecap="round" stroke-linejoin="round"/>
<path d="M101.141 17.0342H93.9961V24.177H101.141V17.0342Z" stroke="black" stroke-width="0.520701" stroke-linecap="round" stroke-linejoin="round"/>
<path d="M110.773 17.0342H103.628V24.177H110.773V17.0342Z" stroke="black" stroke-width="0.520701" stroke-linecap="round" stroke-linejoin="round"/>
<path d="M120.398 17.0342H113.253V24.177H120.398V17.0342Z" stroke="black" stroke-width="0.520701" stroke-linecap="round" stroke-linejoin="round"/>
<path d="M72.2668 26.9683H65.1221V34.1111H72.2668V26.9683Z" stroke="black" stroke-width="0.520701" stroke-linecap="round" stroke-linejoin="round"/>
<path d="M81.8913 26.9683H74.7466V34.1111H81.8913V26.9683Z" stroke="black" stroke-width="0.520701" stroke-linecap="round" stroke-linejoin="round"/>
<path d="M91.5158 26.9683H84.3711V34.1111H91.5158V26.9683Z" stroke="black" stroke-width="0.520701" stroke-linecap="round" stroke-linejoin="round"/>
<path d="M101.141 26.9683H93.9961V34.1111H101.141V26.9683Z" stroke="black" stroke-width="0.520701" stroke-linecap="round" stroke-linejoin="round"/>
<path d="M110.774 26.9683H103.629V34.1111H110.774V26.9683Z" stroke="black" stroke-width="0.520701" stroke-linecap="round" stroke-linejoin="round"/>
<path d="M120.398 26.9683H113.253V34.1111H120.398V26.9683Z" stroke="black" stroke-width="0.520701" stroke-linecap="round" stroke-linejoin="round"/>
<path d="M72.2668 36.9019H65.1221V44.0447H72.2668V36.9019Z" stroke="black" stroke-width="0.520701" stroke-linecap="round" stroke-linejoin="round"/>
<path d="M81.8913 36.9019H74.7466V44.0447H81.8913V36.9019Z" stroke="black" stroke-width="0.520701" stroke-linecap="round" stroke-linejoin="round"/>
<path d="M91.5158 36.9019H84.3711V44.0447H91.5158V36.9019Z" stroke="black" stroke-width="0.520701" stroke-linecap="round" stroke-linejoin="round"/>
<path d="M101.141 36.9019H93.9961V44.0447H101.141V36.9019Z" stroke="black" stroke-width="0.520701" stroke-linecap="round" stroke-linejoin="round"/>
<path d="M110.774 36.9019H103.629V44.0447H110.774V36.9019Z" stroke="black" stroke-width="0.520701" stroke-linecap="round" stroke-linejoin="round"/>
<path d="M120.398 36.9019H113.253V44.0447H120.398V36.9019Z" stroke="black" stroke-width="0.520701" stroke-linecap="round" stroke-linejoin="round"/>
<path d="M120.667 9.2666H65.3906V11.7464H120.667V9.2666Z" stroke="black" stroke-width="0.520701" stroke-linecap="round" stroke-linejoin="round"/>
</g>
<g opacity="0.2">
<path d="M370.352 60.5327H394.69V111.556H388.369" stroke="black" stroke-width="0.520701" stroke-linecap="round" stroke-linejoin="round"/>
<path d="M384.043 111.556H329.582V60.5327H364.586" stroke="black" stroke-width="0.520701" stroke-linecap="round" stroke-linejoin="round"/>
<path d="M341.643 75.3389H334.498V82.4817H341.643V75.3389Z" stroke="black" stroke-width="0.520701" stroke-linecap="round" stroke-linejoin="round"/>
<path d="M351.276 75.3389H344.131V82.4817H351.276V75.3389Z" stroke="black" stroke-width="0.520701" stroke-linecap="round" stroke-linejoin="round"/>
<path d="M360.901 75.3389H353.756V82.4817H360.901V75.3389Z" stroke="black" stroke-width="0.520701" stroke-linecap="round" stroke-linejoin="round"/>
<path d="M370.525 75.3389H363.38V82.4817H370.525V75.3389Z" stroke="black" stroke-width="0.520701" stroke-linecap="round" stroke-linejoin="round"/>
<path d="M380.149 75.3389H373.004V82.4817H380.149V75.3389Z" stroke="black" stroke-width="0.520701" stroke-linecap="round" stroke-linejoin="round"/>
<path d="M389.774 75.3389H382.629V82.4817H389.774V75.3389Z" stroke="black" stroke-width="0.520701" stroke-linecap="round" stroke-linejoin="round"/>
<path d="M341.643 85.2729H334.498V92.4158H341.643V85.2729Z" stroke="black" stroke-width="0.520701" stroke-linecap="round" stroke-linejoin="round"/>
<path d="M351.276 85.2725H344.131V92.4153H351.276V85.2725Z" stroke="black" stroke-width="0.520701" stroke-linecap="round" stroke-linejoin="round"/>
<path d="M360.901 85.2725H353.756V92.4153H360.901V85.2725Z" stroke="black" stroke-width="0.520701" stroke-linecap="round" stroke-linejoin="round"/>
<path d="M370.525 85.2725H363.38V92.4153H370.525V85.2725Z" stroke="black" stroke-width="0.520701" stroke-linecap="round" stroke-linejoin="round"/>
<path d="M380.149 85.2725H373.004V92.4153H380.149V85.2725Z" stroke="black" stroke-width="0.520701" stroke-linecap="round" stroke-linejoin="round"/>
<path d="M389.774 85.2729H382.629V92.4158H389.774V85.2729Z" stroke="black" stroke-width="0.520701" stroke-linecap="round" stroke-linejoin="round"/>
<path d="M341.643 95.2065H334.498V102.349H341.643V95.2065Z" stroke="black" stroke-width="0.520701" stroke-linecap="round" stroke-linejoin="round"/>
<path d="M351.276 95.2065H344.131V102.349H351.276V95.2065Z" stroke="black" stroke-width="0.520701" stroke-linecap="round" stroke-linejoin="round"/>
<path d="M360.901 95.2065H353.756V102.349H360.901V95.2065Z" stroke="black" stroke-width="0.520701" stroke-linecap="round" stroke-linejoin="round"/>
<path d="M370.525 95.2065H363.38V102.349H370.525V95.2065Z" stroke="black" stroke-width="0.520701" stroke-linecap="round" stroke-linejoin="round"/>
<path d="M380.149 95.2065H373.004V102.349H380.149V95.2065Z" stroke="black" stroke-width="0.520701" stroke-linecap="round" stroke-linejoin="round"/>
<path d="M389.774 95.2065H382.629V102.349H389.774V95.2065Z" stroke="black" stroke-width="0.520701" stroke-linecap="round" stroke-linejoin="round"/>
<path d="M390.052 67.5801H334.775V70.0686H390.052V67.5801Z" stroke="black" stroke-width="0.520701" stroke-linecap="round" stroke-linejoin="round"/>
</g>
<g opacity="0.2">
<path d="M28.0192 142.12V115.499C28.0146 115.062 28.0969 114.627 28.2613 114.222C28.4257 113.816 28.669 113.447 28.977 113.135C29.285 112.824 29.6517 112.577 30.0559 112.409C30.46 112.24 30.8936 112.153 31.3315 112.153H72.9513C73.8321 112.153 74.6767 112.503 75.2995 113.126C75.9223 113.748 76.2722 114.593 76.2722 115.473V153.762H28.0192V147.885" stroke="black" stroke-width="0.520701" stroke-linecap="round" stroke-linejoin="round"/>
<path d="M28.6182 121.221H75.6399" stroke="black" stroke-width="0.520701" stroke-linecap="round" stroke-linejoin="round"/>
<path d="M39.8805 129.056H32.8398V134.474H71.4162V129.056H47.086" stroke="black" stroke-width="0.520701" stroke-linecap="round" stroke-linejoin="round"/>
<path d="M71.4162 140.509H32.8398V145.935H71.4162V140.509Z" stroke="black" stroke-width="0.520701" stroke-linecap="round" stroke-linejoin="round"/>
</g>
<g opacity="0.2">
<path d="M227.292 335.802H268.912C269.79 335.802 270.633 336.151 271.254 336.772C271.875 337.393 272.224 338.235 272.224 339.113V377.411H223.98V339.148C223.975 338.71 224.057 338.276 224.222 337.87C224.386 337.464 224.629 337.095 224.937 336.784C225.245 336.473 225.612 336.226 226.016 336.057C226.42 335.889 226.854 335.802 227.292 335.802V335.802Z" stroke="black" stroke-width="0.520701" stroke-linecap="round" stroke-linejoin="round"/>
<path d="M224.578 344.869H271.599" stroke="black" stroke-width="0.520701" stroke-linecap="round" stroke-linejoin="round"/>
<path d="M267.378 352.705H228.801V358.131H267.378V352.705Z" stroke="black" stroke-width="0.520701" stroke-linecap="round" stroke-linejoin="round"/>
<path d="M267.378 364.156H228.801V369.583H267.378V364.156Z" stroke="black" stroke-width="0.520701" stroke-linecap="round" stroke-linejoin="round"/>
</g>
<g opacity="0.2">
<path d="M236.639 11.3474C231.464 6.42288 224.545 3.75494 217.404 3.93051C210.262 4.10608 203.482 7.11079 198.556 12.2836C193.631 17.4564 190.962 24.3737 191.138 31.5136C191.313 38.6535 194.319 45.4312 199.493 50.3558" stroke="black" stroke-width="0.520701" stroke-linecap="round" stroke-linejoin="round"/>
<path d="M202.527 52.9736C207.872 56.9282 214.492 58.7659 221.111 58.1331C227.731 57.5003 233.882 54.4416 238.381 49.5459C242.879 44.6503 245.407 38.2639 245.478 31.6165C245.548 24.969 243.156 18.5304 238.763 13.5405" stroke="black" stroke-width="0.520701" stroke-linecap="round" stroke-linejoin="round"/>
<path d="M230.881 31.3369H218.56V52.2541" stroke="black" stroke-width="0.520701" stroke-linecap="round" stroke-linejoin="round"/>
</g>
<g opacity="0.2">
<path d="M27.9412 49.9663C26.0723 50.2616 24.286 50.9451 22.6975 51.9728C21.109 53.0004 19.7534 54.3495 18.7183 55.9329C17.6832 57.5163 16.9914 59.299 16.6875 61.1661C16.3836 63.0331 16.4745 64.9431 16.9541 66.7729C17.4337 68.6027 18.2916 70.3118 19.4723 71.7899C20.653 73.268 22.1304 74.4824 23.8093 75.3548C25.4881 76.2272 27.3312 76.7382 29.2197 76.855C31.1082 76.9717 33.0002 76.6915 34.7738 76.0326" stroke="black" stroke-width="0.520701" stroke-linecap="round" stroke-linejoin="round"/>
<path d="M39.1785 73.3274C41.0778 71.5767 42.4371 69.3199 43.0962 66.8226C43.7552 64.3254 43.6866 61.6919 42.8985 59.2323C42.1103 56.7727 40.6354 54.5896 38.6475 52.9402C36.6596 51.2907 34.2415 50.2437 31.6782 49.9224" stroke="black" stroke-width="0.520701" stroke-linecap="round" stroke-linejoin="round"/>
<path d="M30.0225 56.4497V70.2413" stroke="black" stroke-width="0.520701" stroke-miterlimit="10"/>
<path d="M36.924 63.3506H23.1201" stroke="black" stroke-width="0.520701" stroke-miterlimit="10"/>
</g>
<g opacity="0.2">
<path d="M394.473 182.394C401.953 182.394 408.017 176.332 408.017 168.854C408.017 161.376 401.953 155.314 394.473 155.314C386.993 155.314 380.93 161.376 380.93 168.854C380.93 176.332 386.993 182.394 394.473 182.394Z" stroke="black" stroke-width="0.520701" stroke-linecap="round" stroke-linejoin="round"/>
<path d="M394.474 161.954V175.754" stroke="black" stroke-width="0.520701" stroke-miterlimit="10"/>
<path d="M401.367 168.854H387.571" stroke="black" stroke-width="0.520701" stroke-miterlimit="10"/>
</g>
<path d="M369.301 349.672H58.0195L58.3837 93.4908C58.3837 91.0239 59.3639 88.6581 61.1087 86.9138C62.8535 85.1694 65.22 84.1895 67.6875 84.1895H360.362C361.584 84.1883 362.794 84.4281 363.923 84.8952C365.053 85.3622 366.079 86.0473 366.943 86.9112C367.807 87.7751 368.492 88.801 368.959 89.93C369.427 91.059 369.666 92.269 369.665 93.4908L369.301 349.672Z" fill="white" stroke="#263238" stroke-width="0.520701" stroke-linecap="round" stroke-linejoin="round"/>
<path d="M134.323 106.953H99.6396V115.622H134.323V106.953Z" fill="#EAECF7" stroke="#232323" stroke-width="0.520701" stroke-linecap="round" stroke-linejoin="round"/>
<path d="M174.209 106.953H139.525V115.622H174.209V106.953Z" fill="#EAECF7" stroke="#232323" stroke-width="0.520701" stroke-linecap="round" stroke-linejoin="round"/>
<path d="M214.094 106.953H179.411V115.622H214.094V106.953Z" fill="#EAECF7" stroke="#232323" stroke-width="0.520701" stroke-linecap="round" stroke-linejoin="round"/>
<path d="M253.98 106.953H219.297V115.622H253.98V106.953Z" fill="#0EABEB" stroke="#232323" stroke-width="0.520701" stroke-linecap="round" stroke-linejoin="round"/>
<path d="M277.599 119.34H358.194" stroke="#263238" stroke-width="0.520701" stroke-linecap="round" stroke-linejoin="round"/>
<path d="M75.6655 119.34H272.9" stroke="#263238" stroke-width="0.520701" stroke-linecap="round" stroke-linejoin="round"/>
<path d="M360.362 84.1899H67.688C65.2205 84.1899 62.8541 85.1699 61.1093 86.9142C59.3645 88.6586 58.3843 91.0244 58.3843 93.4913V100.573H369.666V93.4913C369.667 92.2695 369.427 91.0595 368.96 89.9304C368.493 88.8014 367.808 87.7756 366.943 86.9117C366.079 86.0478 365.053 85.3627 363.924 84.8956C362.795 84.4286 361.584 84.1888 360.362 84.1899Z" fill="#263238" stroke="#263238" stroke-width="0.520701" stroke-linecap="round" stroke-linejoin="round"/>
<path d="M75.3618 93.2827C75.3618 92.7272 75.1971 92.1842 74.8884 91.7223C74.5797 91.2605 74.1409 90.9005 73.6276 90.6879C73.1143 90.4753 72.5494 90.4197 72.0044 90.5281C71.4595 90.6365 70.9589 90.904 70.566 91.2967C70.1731 91.6895 69.9055 92.19 69.7971 92.7348C69.6887 93.2796 69.7444 93.8443 69.957 94.3575C70.1696 94.8707 70.5297 95.3094 70.9917 95.618C71.4537 95.9266 71.9969 96.0913 72.5525 96.0913C73.2976 96.0913 74.0122 95.7954 74.539 95.2687C75.0659 94.742 75.3618 94.0276 75.3618 93.2827Z" fill="white" stroke="#263238" stroke-width="0.520701" stroke-linecap="round" stroke-linejoin="round"/>
<path d="M86.5728 93.2827C86.5728 92.7272 86.408 92.1842 86.0993 91.7223C85.7906 91.2605 85.3519 90.9005 84.8385 90.6879C84.3252 90.4753 83.7603 90.4197 83.2154 90.5281C82.6704 90.6365 82.1698 90.904 81.7769 91.2967C81.384 91.6895 81.1165 92.19 81.0081 92.7348C80.8997 93.2796 80.9553 93.8443 81.168 94.3575C81.3806 94.8707 81.7407 95.3094 82.2027 95.618C82.6647 95.9266 83.2078 96.0913 83.7634 96.0913C84.5085 96.0913 85.2231 95.7954 85.7499 95.2687C86.2768 94.742 86.5728 94.0276 86.5728 93.2827Z" fill="white" stroke="#263238" stroke-width="0.520701" stroke-linecap="round" stroke-linejoin="round"/>
<path d="M94.992 96.0913C96.5435 96.0913 97.8013 94.8339 97.8013 93.2827C97.8013 91.7316 96.5435 90.4741 94.992 90.4741C93.4404 90.4741 92.1826 91.7316 92.1826 93.2827C92.1826 94.8339 93.4404 96.0913 94.992 96.0913Z" fill="white" stroke="#263238" stroke-width="0.520701" stroke-linecap="round" stroke-linejoin="round"/>
<path d="M76.3496 107.49H89.668" stroke="#263238" stroke-width="0.520701" stroke-linecap="round" stroke-linejoin="round"/>
<path d="M76.3496 111.071H89.668" stroke="#263238" stroke-width="0.520701" stroke-linecap="round" stroke-linejoin="round"/>
<path d="M76.3496 114.642H89.668" stroke="#263238" stroke-width="0.520701" stroke-linecap="round" stroke-linejoin="round"/>
<path d="M356.946 144.228H288.42C286.16 144.228 284.328 146.06 284.328 148.32V167.685C284.328 169.945 286.16 171.777 288.42 171.777H356.946C359.206 171.777 361.038 169.945 361.038 167.685V148.32C361.038 146.06 359.206 144.228 356.946 144.228Z" fill="#0EABEB" stroke="#263238" stroke-width="0.520701" stroke-linecap="round" stroke-linejoin="round"/>
<path d="M295.002 34.2419C295.002 34.2419 284.926 38.6801 279.68 40.0844C274.435 41.4887 268.799 43.7166 267.385 48.1462C265.972 52.5758 259.677 69.6181 259.269 73.2849C258.862 76.9517 265.339 83.4531 265.339 83.4531H349.203C349.203 83.4531 350.764 62.2412 347.33 54.9856C343.896 47.7301 333.457 41.5321 330.457 40.3272C327.457 39.1222 319.601 35.2474 316.41 34.6493C313.219 34.0512 298.635 32.8289 295.002 34.2419Z" fill="white" stroke="#263238" stroke-width="0.520701" stroke-linecap="round" stroke-linejoin="round"/>
<path d="M267.203 63.6103C268.818 63.1392 270.521 63.0506 272.177 63.3516C273.832 63.6526 275.395 64.3349 276.741 65.3445" fill="white"/>
<path d="M267.203 63.6103C268.818 63.1392 270.521 63.0506 272.177 63.3516C273.832 63.6526 275.395 64.3349 276.741 65.3445" stroke="#263238" stroke-width="0.520701" stroke-linecap="round" stroke-linejoin="round"/>
<path d="M273.923 65.3442C275.854 65.4505 277.69 66.2156 279.125 67.5119L273.923 65.3442Z" fill="white"/>
<path d="M273.923 65.3442C275.854 65.4505 277.69 66.2156 279.125 67.5119" stroke="#263238" stroke-width="0.520701" stroke-linecap="round" stroke-linejoin="round"/>
<path d="M282.49 55.6704C283.279 57.021 283.62 58.5872 283.461 60.1434C283.208 63.1256 282.491 66.0501 281.337 68.8119" stroke="#263238" stroke-width="0.520701" stroke-linecap="round" stroke-linejoin="round"/>
<path d="M279.559 52.731C280.354 53.2099 281.066 53.8161 281.665 54.5253" stroke="#263238" stroke-width="0.520701" stroke-linecap="round" stroke-linejoin="round"/>
<path d="M284.701 55.4189C284.701 55.4189 286.323 60.2993 285.412 64.2435" stroke="#263238" stroke-width="0.520701" stroke-linecap="round" stroke-linejoin="round"/>
<path d="M328.263 58.4092C328.263 58.4092 326.251 65.4654 326.451 67.6845" stroke="#263238" stroke-width="0.520701" stroke-linecap="round" stroke-linejoin="round"/>
<path d="M296.197 51.5354L299.9 58.1928L303.047 68.3696L307.487 59.1203L311.744 51.7261L303.411 50.4258L296.197 51.5354Z" fill="#0EABEB" stroke="#263238" stroke-width="0.520701" stroke-linecap="round" stroke-linejoin="round"/>
<path d="M299.9 58.2012L307.487 59.1203" stroke="#263238" stroke-width="0.520701" stroke-linecap="round" stroke-linejoin="round"/>
<path d="M295.808 39.6847C294.857 40.974 294.109 42.4004 293.588 43.9149C292.782 46.3335 291.377 54.5946 291.377 54.5946C291.377 54.5946 299.233 54.1958 301.253 54.1958C303.273 54.1958 306.455 54.3952 307.097 54.3952C307.739 54.3952 316.774 59.839 316.774 59.839C316.774 59.839 318.387 50.5637 316.574 45.3279C314.762 40.0921 302.458 33.8421 295.808 39.6847Z" fill="white" stroke="#263238" stroke-width="0.520701" stroke-linecap="round" stroke-linejoin="round"/>
<path d="M300.04 51.1185L303.23 57.828L309.716 50.5117C309.716 50.5117 303.673 52.3408 300.04 51.1185Z" fill="white" stroke="#263238" stroke-width="0.520701" stroke-linecap="round" stroke-linejoin="round"/>
<path d="M327.075 126.778L323.962 132.525C323.962 132.525 320.112 133.331 319.713 134.137C318.726 135.978 317.564 137.719 316.245 139.339C315.239 140.344 313.228 141.757 315.04 142.563C316.852 143.369 320.077 139.746 320.077 139.746L321.89 138.732C322.019 140.341 321.821 141.96 321.309 143.491C320.121 146.897 318.751 151.041 318.924 151.474C319.791 153.642 321.222 152.116 321.222 152.116L323.927 145.797L324.404 145.493C324.404 145.493 323.858 152.714 323.858 152.74C323.754 154.066 324.924 155.618 325.948 154.257L328.367 146.603V153.486C328.36 153.736 328.41 153.985 328.513 154.214C328.617 154.442 328.771 154.644 328.964 154.804C329.157 154.965 329.383 155.079 329.627 155.139C329.87 155.199 330.124 155.203 330.37 155.15L330.586 155.063C331.393 154.664 331.67 146.256 331.67 146.256L333.352 152.324C333.392 152.483 333.463 152.631 333.563 152.76C333.663 152.889 333.789 152.996 333.933 153.074C334.077 153.151 334.235 153.198 334.398 153.211C334.561 153.223 334.724 153.202 334.878 153.147C334.956 153.124 335.027 153.083 335.086 153.027C335.144 152.971 335.189 152.903 335.217 152.827C335.425 152.229 334.818 142.555 334.818 142.555L334.41 132.473L335.017 129.049L327.075 126.778Z" fill="white" stroke="#263238" stroke-width="0.520701" stroke-linecap="round" stroke-linejoin="round"/>
<path d="M330.89 59.2762C330.89 59.2762 327.664 66.133 328.063 68.5516C328.462 70.9701 337.861 94.089 337.861 94.089L326.182 127.732L335.459 129.951C335.459 129.951 351.301 106.407 352.983 101.345C353.906 98.483 354.314 95.4806 354.188 92.4767C354.188 91.2631 350.443 63.7145 348.223 58.8775C346.932 56.0274 345.235 53.3791 343.185 51.0151" fill="white"/>
<path d="M330.89 59.2762C330.89 59.2762 327.664 66.133 328.063 68.5516C328.462 70.9701 337.861 94.089 337.861 94.089L326.182 127.732L335.459 129.951C335.459 129.951 351.301 106.407 352.983 101.345C353.906 98.483 354.314 95.4806 354.188 92.4767C354.188 91.2631 350.443 63.7145 348.223 58.8775C346.932 56.0274 345.235 53.3791 343.185 51.0151" stroke="#263238" stroke-width="0.520701" stroke-linecap="round" stroke-linejoin="round"/>
<path d="M339.274 93.2395C339.274 93.2395 342.899 88.1944 345.119 84.9697" stroke="#263238" stroke-width="0.520701" stroke-linecap="round" stroke-linejoin="round"/>
<path d="M344.512 83.1577L340.081 88.8009" stroke="#263238" stroke-width="0.520701" stroke-linecap="round" stroke-linejoin="round"/>
<path d="M326.988 124.464L336.864 126.883" stroke="#263238" stroke-width="0.520701" stroke-linecap="round" stroke-linejoin="round"/>
<path d="M262.416 67.5201C261.47 68.3429 260.634 69.2839 259.928 70.3201C258.107 72.9206 259.121 78.5812 260.327 80.3929C261.532 82.2046 266.396 83.4182 266.396 83.4182H305.536L306.325 76.8041H304.894C304.894 76.8041 297.845 74.585 292.799 73.172C287.752 71.759 277.842 67.5721 274.859 66.9307C272.579 66.4422 270.233 66.3513 267.922 66.6619" fill="white"/>
<path d="M262.416 67.5201C261.47 68.3429 260.634 69.2839 259.928 70.3201C258.107 72.9206 259.121 78.5812 260.327 80.3929C261.532 82.2046 266.396 83.4182 266.396 83.4182H305.536L306.325 76.8041H304.894C304.894 76.8041 297.845 74.585 292.799 73.172C287.752 71.759 277.842 67.5721 274.859 66.9307C272.579 66.4422 270.233 66.3513 267.922 66.6619" stroke="#263238" stroke-width="0.520701" stroke-linecap="round" stroke-linejoin="round"/>
<path d="M312.126 83.4178L311.927 83.1664C311.927 83.1664 315.993 82.7937 316.548 82.6116C317.28 82.4426 318.021 82.3182 318.768 82.2389L324.647 83.4178H330.482L329.875 82.4123L324.673 79.1876L320.173 76.9424C315.499 74.6019 309.889 77.4885 304.912 76.769L305.857 76.8904L305.068 83.4178H312.126Z" fill="white" stroke="#263238" stroke-width="0.520701" stroke-linecap="round" stroke-linejoin="round"/>
<path d="M320.251 78.9102L329.503 82.9844" stroke="#263238" stroke-width="0.520701" stroke-linecap="round" stroke-linejoin="round"/>
<path d="M302.302 76.5093L302.059 83.2187" stroke="#263238" stroke-width="0.520701" stroke-linecap="round" stroke-linejoin="round"/>
<path d="M294.602 28.1999C292.984 25.948 292.008 23.2998 291.776 20.5369C291.576 16.3067 293.588 15.5005 293.588 15.5005C293.588 15.5005 290.57 10.6635 297.221 7.83755C303.871 5.01161 313.956 3.40793 319.6 6.43325C325.245 9.45856 327.257 16.5061 327.057 21.3431C326.858 26.1801 324.031 31.8234 324.031 31.8234L319.6 37.2672C319.6 37.2672 316.774 38.2727 316.132 37.0678C315.49 35.8629 312.135 32.2308 310.34 32.2308C308.545 32.2308 303.889 32.2308 301.47 31.2166C299.05 30.2023 294.602 28.1999 294.602 28.1999Z" fill="#263238" stroke="#263238" stroke-width="0.520701" stroke-linecap="round" stroke-linejoin="round"/>
<path d="M294.195 22.1494C294.195 22.1494 293.995 34.4414 293.995 37.0679C293.995 39.6945 293.995 42.2691 295.2 44.9216C296.406 47.5742 297.42 54.5957 302.865 55.0031C308.311 55.4105 316.166 49.802 317.606 46.742C319.045 43.682 319.799 38.4722 319.799 38.4722C319.799 38.4722 324.638 35.2476 325.444 31.4247C326.25 27.6019 324.638 25.7815 323.632 27.5932C322.626 29.405 321.213 34.0426 320.606 34.4414C319.999 34.8401 319.192 32.0229 319.192 32.0229C319.192 32.0229 316.166 33.2365 315.768 32.0229C315.369 30.8093 317.38 24.9754 317.38 24.9754C317.38 24.9754 310.73 26.7871 309.316 26.7871C307.805 26.6134 306.316 26.2762 304.877 25.7815L310.73 29.405C308.176 30.4641 305.35 30.6768 302.666 30.0118C298.634 28.7982 295.608 22.1494 295.608 22.1494H294.195Z" fill="white" stroke="#263238" stroke-width="0.520701" stroke-linecap="round" stroke-linejoin="round"/>
<path d="M300.247 35.0479V37.4664C300.247 37.4664 297.646 44.3232 298.027 45.5281C298.409 46.733 302.059 46.1349 302.866 45.7275" fill="white"/>
<path d="M300.247 35.0479V37.4664C300.247 37.4664 297.646 44.3232 298.027 45.5281C298.409 46.733 302.059 46.1349 302.866 45.7275" stroke="#263238" stroke-width="0.520701" stroke-linecap="round" stroke-linejoin="round"/>
<path d="M299.839 47.5479C301.028 48.2389 302.372 48.6195 303.746 48.6543C305.121 48.6892 306.482 48.3772 307.704 47.7473" fill="white"/>
<path d="M299.839 47.5479C301.028 48.2389 302.372 48.6195 303.746 48.6543C305.121 48.6892 306.482 48.3772 307.704 47.7473" stroke="#263238" stroke-width="0.520701" stroke-linecap="round" stroke-linejoin="round"/>
<path d="M305.685 38.4722C306.696 39.1899 307.864 39.6563 309.091 39.8327C310.318 40.0091 311.57 39.8905 312.743 39.4866" fill="white"/>
<path d="M305.685 38.4722C306.696 39.1899 307.864 39.6563 309.091 39.8327C310.318 40.0091 311.57 39.8905 312.743 39.4866" stroke="#263238" stroke-width="0.520701" stroke-linecap="round" stroke-linejoin="round"/>
<path d="M305.893 34.8486C305.893 34.8486 310.341 33.2705 313.15 36.2619L305.893 34.8486Z" fill="white"/>
<path d="M305.893 34.8486C305.893 34.8486 310.341 33.2705 313.15 36.2619" stroke="#263238" stroke-width="0.520701" stroke-linecap="round" stroke-linejoin="round"/>
<path d="M295.599 35.2476C295.599 35.2476 296.406 37.0684 300.238 37.4673L295.599 35.2476Z" fill="white"/>
<path d="M295.599 35.2476C295.599 35.2476 296.406 37.0684 300.238 37.4673" stroke="#263238" stroke-width="0.520701" stroke-linecap="round" stroke-linejoin="round"/>
<path d="M299.44 33.271C299.44 33.271 298.027 30.8525 295.973 31.6587L299.44 33.271Z" fill="white"/>
<path d="M299.44 33.271C299.44 33.271 298.027 30.8525 295.973 31.6587" stroke="#263238" stroke-width="0.520701" stroke-linecap="round" stroke-linejoin="round"/>
<path d="M303.048 68.3691L297.308 119.609L304.713 129.968L311.554 119.609L303.048 68.3691Z" fill="#0EABEB" stroke="#263238" stroke-width="0.520701" stroke-linecap="round" stroke-linejoin="round"/>
<path d="M80.6426 193.188V201.622C80.6426 201.622 166.986 198.094 271.764 196.343L80.6426 193.188Z" fill="#263238" stroke="#263238" stroke-width="0.520701" stroke-linecap="round" stroke-linejoin="round"/>
<path d="M271.763 144.02H75.8813V196.343H271.763V144.02Z" fill="white" stroke="#263238" stroke-width="0.520701" stroke-linecap="round" stroke-linejoin="round"/>
<path d="M93.1533 204.907C93.1533 204.907 96.0494 197.374 96.6216 196.603C97.1939 195.831 98.165 193.898 99.9079 193.898C101.651 193.898 104.738 194.089 106.09 193.508C107.443 192.927 109.177 192.927 108.795 194.089C108.414 195.25 106.09 195.632 106.09 195.632L116.131 196.412C116.131 196.412 113.235 199.108 111.882 199.689C110.497 200.18 109.076 200.568 107.634 200.85C106.433 201.658 105.133 202.308 103.766 202.783C102.494 203.057 101.205 203.251 99.9079 203.364L97.7835 207.222L93.1533 204.907Z" fill="white" stroke="#263238" stroke-width="0.520701" stroke-linecap="round" stroke-linejoin="round"/>
<path d="M106.099 195.623L101.651 196.785" stroke="#263238" stroke-width="0.520701" stroke-linecap="round" stroke-linejoin="round"/>
<path d="M69.1969 171.481L65.9106 177.09L67.8442 181.528L73.2548 177.471L75.9601 175.538V163.948L69.1969 171.481Z" fill="white" stroke="#263238" stroke-width="0.520701" stroke-linecap="round" stroke-linejoin="round"/>
<path d="M68.4253 174.568C68.4253 174.568 69.9687 166.645 70.7404 165.683C71.5121 164.72 74.6076 162.397 75.57 162.215C76.5325 162.033 77.8938 162.597 77.1221 163.758C76.1575 164.862 75.0528 165.836 73.8359 166.654C73.8359 166.654 75.1885 170.52 74.2174 172.643C73.549 173.981 72.4663 175.066 71.1306 175.738" fill="white"/>
<path d="M68.4253 174.568C68.4253 174.568 69.9687 166.645 70.7404 165.683C71.5121 164.72 74.6076 162.397 75.57 162.215C76.5325 162.033 77.8938 162.597 77.1221 163.758C76.1575 164.862 75.0528 165.836 73.8359 166.654C73.8359 166.654 75.1885 170.52 74.2174 172.643C73.549 173.981 72.4663 175.066 71.1306 175.738" stroke="#263238" stroke-width="0.520701" stroke-linecap="round" stroke-linejoin="round"/>
<path d="M66.1102 175.539L69.3878 183.843L52.5838 196.594L48.916 183.462L66.1102 175.539Z" fill="#009688" stroke="#263238" stroke-width="0.520701" stroke-linecap="round" stroke-linejoin="round"/>
<path d="M58.4539 314.85L59.1042 323.085C59.1042 323.085 54.7688 332.187 55.2024 340.205C55.6359 348.223 56.503 371.412 56.503 372.712C56.503 374.012 54.3353 375.529 55.8527 380.947C56.2775 382.455 59.9713 381.381 63.6564 383.764C67.3415 386.148 71.8936 387.665 74.7116 387.665C77.5297 387.665 79.047 387.665 79.047 386.365C79.047 385.065 74.9284 383.331 73.1943 381.597C70.4709 378.503 67.9373 375.246 65.6073 371.845C65.1738 370.978 67.1247 358.192 68.4253 353.208C69.7259 348.223 73.411 336.304 74.9284 327.852C76.4458 319.401 77.0961 312.466 77.0961 312.466L58.4539 314.85Z" fill="white" stroke="#263238" stroke-width="0.520701" stroke-linecap="round" stroke-linejoin="round"/>
<path d="M55.8521 380.948L56.2856 386.799H59.3204L60.621 382.032C60.621 382.032 56.9359 380.731 55.8521 380.948Z" fill="#263238" stroke="#263238" stroke-width="0.520701" stroke-linecap="round" stroke-linejoin="round"/>
<path d="M74.7116 387.667C77.5122 387.389 79.047 387.667 79.047 386.366C79.047 385.066 74.9283 383.332 73.1942 381.599C70.8367 378.925 68.617 376.133 66.5437 373.233C65.6495 373.932 64.5705 374.354 63.4395 374.447C60.188 374.664 56.5029 372.713 56.5029 372.713C56.5029 374.014 54.3352 375.531 55.8526 380.948C56.2774 382.457 60.0926 382.188 63.0667 385.76C65.876 389.132 74.2867 387.71 74.7116 387.667Z" fill="#263238" stroke="#263238" stroke-width="0.520701" stroke-linecap="round" stroke-linejoin="round"/>
<path d="M33.0919 308.565L33.5254 320.701C33.5254 320.701 27.8894 328.286 26.8056 335.654C25.7217 343.022 22.0366 371.845 22.0366 374.662C22.0366 377.48 20.3025 386.582 21.1695 387.232C22.0366 387.882 32.008 387.232 32.008 387.232C32.36 386.261 32.5075 385.228 32.4416 384.198C32.4416 382.031 30.7074 374.879 31.141 373.145C31.5745 371.412 33.0919 365.994 33.0919 365.994C33.0919 365.994 39.8118 348.44 42.6298 343.022C45.4478 337.604 47.8322 329.803 49.3496 325.035C50.867 320.267 52.1676 313.549 52.1676 313.549L33.0919 308.565Z" fill="white" stroke="#263238" stroke-width="0.520701" stroke-linecap="round" stroke-linejoin="round"/>
<path d="M31.0884 373.476C28.0797 369.245 23.172 371.829 22.2095 372.392C22.0968 373.51 22.0361 374.308 22.0361 374.663C22.0361 377.48 20.302 386.582 21.1691 387.233C22.0361 387.883 32.0075 387.233 32.0075 387.233C32.3595 386.262 32.5071 385.229 32.4411 384.199C32.4411 382.153 30.889 375.677 31.0884 373.476Z" fill="#263238" stroke="#263238" stroke-width="0.520701" stroke-linecap="round" stroke-linejoin="round"/>
<path d="M358.028 205.775H78.833C77.3951 205.775 76.2295 206.941 76.2295 208.378V220.508C76.2295 221.946 77.3951 223.112 78.833 223.112H358.028C359.466 223.112 360.632 221.946 360.632 220.508V208.378C360.632 206.941 359.466 205.775 358.028 205.775Z" fill="white" stroke="#263238" stroke-width="0.520701" stroke-linecap="round" stroke-linejoin="round"/>
<rect x="80.5645" y="212.71" width="52.0248" height="4.33427" rx="2.16713" fill="#EAECF7"/>
<rect x="137.792" y="212.71" width="32.082" height="4.33427" rx="2.16713" fill="#EAECF7"/>
<rect x="175.077" y="212.71" width="32.082" height="4.33427" rx="2.16713" fill="#EAECF7"/>
<rect x="265.252" y="212.71" width="32.0819" height="4.33427" rx="2.16713" fill="#EAECF7"/>
<rect x="302.536" y="212.71" width="32.0819" height="4.33427" rx="2.16713" fill="#EAECF7"/>
<rect x="339.821" y="212.71" width="15.6075" height="4.33427" rx="2.16713" fill="#EAECF7"/>
<rect x="212.36" y="212.71" width="47.6894" height="4.33427" rx="2.16713" fill="#EAECF7"/>
<path d="M358.028 229.179H78.833C77.3951 229.179 76.2295 230.345 76.2295 231.783V243.913C76.2295 245.351 77.3951 246.516 78.833 246.516H358.028C359.466 246.516 360.632 245.351 360.632 243.913V231.783C360.632 230.345 359.466 229.179 358.028 229.179Z" fill="white" stroke="#263238" stroke-width="0.520701" stroke-linecap="round" stroke-linejoin="round"/>
<rect x="80.5654" y="236.114" width="52.0248" height="4.33427" rx="2.16713" fill="#EAECF7"/>
<rect x="137.792" y="236.114" width="32.082" height="4.33427" rx="2.16713" fill="#EAECF7"/>
<rect x="175.078" y="236.114" width="32.082" height="4.33427" rx="2.16713" fill="#EAECF7"/>
<rect x="265.253" y="236.114" width="32.0819" height="4.33427" rx="2.16713" fill="#EAECF7"/>
<rect x="302.537" y="236.114" width="32.0819" height="4.33427" rx="2.16713" fill="#EAECF7"/>
<rect x="339.822" y="236.114" width="15.6075" height="4.33427" rx="2.16713" fill="#EAECF7"/>
<rect x="212.361" y="236.114" width="47.6894" height="4.33427" rx="2.16713" fill="#EAECF7"/>
<path d="M358.028 252.585H78.833C77.3951 252.585 76.2295 253.751 76.2295 255.188V267.319C76.2295 268.756 77.3951 269.922 78.833 269.922H358.028C359.466 269.922 360.632 268.756 360.632 267.319V255.188C360.632 253.751 359.466 252.585 358.028 252.585Z" fill="white" stroke="#263238" stroke-width="0.520701" stroke-linecap="round" stroke-linejoin="round"/>
<rect x="80.5645" y="259.52" width="52.0248" height="4.33425" rx="2.16713" fill="#EAECF7"/>
<rect x="137.792" y="259.52" width="32.082" height="4.33425" rx="2.16713" fill="#EAECF7"/>
<rect x="175.077" y="259.52" width="32.082" height="4.33425" rx="2.16713" fill="#EAECF7"/>
<rect x="265.252" y="259.52" width="32.0819" height="4.33425" rx="2.16713" fill="#EAECF7"/>
<rect x="302.536" y="259.52" width="32.0819" height="4.33425" rx="2.16713" fill="#EAECF7"/>
<rect x="339.821" y="259.52" width="15.6075" height="4.33425" rx="2.16713" fill="#EAECF7"/>
<rect x="212.36" y="259.52" width="47.6894" height="4.33425" rx="2.16713" fill="#EAECF7"/>
<path d="M358.028 275.989H78.833C77.3951 275.989 76.2295 277.155 76.2295 278.593V290.723C76.2295 292.161 77.3951 293.326 78.833 293.326H358.028C359.466 293.326 360.632 292.161 360.632 290.723V278.593C360.632 277.155 359.466 275.989 358.028 275.989Z" fill="white" stroke="#263238" stroke-width="0.520701" stroke-linecap="round" stroke-linejoin="round"/>
<rect x="80.5654" y="282.924" width="52.0248" height="4.33428" rx="2.16714" fill="#EAECF7"/>
<rect x="137.792" y="282.924" width="32.082" height="4.33428" rx="2.16714" fill="#EAECF7"/>
<rect x="175.078" y="282.924" width="32.082" height="4.33428" rx="2.16714" fill="#EAECF7"/>
<rect x="265.253" y="282.924" width="32.0819" height="4.33428" rx="2.16714" fill="#EAECF7"/>
<rect x="302.537" y="282.924" width="32.0819" height="4.33428" rx="2.16714" fill="#EAECF7"/>
<rect x="339.822" y="282.924" width="15.6075" height="4.33428" rx="2.16714" fill="#EAECF7"/>
<rect x="212.361" y="282.924" width="47.6894" height="4.33428" rx="2.16714" fill="#EAECF7"/>
<path d="M358.028 299.395H78.833C77.3951 299.395 76.2295 300.56 76.2295 301.998V314.128C76.2295 315.566 77.3951 316.732 78.833 316.732H358.028C359.466 316.732 360.632 315.566 360.632 314.128V301.998C360.632 300.56 359.466 299.395 358.028 299.395Z" fill="white" stroke="#263238" stroke-width="0.520701" stroke-linecap="round" stroke-linejoin="round"/>
<rect x="80.5654" y="306.33" width="52.0248" height="4.33428" rx="2.16714" fill="#EAECF7"/>
<rect x="137.792" y="306.33" width="32.082" height="4.33425" rx="2.16713" fill="#EAECF7"/>
<rect x="175.078" y="306.33" width="32.082" height="4.33425" rx="2.16713" fill="#EAECF7"/>
<rect x="265.253" y="306.33" width="32.0819" height="4.33425" rx="2.16713" fill="#EAECF7"/>
<rect x="302.537" y="306.33" width="32.0819" height="4.33425" rx="2.16713" fill="#EAECF7"/>
<rect x="339.822" y="306.33" width="15.6075" height="4.33425" rx="2.16713" fill="#EAECF7"/>
<rect x="212.361" y="306.33" width="47.6894" height="4.33425" rx="2.16713" fill="#EAECF7"/>
<path d="M358.028 322.799H78.833C77.3951 322.799 76.2295 323.965 76.2295 325.403V337.533C76.2295 338.971 77.3951 340.136 78.833 340.136H358.028C359.466 340.136 360.632 338.971 360.632 337.533V325.403C360.632 323.965 359.466 322.799 358.028 322.799Z" fill="white" stroke="#263238" stroke-width="0.520701" stroke-linecap="round" stroke-linejoin="round"/>
<rect x="80.5654" y="329.734" width="52.0248" height="4.33425" rx="2.16713" fill="#EAECF7"/>
<rect x="137.792" y="329.734" width="32.082" height="4.33425" rx="2.16713" fill="#EAECF7"/>
<rect x="175.078" y="329.734" width="32.082" height="4.33425" rx="2.16713" fill="#EAECF7"/>
<rect x="265.253" y="329.734" width="32.0819" height="4.33425" rx="2.16713" fill="#EAECF7"/>
<rect x="302.537" y="329.734" width="32.0819" height="4.33425" rx="2.16713" fill="#EAECF7"/>
<rect x="339.822" y="329.734" width="15.6075" height="4.33425" rx="2.16713" fill="#EAECF7"/>
<rect x="212.361" y="329.734" width="47.6894" height="4.33425" rx="2.16713" fill="#EAECF7"/>
<path d="M32.0068 387.232C31.5733 385.932 28.5385 380.731 28.5385 380.731L22.9025 380.948C20.9515 383.115 21.1683 387.232 21.1683 387.232C22.0354 387.882 32.0068 387.232 32.0068 387.232Z" fill="white" stroke="#263238" stroke-width="0.520701" stroke-linecap="round" stroke-linejoin="round"/>
<path d="M28.5388 380.731C28.5388 380.731 26.5879 378.998 25.0705 379.648C24.2785 379.953 23.5451 380.393 22.9028 380.948L23.1196 387.449H27.0215L28.5388 380.731Z" fill="#263238" stroke="#263238" stroke-width="0.520701" stroke-linecap="round" stroke-linejoin="round"/>
<path d="M28.3227 265.44C27.1633 268.642 26.5053 272.005 26.3718 275.408C26.155 281.043 27.6724 308.782 27.6724 308.782C27.6724 308.782 38.5109 316.151 56.7196 316.801C74.9282 317.451 83.3823 312.466 83.3823 312.466C83.3823 312.466 82.9487 279.093 80.781 271.074C78.6133 263.056 74.7115 259.805 74.7115 259.805C74.7115 259.805 66.0407 262.406 52.8177 262.189C45.303 262.133 37.8167 261.261 30.4904 259.588L28.3227 265.44Z" fill="#263238" stroke="#263238" stroke-width="0.520701" stroke-linecap="round" stroke-linejoin="round"/>
<path d="M34.0367 198.718C34.0367 198.718 28.6261 208.756 27.8544 216.098C27.0827 223.44 34.2274 245.84 34.2274 246.611C34.2274 247.383 26.7012 266.696 26.7012 266.696C32.6157 269.232 38.7441 271.236 45.0139 272.686C54.6732 274.81 64.5232 273.458 66.4568 272.877L68.9713 265.353L69.9338 271.724C69.9338 271.724 69.9338 271.915 73.0292 271.143C76.1247 270.372 79.9659 267.086 79.9659 267.086C79.9659 267.086 74.9455 255.306 72.431 252.02C69.9164 248.735 66.8296 241.211 66.8296 241.211L67.9828 231.554C67.9828 231.554 76.6536 238.697 77.4513 238.888C78.2491 239.078 90.2061 225.018 92.7119 220.926C95.2178 216.835 99.2844 206.441 99.2844 206.441L93.5704 203.546L91.2552 205.861L77.5381 220.736C77.5381 220.736 69.2314 211.27 65.1735 209.727C61.1156 208.184 53.3899 205.861 53.3899 205.861L37.7391 202.194L38.901 198.908C38.901 198.908 38.0773 196.594 34.0367 198.718Z" fill="#0EABEB" stroke="#263238" stroke-width="0.520701" stroke-linecap="round" stroke-linejoin="round"/>
<path d="M68.0436 231.554L59.3208 226.431L67.2633 236.027L68.0436 231.554Z" fill="#263238" stroke="#263238" stroke-width="0.520701" stroke-linecap="round" stroke-linejoin="round"/>
<path d="M49.7217 243.508C50.5335 244.462 51.4237 245.347 52.3829 246.152" stroke="#263238" stroke-width="0.520701" stroke-linecap="round" stroke-linejoin="round"/>
<path d="M39.0913 224.637C39.0913 224.637 42.8198 234.242 47.9529 241.263" stroke="#263238" stroke-width="0.520701" stroke-linecap="round" stroke-linejoin="round"/>
<path d="M43.21 239.191C45.2937 242.602 47.7321 245.784 50.4848 248.683" stroke="#263238" stroke-width="0.520701" stroke-linecap="round" stroke-linejoin="round"/>
<path d="M59.1557 168.396C59.923 169.931 60.5051 171.552 60.8899 173.225C61.6616 176.311 64.3582 177.862 65.338 177.663C66.3178 177.463 66.3005 179.787 65.7195 180.948C65.307 181.725 64.7874 182.44 64.1761 183.072C64.0576 185.788 63.8 188.496 63.4044 191.186C62.8235 194.653 62.6327 197.366 61.2801 197.366H54.3434C54.3434 197.366 53.7625 200.452 53.5631 202.966C53.3636 205.48 53.3723 205.862 53.3723 205.862L37.7215 202.195L39.4557 196.786C39.4557 196.786 29.6056 192.347 34.4353 184.234C39.2649 176.12 50.6497 165.9 59.1557 168.396Z" fill="white" stroke="#263238" stroke-width="0.520701" stroke-linecap="round" stroke-linejoin="round"/>
<path d="M54.3264 197.366L51.1182 197.105L53.65 201.535L54.3264 197.366Z" fill="#263238" stroke="#263238" stroke-width="0.520701" stroke-linecap="round" stroke-linejoin="round"/>
<path d="M63.7862 187.319C63.2121 187.675 62.5572 187.88 61.8826 187.915C61.208 187.95 60.5355 187.814 59.9277 187.519" stroke="#263238" stroke-width="0.520701" stroke-linecap="round" stroke-linejoin="round"/>
<path d="M57.8027 175.347C57.8027 175.347 58.1841 171.681 60.1172 171.88" stroke="#263238" stroke-width="0.520701" stroke-linecap="round" stroke-linejoin="round"/>
<path d="M60.8551 176.882C61.1845 177.896 61.1585 178.806 60.803 178.928C60.4476 179.049 59.9362 178.304 59.5721 177.289C59.208 176.275 59.2687 175.365 59.6241 175.244C59.9795 175.122 60.5343 175.859 60.8551 176.882Z" fill="#263238"/>
<path d="M59.1559 162.596L59.2252 162.683C61.2715 165.344 60.9594 168.309 59.3466 171.1C56.1298 176.778 46.3404 182.057 46.3404 186.747C46.3404 191.437 51.2828 191.194 51.2828 191.194C51.2828 191.194 53.2597 195.398 48.3174 199.1C43.375 202.801 33.2302 203.789 26.8051 197.106C25.0384 195.206 23.7513 192.911 23.0507 190.414C21.0997 183.912 20.8223 176.683 23.6923 170.788C26.1028 165.847 28.8948 161.842 33.9152 159.354C37.8691 157.413 44.112 156.927 48.5255 157.187C50.6807 157.269 52.7976 157.782 54.7511 158.696C56.4667 159.687 57.9648 161.013 59.1559 162.596Z" fill="#263238" stroke="#263238" stroke-width="0.520701" stroke-linecap="round" stroke-linejoin="round"/>
<path d="M45.6465 195.182C46.6001 195.026 47.5334 194.764 48.4291 194.402" stroke="#757575" stroke-width="0.520701" stroke-linecap="round" stroke-linejoin="round"/>
<path d="M54.0837 173.51C52.7387 175.462 51.0562 177.159 49.1153 178.52C42.3001 183.288 34.8085 188.281 38.2161 192.815C38.8027 193.591 39.5576 194.224 40.4241 194.667C41.2906 195.11 42.2462 195.351 43.2192 195.372" stroke="#757575" stroke-width="0.520701" stroke-linecap="round" stroke-linejoin="round"/>
<path d="M57.0578 166.714C56.784 168.058 56.3442 169.363 55.7485 170.598" stroke="#757575" stroke-width="0.520701" stroke-linecap="round" stroke-linejoin="round"/>
<path d="M40.8086 180.072C39.6987 181.607 38.3027 183.41 36.6293 185.325C31.8603 190.778 32.5366 201.891 43.2104 200.989" stroke="#757575" stroke-width="0.520701" stroke-linecap="round" stroke-linejoin="round"/>
<path d="M43.8862 175.339C43.8862 175.339 43.3835 176.301 42.4126 177.757" stroke="#757575" stroke-width="0.520701" stroke-linecap="round" stroke-linejoin="round"/>
<path d="M322.939 283.323C325.21 284.311 330.742 284.19 330.742 284.19C330.742 284.19 329.546 280.549 329.442 280.332C328.219 277.783 324.369 273.579 321.239 274.004C320.72 274.087 320.224 274.279 319.784 274.567C319.344 274.855 318.969 275.233 318.685 275.676C318.401 276.119 318.214 276.616 318.135 277.136C318.057 277.656 318.089 278.187 318.23 278.694C318.777 280.861 321.005 282.473 322.939 283.323Z" fill="#263238"/>
<path d="M395.678 264.425C392.531 264.087 388.793 268.395 387.649 270.978C387.545 271.195 386.392 274.862 386.452 274.862H386.522C385.923 275.538 385.29 276.266 384.623 277.081C383.392 278.589 382.022 280.314 380.643 282.282C379.14 284.39 377.762 286.584 376.516 288.853C375.107 291.386 373.929 294.041 372.995 296.785C372.995 296.785 372.995 296.854 372.995 296.88C372.995 295.952 372.995 293.361 372.952 293.17C372.588 290.37 370.238 285.169 367.125 284.588C366.604 284.506 366.072 284.534 365.563 284.672C365.053 284.809 364.579 285.052 364.17 285.385C363.761 285.717 363.426 286.133 363.189 286.603C362.951 287.074 362.815 287.589 362.79 288.116C362.608 290.335 364.22 292.563 365.799 293.967C367.533 295.554 372.501 297.088 372.891 297.209C372.003 300.022 371.307 302.892 370.81 305.8C370.507 307.49 370.255 309.207 370.021 310.932C370.021 310.125 370.021 309.415 370.021 309.311C369.657 306.511 367.307 301.31 364.194 300.737C363.674 300.654 363.142 300.681 362.633 300.817C362.123 300.954 361.649 301.196 361.239 301.528C360.83 301.86 360.496 302.275 360.258 302.745C360.02 303.215 359.884 303.731 359.859 304.257C359.677 306.485 361.29 308.713 362.868 310.117C364.446 311.521 368.634 312.934 369.744 313.29C369.666 313.948 369.57 314.607 369.492 315.266C369.119 318.447 368.755 321.611 368.296 324.706C368.14 325.798 367.94 326.873 367.749 327.939C367.749 327.229 367.749 326.63 367.749 326.535C367.385 323.735 365.035 318.543 361.923 317.962C361.402 317.88 360.871 317.908 360.362 318.045C359.853 318.181 359.379 318.424 358.97 318.756C358.561 319.087 358.227 319.502 357.989 319.971C357.75 320.441 357.614 320.955 357.587 321.481C357.405 323.709 359.018 325.937 360.596 327.341C362.174 328.745 365.955 330.02 367.273 330.453C367.047 331.537 366.813 332.629 366.544 333.678C366.336 334.389 366.189 335.082 365.946 335.784C365.703 336.486 365.504 337.18 365.278 337.865C364.801 339.174 364.324 340.526 363.83 341.783C363.492 342.65 363.145 343.517 362.807 344.384C362.981 343.3 363.275 341.168 363.275 340.985C363.24 338.502 362.568 336.07 361.324 333.921C361.335 333.631 361.318 333.34 361.272 333.054C361.207 332.532 361.033 332.03 360.761 331.58C360.489 331.131 360.125 330.744 359.693 330.444C359.261 330.145 358.77 329.94 358.254 329.843C357.737 329.746 357.205 329.759 356.694 329.881C353.642 330.696 351.7 336.062 351.561 338.879C351.561 339.044 351.656 340.855 351.743 342C351.587 341.341 351.448 340.691 351.284 340.006C350.963 338.654 350.599 337.319 350.217 335.88L349.584 333.782C349.393 333.08 349.099 332.369 348.847 331.649C348.24 329.994 347.555 328.347 346.818 326.708C347.997 326.422 352.185 325.356 353.868 324.064C355.55 322.773 357.336 320.684 357.336 318.447C357.35 317.922 357.253 317.401 357.052 316.916C356.851 316.431 356.55 315.993 356.169 315.632C355.788 315.271 355.335 314.993 354.84 314.818C354.345 314.643 353.819 314.574 353.295 314.616C350.148 314.954 347.416 319.964 346.844 322.73C346.844 322.903 346.627 324.931 346.549 326.05C346.098 325.07 345.682 324.082 345.162 323.102C343.757 320.276 342.249 317.45 340.757 314.633L339.396 312.033C339.821 311.929 344.824 310.776 346.705 309.328C348.379 308.045 350.174 305.939 350.174 303.711C350.189 303.186 350.093 302.663 349.893 302.177C349.692 301.692 349.391 301.254 349.01 300.892C348.629 300.531 348.175 300.254 347.68 300.079C347.184 299.904 346.657 299.836 346.133 299.879C342.986 300.217 340.263 305.228 339.691 307.993C339.691 308.201 339.379 311.122 339.353 311.868C338.364 309.961 337.393 308.054 336.509 306.138C335.31 303.549 334.278 300.885 333.422 298.163C333.621 298.12 338.85 296.932 340.775 295.45C342.457 294.167 344.243 292.069 344.243 289.832C344.257 289.308 344.16 288.786 343.959 288.301C343.758 287.816 343.457 287.378 343.076 287.017C342.695 286.656 342.242 286.379 341.747 286.204C341.252 286.029 340.726 285.959 340.202 286.001C337.055 286.339 334.332 291.349 333.76 294.115C333.717 294.331 333.43 297.478 333.422 298.05C333.37 297.894 333.3 297.738 333.257 297.582C332.477 294.826 331.941 292.006 331.653 289.156C331.479 287.587 331.401 286.079 331.358 284.605C332.347 284.484 336.899 283.877 338.78 282.742C340.662 281.606 342.587 279.751 342.812 277.541C342.884 277.02 342.846 276.491 342.699 275.986C342.553 275.482 342.302 275.014 341.962 274.613C341.623 274.212 341.202 273.887 340.729 273.66C340.255 273.433 339.739 273.307 339.214 273.293C336.049 273.293 332.789 277.965 331.913 280.653C331.87 280.791 331.549 282.334 331.341 283.461C331.341 282.794 331.341 282.109 331.341 281.467C331.341 279.075 331.497 276.89 331.644 274.949C331.74 273.848 331.844 272.851 331.956 271.923C332.875 271.299 336.535 268.716 337.653 266.87C338.772 265.023 339.656 262.466 338.832 260.394C338.657 259.899 338.379 259.447 338.017 259.066C337.654 258.685 337.216 258.385 336.731 258.185C336.245 257.984 335.722 257.889 335.197 257.903C334.672 257.918 334.156 258.043 333.682 258.27C330.873 259.727 330.127 265.379 330.595 268.17C330.638 268.413 331.696 272.105 331.748 272.071H331.8C331.679 272.938 331.558 273.917 331.445 274.966C331.245 276.908 331.046 279.092 330.994 281.493C330.907 284.081 330.968 286.671 331.176 289.252C331.402 292.141 331.884 295.004 332.615 297.808C332.615 297.808 332.615 297.877 332.615 297.912C332.112 297.131 330.647 294.99 330.517 294.834C328.67 292.702 323.841 289.633 320.979 290.899C320.502 291.117 320.075 291.434 319.728 291.827C319.38 292.221 319.12 292.684 318.963 293.185C318.806 293.686 318.756 294.214 318.817 294.736C318.877 295.258 319.047 295.761 319.314 296.213C320.39 298.172 322.965 299.142 325.054 299.446C327.413 299.784 332.364 298.345 332.763 298.232C333.575 301.068 334.577 303.845 335.763 306.545C336.448 308.123 337.185 309.692 337.939 311.252C337.488 310.594 337.072 310.004 337.011 309.926C335.165 307.794 330.335 304.725 327.422 305.991C326.945 306.21 326.519 306.527 326.173 306.921C325.826 307.315 325.566 307.778 325.41 308.279C325.254 308.78 325.205 309.308 325.266 309.829C325.327 310.351 325.498 310.853 325.765 311.304C326.841 313.264 329.416 314.234 331.506 314.538C333.595 314.841 337.87 313.671 338.997 313.385C339.292 313.983 339.578 314.581 339.864 315.179C341.295 318.031 342.743 320.874 344.069 323.709C344.546 324.706 344.937 325.712 345.396 326.708C344.997 326.119 344.65 325.633 344.59 325.564C342.743 323.423 337.913 320.363 335.009 321.62C334.531 321.838 334.105 322.155 333.757 322.549C333.41 322.943 333.149 323.405 332.992 323.906C332.835 324.407 332.785 324.936 332.846 325.457C332.906 325.979 333.076 326.482 333.344 326.934C334.419 328.893 336.994 329.864 339.084 330.167C341.173 330.471 345.041 329.439 346.367 329.075C346.783 330.106 347.234 331.147 347.538 332.17C347.763 332.872 348.032 333.539 348.214 334.259C348.396 334.978 348.604 335.663 348.804 336.356C349.125 337.709 349.471 339.104 349.749 340.431C349.957 341.35 350.13 342.234 350.312 343.118C349.853 342.121 348.925 340.179 348.83 340.032C347.321 337.639 343.012 333.903 339.951 334.683C339.445 334.826 338.975 335.074 338.572 335.411C338.169 335.748 337.841 336.166 337.61 336.638C337.38 337.11 337.251 337.625 337.233 338.15C337.215 338.676 337.308 339.198 337.506 339.685C338.269 341.783 340.671 343.153 342.708 343.751C344.937 344.427 349.853 343.803 350.512 343.751C350.807 345.224 351.075 346.655 351.31 348.007C351.674 350.044 351.969 351.934 352.22 353.65H349.099V387.813H362.712V353.572H360.908C361.446 352.341 362.001 351.032 362.582 349.628C363.163 348.224 363.752 346.707 364.316 345.146C364.905 345.268 369.778 346.256 372.05 345.744C374.105 345.276 376.602 344.115 377.521 342.078C377.76 341.605 377.896 341.087 377.919 340.559C377.943 340.03 377.854 339.502 377.658 339.01C377.462 338.518 377.164 338.074 376.783 337.706C376.402 337.338 375.947 337.055 375.449 336.877C372.458 335.871 367.88 339.269 366.197 341.54C366.102 341.679 365.192 343.274 364.628 344.253C364.871 343.621 365.105 342.997 365.348 342.338C365.825 341.029 366.267 339.737 366.744 338.307L367.368 336.209C367.593 335.516 367.741 334.753 367.932 334.016C368.339 332.282 368.669 330.549 368.963 328.815C370.108 329.231 374.166 330.653 376.299 330.497C378.432 330.341 381.05 329.578 382.264 327.705C382.567 327.275 382.776 326.787 382.877 326.271C382.978 325.755 382.968 325.223 382.85 324.711C382.731 324.199 382.506 323.717 382.188 323.298C381.871 322.879 381.468 322.532 381.007 322.279C378.198 320.831 373.151 323.501 371.157 325.495C371.027 325.625 369.752 327.228 369.067 328.095C369.232 327.029 369.406 325.963 369.544 324.879C369.934 321.741 370.229 318.56 370.541 315.344C370.637 314.373 370.741 313.402 370.845 312.431C371.244 312.587 376.047 314.382 378.432 314.208C380.53 314.061 383.175 313.29 384.389 311.417C384.691 310.987 384.9 310.498 385.001 309.982C385.102 309.466 385.093 308.935 384.974 308.423C384.855 307.911 384.63 307.429 384.312 307.01C383.995 306.591 383.592 306.244 383.131 305.991C380.322 304.543 375.284 307.213 373.281 309.207C373.134 309.363 371.296 311.651 370.862 312.258C371.088 310.117 371.33 307.993 371.66 305.904C372.083 303.084 372.691 300.296 373.481 297.556C373.672 297.625 378.683 299.515 381.111 299.351C383.218 299.203 385.854 298.423 387.077 296.559C387.377 296.129 387.583 295.64 387.683 295.124C387.782 294.609 387.772 294.078 387.654 293.567C387.535 293.055 387.311 292.575 386.995 292.155C386.679 291.736 386.278 291.388 385.819 291.133C383.001 289.676 377.964 292.355 375.961 294.349C375.805 294.505 373.836 296.949 373.507 297.443C373.559 297.279 373.585 297.114 373.637 296.958C374.501 294.228 375.609 291.582 376.949 289.052C377.669 287.648 378.432 286.339 379.204 285.082C380.071 285.533 384.233 287.535 386.435 287.631C388.637 287.726 391.273 287.258 392.713 285.524C393.061 285.13 393.322 284.668 393.479 284.166C393.636 283.665 393.686 283.136 393.624 282.614C393.563 282.092 393.392 281.589 393.123 281.137C392.854 280.686 392.492 280.296 392.062 279.994C389.461 278.26 384.12 280.349 381.918 282.109C381.796 282.204 380.678 283.314 379.88 284.129C380.244 283.565 380.6 282.984 380.955 282.456C382.273 280.462 383.608 278.719 384.805 277.185C385.49 276.318 386.132 275.547 386.73 274.836C387.848 274.836 392.322 274.68 394.282 273.761C396.242 272.842 398.375 271.16 398.834 269.002C398.955 268.492 398.968 267.963 398.871 267.448C398.775 266.933 398.571 266.444 398.273 266.012C397.976 265.581 397.591 265.217 397.144 264.943C396.697 264.67 396.198 264.493 395.678 264.425ZM360.847 348.908C360.119 350.599 359.408 352.151 358.74 353.581H353.989C353.694 351.769 353.339 349.767 352.905 347.591C352.61 346.1 352.263 344.514 351.899 342.884C353.383 342.29 354.83 341.61 356.235 340.847C357.856 342.58 362.001 344.652 362.538 344.912C361.966 346.299 361.402 347.643 360.847 348.908Z" fill="#263238"/>
<path d="M379.1 284.544C379.152 284.544 380.114 280.852 380.149 280.609C380.539 277.809 379.646 272.174 376.793 270.805C376.314 270.589 375.795 270.477 375.27 270.475C374.745 270.473 374.225 270.583 373.745 270.795C373.265 271.008 372.834 271.319 372.483 271.709C372.131 272.099 371.865 272.559 371.703 273.059C370.94 275.156 371.903 277.731 373.056 279.499C374.4 281.58 379.1 284.536 379.1 284.544Z" fill="#263238"/>
<path d="M397.638 387.571H408.632" stroke="#263238" stroke-width="0.520701" stroke-linecap="round" stroke-linejoin="round"/>
<path d="M388.248 387.571H392.583" stroke="#263238" stroke-width="0.520701" stroke-linecap="round" stroke-linejoin="round"/>
<path d="M5.44043 387.571H385.117" stroke="#263238" stroke-width="0.520701" stroke-linecap="round" stroke-linejoin="round"/>
<path d="M76.586 134V139.081H75.9226V134H76.586ZM81.7114 139.081H81.0481L78.38 135.035V139.081H77.7166V133.992H78.38L81.0481 138.031V133.992H81.7114V139.081ZM87.0412 134L85.124 139.081H84.3586L82.4413 134H83.1484L84.7449 138.381L86.3414 134H87.0412ZM90.0722 139.132C89.6008 139.132 89.1707 139.022 88.7819 138.804C88.3931 138.58 88.0845 138.271 87.8561 137.878C87.6325 137.479 87.5207 137.032 87.5207 136.536C87.5207 136.041 87.6325 135.596 87.8561 135.202C88.0845 134.804 88.3931 134.495 88.7819 134.277C89.1707 134.053 89.6008 133.941 90.0722 133.941C90.5484 133.941 90.981 134.053 91.3698 134.277C91.7586 134.495 92.0647 134.801 92.2883 135.195C92.5118 135.589 92.6236 136.036 92.6236 136.536C92.6236 137.037 92.5118 137.484 92.2883 137.878C92.0647 138.271 91.7586 138.58 91.3698 138.804C90.981 139.022 90.5484 139.132 90.0722 139.132ZM90.0722 138.556C90.4269 138.556 90.7453 138.473 91.0271 138.308C91.3139 138.143 91.5374 137.907 91.6978 137.601C91.863 137.295 91.9457 136.94 91.9457 136.536C91.9457 136.128 91.863 135.773 91.6978 135.472C91.5374 135.166 91.3163 134.93 91.0344 134.765C90.7526 134.6 90.4318 134.517 90.0722 134.517C89.7125 134.517 89.3918 134.6 89.1099 134.765C88.828 134.93 88.6045 135.166 88.4393 135.472C88.2789 135.773 88.1987 136.128 88.1987 136.536C88.1987 136.94 88.2789 137.295 88.4393 137.601C88.6045 137.907 88.828 138.143 89.1099 138.308C89.3967 138.473 89.7174 138.556 90.0722 138.556ZM94.1627 134V139.081H93.4994V134H94.1627ZM95.0455 136.536C95.0455 136.041 95.1573 135.596 95.3808 135.202C95.6044 134.804 95.9081 134.493 96.292 134.269C96.6808 134.046 97.1109 133.934 97.5823 133.934C98.1364 133.934 98.6199 134.068 99.033 134.335C99.4461 134.602 99.7474 134.981 99.9369 135.472H99.1424C99.0014 135.166 98.7973 134.93 98.53 134.765C98.2676 134.6 97.9517 134.517 97.5823 134.517C97.2276 134.517 96.9092 134.6 96.6274 134.765C96.3455 134.93 96.1244 135.166 95.964 135.472C95.8036 135.773 95.7234 136.128 95.7234 136.536C95.7234 136.94 95.8036 137.295 95.964 137.601C96.1244 137.902 96.3455 138.135 96.6274 138.301C96.9092 138.466 97.2276 138.548 97.5823 138.548C97.9517 138.548 98.2676 138.468 98.53 138.308C98.7973 138.143 99.0014 137.907 99.1424 137.601H99.9369C99.7474 138.087 99.4461 138.463 99.033 138.731C98.6199 138.993 98.1364 139.124 97.5823 139.124C97.1109 139.124 96.6808 139.015 96.292 138.796C95.9081 138.573 95.6044 138.264 95.3808 137.87C95.1573 137.477 95.0455 137.032 95.0455 136.536ZM101.588 134.539V136.238H103.439V136.784H101.588V138.534H103.658V139.081H100.924V133.992H103.658V134.539H101.588Z" fill="#232323"/>
<path d="M84.2729 159.612C84.2729 159.232 84.3588 158.89 84.5305 158.588C84.7021 158.282 84.9354 158.043 85.2302 157.871C85.5288 157.7 85.8591 157.614 86.2211 157.614C86.6465 157.614 87.0179 157.716 87.3351 157.922C87.6523 158.127 87.8837 158.418 88.0292 158.795H87.419C87.3108 158.56 87.1541 158.379 86.9488 158.252C86.7473 158.125 86.5047 158.062 86.2211 158.062C85.9486 158.062 85.7042 158.125 85.4877 158.252C85.2713 158.379 85.1015 158.56 84.9783 158.795C84.8551 159.026 84.7936 159.299 84.7936 159.612C84.7936 159.922 84.8551 160.194 84.9783 160.43C85.1015 160.661 85.2713 160.84 85.4877 160.967C85.7042 161.094 85.9486 161.157 86.2211 161.157C86.5047 161.157 86.7473 161.096 86.9488 160.973C87.1541 160.846 87.3108 160.665 87.419 160.43H88.0292C87.8837 160.803 87.6523 161.092 87.3351 161.297C87.0179 161.499 86.6465 161.6 86.2211 161.6C85.8591 161.6 85.5288 161.516 85.2302 161.348C84.9354 161.176 84.7021 160.939 84.5305 160.637C84.3588 160.334 84.2729 159.993 84.2729 159.612ZM90.3102 158.442C90.5416 158.442 90.7506 158.493 90.9372 158.593C91.1238 158.69 91.2694 158.838 91.3739 159.036C91.4821 159.233 91.5362 159.474 91.5362 159.758V161.566H91.0324V159.831C91.0324 159.524 90.9559 159.291 90.8029 159.131C90.6498 158.967 90.4408 158.884 90.1759 158.884C89.9072 158.884 89.6926 158.968 89.5321 159.136C89.3753 159.304 89.297 159.549 89.297 159.87V161.566H88.7876V157.423H89.297V158.935C89.3977 158.778 89.5358 158.657 89.7112 158.571C89.8904 158.485 90.09 158.442 90.3102 158.442ZM92.6314 158C92.5344 158 92.4523 157.966 92.3851 157.899C92.318 157.832 92.2844 157.75 92.2844 157.653C92.2844 157.556 92.318 157.474 92.3851 157.407C92.4523 157.339 92.5344 157.306 92.6314 157.306C92.7247 157.306 92.8031 157.339 92.8666 157.407C92.9337 157.474 92.9673 157.556 92.9673 157.653C92.9673 157.75 92.9337 157.832 92.8666 157.899C92.8031 157.966 92.7247 158 92.6314 158ZM92.8778 158.498V161.566H92.3683V158.498H92.8778ZM94.2554 157.423V161.566H93.746V157.423H94.2554ZM94.9333 160.021C94.9333 159.707 94.9967 159.433 95.1236 159.198C95.2505 158.959 95.4241 158.774 95.6443 158.644C95.8682 158.513 96.1182 158.448 96.3944 158.448C96.6332 158.448 96.8553 158.504 97.0606 158.616C97.2658 158.724 97.4226 158.868 97.5308 159.047V157.423H98.0458V161.566H97.5308V160.989C97.43 161.172 97.2807 161.323 97.083 161.443C96.8852 161.558 96.6538 161.616 96.3888 161.616C96.1164 161.616 95.8682 161.549 95.6443 161.415C95.4241 161.28 95.2505 161.092 95.1236 160.849C94.9967 160.607 94.9333 160.331 94.9333 160.021ZM97.5308 160.026C97.5308 159.795 97.4841 159.594 97.3908 159.422C97.2975 159.25 97.1707 159.12 97.0102 159.03C96.8534 158.937 96.6799 158.89 96.4896 158.89C96.2992 158.89 96.1257 158.935 95.9689 159.024C95.8122 159.114 95.6872 159.245 95.5939 159.416C95.5006 159.588 95.4539 159.789 95.4539 160.021C95.4539 160.256 95.5006 160.461 95.5939 160.637C95.6872 160.808 95.8122 160.941 95.9689 161.034C96.1257 161.124 96.2992 161.168 96.4896 161.168C96.6799 161.168 96.8534 161.124 97.0102 161.034C97.1707 160.941 97.2975 160.808 97.3908 160.637C97.4841 160.461 97.5308 160.258 97.5308 160.026Z" fill="#232323"/>
<rect x="84.2926" y="169.627" width="51.5041" height="15.0827" rx="7.54133" fill="white" stroke="#111827" stroke-width="0.520701"/>
<rect x="90.1021" y="175.434" width="25.1453" height="3.46831" rx="1.73416" fill="#EAECF7"/>
<path d="M146.9 158.806C146.9 159.131 146.788 159.401 146.564 159.618C146.344 159.831 146.006 159.937 145.551 159.937H144.801V161.566H144.291V157.664H145.551C145.991 157.664 146.325 157.77 146.553 157.983C146.784 158.196 146.9 158.47 146.9 158.806ZM145.551 159.517C145.835 159.517 146.044 159.455 146.178 159.332C146.312 159.209 146.379 159.034 146.379 158.806C146.379 158.325 146.103 158.084 145.551 158.084H144.801V159.517H145.551ZM147.343 160.021C147.343 159.707 147.406 159.433 147.533 159.198C147.66 158.959 147.834 158.774 148.054 158.644C148.278 158.513 148.526 158.448 148.798 158.448C149.067 158.448 149.3 158.506 149.498 158.621C149.696 158.737 149.843 158.883 149.94 159.058V158.498H150.455V161.566H149.94V160.995C149.84 161.174 149.688 161.323 149.487 161.443C149.289 161.558 149.058 161.616 148.793 161.616C148.52 161.616 148.274 161.549 148.054 161.415C147.834 161.28 147.66 161.092 147.533 160.849C147.406 160.607 147.343 160.331 147.343 160.021ZM149.94 160.026C149.94 159.795 149.894 159.594 149.8 159.422C149.707 159.25 149.58 159.12 149.42 159.03C149.263 158.937 149.09 158.89 148.899 158.89C148.709 158.89 148.535 158.935 148.379 159.024C148.222 159.114 148.097 159.245 148.003 159.416C147.91 159.588 147.864 159.789 147.864 160.021C147.864 160.256 147.91 160.461 148.003 160.637C148.097 160.808 148.222 160.941 148.379 161.034C148.535 161.124 148.709 161.168 148.899 161.168C149.09 161.168 149.263 161.124 149.42 161.034C149.58 160.941 149.707 160.808 149.8 160.637C149.894 160.461 149.94 160.258 149.94 160.026ZM153.959 158.498L152.111 163.01H151.585L152.19 161.532L150.952 158.498H151.518L152.481 160.984L153.432 158.498H153.959ZM157.27 159.914C157.27 160.012 157.264 160.114 157.253 160.222H154.801C154.82 160.525 154.922 160.762 155.109 160.933C155.299 161.101 155.529 161.185 155.797 161.185C156.018 161.185 156.2 161.135 156.346 161.034C156.495 160.93 156.6 160.792 156.66 160.62H157.208C157.126 160.915 156.962 161.155 156.715 161.342C156.469 161.525 156.163 161.616 155.797 161.616C155.506 161.616 155.245 161.551 155.014 161.42C154.786 161.29 154.607 161.105 154.476 160.866C154.346 160.624 154.28 160.344 154.28 160.026C154.28 159.709 154.344 159.431 154.471 159.192C154.598 158.953 154.775 158.771 155.002 158.644C155.234 158.513 155.499 158.448 155.797 158.448C156.089 158.448 156.346 158.511 156.57 158.638C156.794 158.765 156.966 158.94 157.085 159.164C157.208 159.385 157.27 159.635 157.27 159.914ZM156.743 159.808C156.743 159.614 156.701 159.448 156.615 159.31C156.529 159.168 156.411 159.062 156.262 158.991C156.117 158.916 155.954 158.879 155.775 158.879C155.518 158.879 155.297 158.961 155.114 159.125C154.935 159.289 154.833 159.517 154.807 159.808H156.743ZM160.741 159.914C160.741 160.012 160.736 160.114 160.724 160.222H158.272C158.291 160.525 158.394 160.762 158.58 160.933C158.771 161.101 159 161.185 159.269 161.185C159.489 161.185 159.672 161.135 159.817 161.034C159.967 160.93 160.071 160.792 160.131 160.62H160.68C160.597 160.915 160.433 161.155 160.187 161.342C159.941 161.525 159.635 161.616 159.269 161.616C158.978 161.616 158.717 161.551 158.485 161.42C158.257 161.29 158.078 161.105 157.948 160.866C157.817 160.624 157.752 160.344 157.752 160.026C157.752 159.709 157.815 159.431 157.942 159.192C158.069 158.953 158.246 158.771 158.474 158.644C158.705 158.513 158.97 158.448 159.269 158.448C159.56 158.448 159.817 158.511 160.041 158.638C160.265 158.765 160.437 158.94 160.556 159.164C160.68 159.385 160.741 159.635 160.741 159.914ZM160.215 159.808C160.215 159.614 160.172 159.448 160.086 159.31C160 159.168 159.883 159.062 159.734 158.991C159.588 158.916 159.426 158.879 159.246 158.879C158.989 158.879 158.769 158.961 158.586 159.125C158.407 159.289 158.304 159.517 158.278 159.808H160.215Z" fill="#232323"/>
<rect x="144.121" y="169.627" width="51.5041" height="15.0827" rx="7.54133" fill="white" stroke="#111827" stroke-width="0.520701"/>
<rect x="151.664" y="175.434" width="25.1453" height="3.46831" rx="1.73416" fill="#EAECF7"/>
<path d="M214.028 161.606C213.771 161.606 213.539 161.561 213.334 161.472C213.132 161.378 212.974 161.252 212.858 161.091C212.742 160.927 212.683 160.738 212.679 160.526H213.222C213.241 160.709 213.315 160.863 213.446 160.99C213.58 161.113 213.774 161.175 214.028 161.175C214.271 161.175 214.461 161.115 214.599 160.996C214.741 160.873 214.812 160.716 214.812 160.526C214.812 160.376 214.771 160.255 214.689 160.162C214.607 160.068 214.504 159.998 214.381 159.949C214.258 159.901 214.092 159.848 213.883 159.792C213.625 159.725 213.418 159.658 213.261 159.591C213.108 159.524 212.976 159.419 212.864 159.277C212.755 159.132 212.701 158.938 212.701 158.695C212.701 158.482 212.755 158.294 212.864 158.13C212.972 157.965 213.123 157.839 213.317 157.749C213.515 157.659 213.741 157.615 213.994 157.615C214.36 157.615 214.659 157.706 214.89 157.889C215.125 158.072 215.258 158.314 215.288 158.617H214.728C214.709 158.467 214.631 158.337 214.493 158.225C214.355 158.109 214.172 158.051 213.944 158.051C213.731 158.051 213.558 158.107 213.423 158.219C213.289 158.327 213.222 158.481 213.222 158.678C213.222 158.82 213.261 158.936 213.34 159.025C213.422 159.115 213.521 159.184 213.636 159.233C213.756 159.277 213.922 159.33 214.134 159.389C214.392 159.46 214.599 159.531 214.756 159.602C214.913 159.669 215.047 159.776 215.159 159.921C215.271 160.063 215.327 160.257 215.327 160.503C215.327 160.694 215.276 160.873 215.176 161.041C215.075 161.209 214.926 161.345 214.728 161.449C214.53 161.554 214.297 161.606 214.028 161.606ZM216.698 158.919V160.727C216.698 160.876 216.73 160.983 216.793 161.046C216.856 161.106 216.967 161.136 217.123 161.136H217.498V161.567H217.039C216.756 161.567 216.543 161.502 216.401 161.371C216.259 161.24 216.188 161.026 216.188 160.727V158.919H215.791V158.499H216.188V157.727H216.698V158.499H217.498V158.919H216.698ZM217.925 160.022C217.925 159.708 217.989 159.434 218.116 159.199C218.243 158.96 218.416 158.775 218.636 158.645C218.86 158.514 219.108 158.449 219.381 158.449C219.649 158.449 219.883 158.507 220.081 158.622C220.278 158.738 220.426 158.884 220.523 159.059V158.499H221.038V161.567H220.523V160.996C220.422 161.175 220.271 161.324 220.069 161.444C219.872 161.559 219.64 161.617 219.375 161.617C219.103 161.617 218.856 161.55 218.636 161.416C218.416 161.281 218.243 161.093 218.116 160.85C217.989 160.608 217.925 160.332 217.925 160.022ZM220.523 160.027C220.523 159.796 220.476 159.595 220.383 159.423C220.29 159.251 220.163 159.121 220.002 159.031C219.845 158.938 219.672 158.891 219.482 158.891C219.291 158.891 219.118 158.936 218.961 159.025C218.804 159.115 218.679 159.246 218.586 159.417C218.493 159.589 218.446 159.79 218.446 160.022C218.446 160.257 218.493 160.462 218.586 160.638C218.679 160.809 218.804 160.942 218.961 161.035C219.118 161.125 219.291 161.169 219.482 161.169C219.672 161.169 219.845 161.125 220.002 161.035C220.163 160.942 220.29 160.809 220.383 160.638C220.476 160.462 220.523 160.259 220.523 160.027ZM222.52 158.919V160.727C222.52 160.876 222.552 160.983 222.615 161.046C222.679 161.106 222.789 161.136 222.946 161.136H223.321V161.567H222.862C222.578 161.567 222.365 161.502 222.223 161.371C222.082 161.24 222.011 161.026 222.011 160.727V158.919H221.613V158.499H222.011V157.727H222.52V158.499H223.321V158.919H222.52ZM226.658 158.499V161.567H226.149V161.113C226.052 161.27 225.916 161.393 225.74 161.483C225.569 161.569 225.378 161.612 225.169 161.612C224.931 161.612 224.716 161.563 224.526 161.466C224.335 161.365 224.184 161.216 224.072 161.018C223.964 160.82 223.91 160.58 223.91 160.296V158.499H224.414V160.229C224.414 160.531 224.49 160.765 224.643 160.929C224.796 161.089 225.005 161.169 225.27 161.169C225.543 161.169 225.757 161.085 225.914 160.918C226.071 160.75 226.149 160.505 226.149 160.184V158.499H226.658ZM228.605 161.617C228.37 161.617 228.159 161.578 227.972 161.5C227.785 161.418 227.638 161.306 227.53 161.164C227.422 161.018 227.362 160.852 227.351 160.666H227.877C227.892 160.819 227.963 160.944 228.09 161.041C228.22 161.138 228.39 161.186 228.599 161.186C228.793 161.186 228.946 161.143 229.058 161.057C229.17 160.972 229.226 160.863 229.226 160.733C229.226 160.598 229.166 160.5 229.047 160.436C228.927 160.369 228.743 160.304 228.493 160.24C228.265 160.18 228.078 160.121 227.933 160.061C227.791 159.998 227.668 159.906 227.563 159.787C227.463 159.664 227.412 159.503 227.412 159.305C227.412 159.149 227.459 159.005 227.552 158.874C227.645 158.744 227.778 158.641 227.95 158.566C228.121 158.488 228.317 158.449 228.537 158.449C228.877 158.449 229.151 158.535 229.36 158.706C229.569 158.878 229.681 159.113 229.696 159.412H229.187C229.176 159.251 229.11 159.122 228.991 159.025C228.875 158.928 228.718 158.88 228.521 158.88C228.338 158.88 228.192 158.919 228.084 158.997C227.976 159.076 227.922 159.178 227.922 159.305C227.922 159.406 227.953 159.49 228.017 159.557C228.084 159.621 228.166 159.673 228.263 159.714C228.364 159.751 228.502 159.794 228.677 159.843C228.898 159.902 229.077 159.962 229.215 160.022C229.353 160.078 229.47 160.164 229.567 160.279C229.668 160.395 229.721 160.546 229.724 160.733C229.724 160.901 229.678 161.052 229.584 161.186C229.491 161.321 229.358 161.427 229.187 161.505C229.019 161.58 228.825 161.617 228.605 161.617Z" fill="#232323"/>
<path d="M311.226 160.882C310.89 160.882 310.589 160.824 310.322 160.707C310.059 160.586 309.853 160.42 309.702 160.211C309.551 159.998 309.474 159.752 309.469 159.475H310.176C310.2 159.713 310.297 159.915 310.467 160.08C310.642 160.241 310.895 160.321 311.226 160.321C311.541 160.321 311.789 160.243 311.969 160.087C312.154 159.927 312.246 159.723 312.246 159.475C312.246 159.281 312.193 159.123 312.086 159.001C311.979 158.88 311.845 158.787 311.685 158.724C311.524 158.661 311.308 158.593 311.036 158.52C310.701 158.433 310.431 158.345 310.227 158.258C310.028 158.17 309.855 158.034 309.709 157.85C309.568 157.66 309.498 157.407 309.498 157.091C309.498 156.814 309.568 156.569 309.709 156.355C309.85 156.141 310.047 155.976 310.3 155.859C310.557 155.743 310.851 155.684 311.182 155.684C311.658 155.684 312.047 155.804 312.348 156.042C312.654 156.28 312.827 156.596 312.866 156.989H312.137C312.112 156.795 312.01 156.625 311.831 156.479C311.651 156.328 311.413 156.253 311.116 156.253C310.839 156.253 310.613 156.326 310.438 156.472C310.263 156.613 310.176 156.812 310.176 157.07C310.176 157.254 310.227 157.405 310.329 157.521C310.436 157.638 310.565 157.728 310.715 157.791C310.871 157.85 311.087 157.918 311.364 157.995C311.699 158.088 311.969 158.18 312.173 158.272C312.377 158.36 312.552 158.498 312.698 158.688C312.844 158.873 312.917 159.125 312.917 159.446C312.917 159.694 312.851 159.927 312.72 160.146C312.589 160.365 312.394 160.542 312.137 160.678C311.879 160.814 311.575 160.882 311.226 160.882ZM317.538 158.681C317.538 158.807 317.531 158.941 317.516 159.081H314.323C314.347 159.475 314.481 159.784 314.724 160.007C314.972 160.226 315.271 160.335 315.621 160.335C315.907 160.335 316.146 160.27 316.335 160.139C316.529 160.002 316.666 159.823 316.743 159.599H317.458C317.351 159.983 317.137 160.296 316.816 160.539C316.495 160.778 316.097 160.897 315.621 160.897C315.242 160.897 314.901 160.812 314.6 160.642C314.304 160.471 314.07 160.231 313.9 159.92C313.73 159.604 313.645 159.239 313.645 158.826C313.645 158.413 313.728 158.051 313.893 157.74C314.058 157.429 314.289 157.191 314.586 157.026C314.887 156.856 315.232 156.771 315.621 156.771C316 156.771 316.335 156.853 316.627 157.018C316.918 157.184 317.142 157.412 317.297 157.704C317.458 157.99 317.538 158.316 317.538 158.681ZM316.853 158.542C316.853 158.289 316.797 158.073 316.685 157.893C316.573 157.709 316.42 157.57 316.226 157.478C316.036 157.381 315.825 157.332 315.592 157.332C315.256 157.332 314.969 157.439 314.731 157.653C314.498 157.867 314.364 158.163 314.33 158.542H316.853ZM318.166 158.819C318.166 158.411 318.248 158.054 318.414 157.747C318.579 157.436 318.805 157.196 319.091 157.026C319.383 156.856 319.706 156.771 320.061 156.771C320.411 156.771 320.715 156.846 320.972 156.997C321.23 157.147 321.422 157.337 321.548 157.565V156.836H322.219V160.831H321.548V160.087C321.417 160.321 321.22 160.515 320.958 160.671C320.7 160.821 320.399 160.897 320.054 160.897C319.699 160.897 319.378 160.809 319.091 160.634C318.805 160.459 318.579 160.214 318.414 159.898C318.248 159.582 318.166 159.222 318.166 158.819ZM321.548 158.826C321.548 158.525 321.487 158.263 321.366 158.039C321.244 157.816 321.079 157.645 320.87 157.529C320.666 157.407 320.44 157.347 320.192 157.347C319.944 157.347 319.718 157.405 319.514 157.521C319.31 157.638 319.147 157.808 319.026 158.032C318.904 158.255 318.844 158.518 318.844 158.819C318.844 159.125 318.904 159.393 319.026 159.621C319.147 159.844 319.31 160.017 319.514 160.139C319.718 160.255 319.944 160.313 320.192 160.313C320.44 160.313 320.666 160.255 320.87 160.139C321.079 160.017 321.244 159.844 321.366 159.621C321.487 159.393 321.548 159.128 321.548 158.826ZM324.003 157.485C324.12 157.257 324.285 157.079 324.499 156.953C324.718 156.827 324.982 156.763 325.294 156.763V157.449H325.119C324.375 157.449 324.003 157.852 324.003 158.659V160.831H323.34V156.836H324.003V157.485ZM325.811 158.826C325.811 158.413 325.894 158.054 326.059 157.747C326.225 157.436 326.453 157.196 326.745 157.026C327.041 156.856 327.379 156.771 327.758 156.771C328.249 156.771 328.652 156.89 328.968 157.128C329.289 157.366 329.5 157.696 329.602 158.119H328.888C328.82 157.876 328.686 157.684 328.487 157.543C328.292 157.402 328.049 157.332 327.758 157.332C327.379 157.332 327.073 157.463 326.839 157.726C326.606 157.983 326.489 158.35 326.489 158.826C326.489 159.307 326.606 159.679 326.839 159.942C327.073 160.204 327.379 160.335 327.758 160.335C328.049 160.335 328.292 160.267 328.487 160.131C328.681 159.995 328.815 159.801 328.888 159.548H329.602C329.495 159.956 329.281 160.284 328.961 160.532C328.64 160.775 328.239 160.897 327.758 160.897C327.379 160.897 327.041 160.812 326.745 160.642C326.453 160.471 326.225 160.231 326.059 159.92C325.894 159.609 325.811 159.244 325.811 158.826ZM332.47 156.763C332.771 156.763 333.044 156.829 333.287 156.96C333.53 157.087 333.719 157.278 333.855 157.536C333.996 157.794 334.067 158.107 334.067 158.476V160.831H333.411V158.571C333.411 158.173 333.311 157.869 333.112 157.66C332.912 157.446 332.64 157.339 332.295 157.339C331.945 157.339 331.666 157.449 331.457 157.667C331.253 157.886 331.151 158.204 331.151 158.622V160.831H330.487V155.437H331.151V157.405C331.282 157.201 331.462 157.043 331.69 156.931C331.923 156.819 332.183 156.763 332.47 156.763Z" fill="white"/>
<rect x="212.62" y="169.627" width="51.5041" height="15.0826" rx="7.54132" fill="white" stroke="#111827" stroke-width="0.520701"/>
<rect x="218.43" y="175.435" width="25.1453" height="3.46833" rx="1.73416" fill="#EAECF7"/>
<defs>
<linearGradient id="paint0_linear_254_32015" x1="14.0572" y1="-1.50301e-05" x2="490.702" y2="160.567" gradientUnits="userSpaceOnUse">
<stop stop-color="#4C49ED"/>
<stop offset="1" stop-color="#0A06F4"/>
</linearGradient>
</defs>
</svg>
