<svg width="22" height="22" viewBox="0 0 22 22" fill="none" xmlns="http://www.w3.org/2000/svg">
<path d="M14.6668 3.89648C14.6668 5.03315 13.741 5.95898 12.6043 5.95898H9.396C8.82766 5.95898 8.31433 5.72982 7.9385 5.35398C7.56266 4.97815 7.3335 4.46482 7.3335 3.89648C7.3335 2.75982 8.25933 1.83398 9.396 1.83398H12.6043C13.1727 1.83398 13.686 2.06315 14.0618 2.43898C14.4377 2.81482 14.6668 3.32815 14.6668 3.89648Z" fill="#818194"/>
<path d="M17.2607 4.61001C17.0498 4.43584 16.8115 4.29834 16.5548 4.19751C16.289 4.09667 16.0232 4.30751 15.9682 4.58251C15.6565 6.15001 14.2723 7.33251 12.604 7.33251H9.39567C8.479 7.33251 7.61734 6.97501 6.9665 6.32417C6.48984 5.84751 6.15984 5.24251 6.0315 4.59167C5.9765 4.31667 5.7015 4.09667 5.43567 4.20667C4.37234 4.63751 3.6665 5.60917 3.6665 7.56167V16.4992C3.6665 19.2492 5.30734 20.1658 7.33317 20.1658H14.6665C16.6923 20.1658 18.3332 19.2492 18.3332 16.4992V7.56167C18.3332 6.06751 17.9207 5.15084 17.2607 4.61001ZM7.33317 11.2283H10.9998C11.3757 11.2283 11.6873 11.54 11.6873 11.9158C11.6873 12.2917 11.3757 12.6033 10.9998 12.6033H7.33317C6.95734 12.6033 6.64567 12.2917 6.64567 11.9158C6.64567 11.54 6.95734 11.2283 7.33317 11.2283ZM14.6665 16.27H7.33317C6.95734 16.27 6.64567 15.9583 6.64567 15.5825C6.64567 15.2067 6.95734 14.895 7.33317 14.895H14.6665C15.0423 14.895 15.354 15.2067 15.354 15.5825C15.354 15.9583 15.0423 16.27 14.6665 16.27Z" fill="#818194"/>
</svg>
