<svg width="24" height="24" viewBox="0 0 24 24" fill="none" xmlns="http://www.w3.org/2000/svg">
<path d="M12.6778 19.957C12.9525 20.021 12.9777 20.3808 12.7101 20.47L11.1301 20.99C7.1601 22.27 5.0701 21.2 3.7801 17.23L2.5001 13.28C1.2201 9.31 2.2801 7.21 6.2501 5.93L6.77409 5.75647C7.17696 5.62305 7.56902 6.02711 7.45463 6.43578C7.39793 6.63836 7.34338 6.84976 7.2901 7.07L6.3101 11.26C5.2101 15.97 6.8201 18.57 11.5301 19.69L12.6778 19.957Z" fill="#0EABEB"/>
<path d="M17.1699 3.20999L15.4999 2.81999C12.1599 2.02999 10.1699 2.67999 8.99994 5.09999C8.69994 5.70999 8.45994 6.44999 8.25994 7.29999L7.27994 11.49C6.29994 15.67 7.58994 17.73 11.7599 18.72L13.4399 19.12C14.0199 19.26 14.5599 19.35 15.0599 19.39C18.1799 19.69 19.8399 18.23 20.6799 14.62L21.6599 10.44C22.6399 6.25999 21.3599 4.18999 17.1699 3.20999ZM15.2899 13.33C15.1999 13.67 14.8999 13.89 14.5599 13.89C14.4999 13.89 14.4399 13.88 14.3699 13.87L11.4599 13.13C11.0599 13.03 10.8199 12.62 10.9199 12.22C11.0199 11.82 11.4299 11.58 11.8299 11.68L14.7399 12.42C15.1499 12.52 15.3899 12.93 15.2899 13.33ZM18.2199 9.94999C18.1299 10.29 17.8299 10.51 17.4899 10.51C17.4299 10.51 17.3699 10.5 17.2999 10.49L12.4499 9.25999C12.0499 9.15999 11.8099 8.74999 11.9099 8.34999C12.0099 7.94999 12.4199 7.70999 12.8199 7.80999L17.6699 9.03999C18.0799 9.12999 18.3199 9.53999 18.2199 9.94999Z" fill="#0EABEB"/>
</svg>
