<svg width="28" height="28" viewBox="0 0 28 28" fill="none" xmlns="http://www.w3.org/2000/svg">
<path d="M23.5551 16.4033L22.2367 14.21C21.9451 13.7317 21.6884 12.81 21.6884 12.25V10.0683C21.6884 5.83333 18.2467 2.39166 14.0234 2.39166C9.78841 2.40333 6.34674 5.83333 6.34674 10.0683V12.2383C6.34674 12.7983 6.09007 13.72 5.81007 14.1983L4.49174 16.3917C3.99007 17.2433 3.87341 18.2117 4.18841 19.0517C4.50341 19.9033 5.21507 20.58 6.14841 20.8833C7.40841 21.3033 8.68007 21.6067 9.97507 21.8283C10.1034 21.8517 10.2317 21.8633 10.3601 21.8867C10.5234 21.91 10.6984 21.9333 10.8734 21.9567C11.1767 22.0033 11.4801 22.0383 11.7951 22.0617C12.5301 22.1317 13.2767 22.1667 14.0234 22.1667C14.7584 22.1667 15.4934 22.1317 16.2167 22.0617C16.4851 22.0383 16.7534 22.015 17.0101 21.98C17.2201 21.9567 17.4301 21.9333 17.6401 21.8983C17.7684 21.8867 17.8967 21.8633 18.0251 21.84C19.3317 21.63 20.6267 21.3033 21.8867 20.8833C22.7851 20.58 23.4734 19.9033 23.8001 19.04C24.1267 18.165 24.0334 17.2083 23.5551 16.4033ZM14.8751 11.6667C14.8751 12.1567 14.4784 12.5533 13.9884 12.5533C13.4984 12.5533 13.1017 12.1567 13.1017 11.6667V8.05C13.1017 7.56 13.4984 7.16333 13.9884 7.16333C14.4784 7.16333 14.8751 7.56 14.8751 8.05V11.6667Z" fill="#4F4F4F"/>
<path d="M17.3016 23.345C16.8116 24.6983 15.5166 25.6667 14 25.6667C13.0783 25.6667 12.1683 25.2933 11.5266 24.6283C11.1533 24.2783 10.8733 23.8117 10.71 23.3333C10.8616 23.3567 11.0133 23.3683 11.1766 23.3917C11.445 23.4267 11.725 23.4617 12.005 23.485C12.67 23.5433 13.3466 23.5783 14.0233 23.5783C14.6883 23.5783 15.3533 23.5433 16.0066 23.485C16.2516 23.4617 16.4966 23.45 16.73 23.415C16.9166 23.3917 17.1033 23.3683 17.3016 23.345Z" fill="#4F4F4F"/>
</svg>
