<svg width="36" height="36" viewBox="0 0 36 36" fill="none" xmlns="http://www.w3.org/2000/svg">
<rect width="36" height="36" rx="5" fill="#F4F4F4"/>
<path d="M21.4882 12.0977H11.2615C10.9582 12.0977 10.6765 12.1085 10.4165 12.1193C7.849 12.271 7.1665 13.2135 7.1665 16.1385V16.7668C7.1665 17.3627 7.654 17.8502 8.24984 17.8502H24.4998C25.0957 17.8502 25.5832 17.3627 25.5832 16.7668V16.1385C25.5832 12.9102 24.7598 12.0977 21.4882 12.0977Z" fill="#A7A7A7"/>
<path d="M8.24984 19.4727C7.654 19.4727 7.1665 19.9602 7.1665 20.556V23.7085C7.1665 26.9368 7.98984 27.7493 11.2615 27.7493H21.4882C24.7057 27.7493 25.5507 26.9693 25.5832 23.8818V20.556C25.5832 19.9602 25.0957 19.4727 24.4998 19.4727H8.24984ZM12.5398 25.106H10.6873C10.2432 25.106 9.87484 24.7377 9.87484 24.2935C9.87484 23.8493 10.2432 23.481 10.6873 23.481H12.5507C12.9948 23.481 13.3632 23.8493 13.3632 24.2935C13.3632 24.7377 12.9948 25.106 12.5398 25.106ZM18.5957 25.106H14.869C14.4248 25.106 14.0565 24.7377 14.0565 24.2935C14.0565 23.8493 14.4248 23.481 14.869 23.481H18.5957C19.0398 23.481 19.4082 23.8493 19.4082 24.2935C19.4082 24.7377 19.0507 25.106 18.5957 25.106Z" fill="#A7A7A7"/>
<path d="M28.8332 19.4393V13.7626C28.8332 10.3718 26.8941 8.89844 23.9691 8.89844H14.2949C13.4716 8.89844 12.7349 9.0176 12.0849 9.26677C11.5757 9.45094 11.1207 9.72177 10.7524 10.0793C10.5574 10.2634 10.7091 10.5668 10.9907 10.5668H22.7666C25.2041 10.5668 27.1757 12.5384 27.1757 14.9759V22.7434C27.1757 23.0143 27.4682 23.1659 27.6632 22.9709C28.4107 22.1801 28.8332 21.0209 28.8332 19.4393Z" fill="#A7A7A7"/>
</svg>
