<svg width="22" height="15" viewBox="0 0 22 15" fill="none" xmlns="http://www.w3.org/2000/svg">
<path d="M0.916504 14.8337V12.267C0.916504 11.7475 1.05018 11.2701 1.31755 10.8347C1.58491 10.3993 1.94011 10.067 2.38317 9.83783C3.33039 9.36421 4.29289 9.00901 5.27067 8.7722C6.24845 8.5354 7.2415 8.41699 8.24984 8.41699C9.25817 8.41699 10.2512 8.5354 11.229 8.7722C12.2068 9.00901 13.1693 9.36421 14.1165 9.83783C14.5596 10.067 14.9148 10.3993 15.1821 10.8347C15.4495 11.2701 15.5832 11.7475 15.5832 12.267V14.8337H0.916504ZM17.4165 14.8337V12.0837C17.4165 11.4114 17.2294 10.766 16.855 10.1472C16.4807 9.52845 15.9498 8.99755 15.2623 8.55449C16.0415 8.64616 16.7748 8.80276 17.4623 9.02428C18.1498 9.24581 18.7915 9.51699 19.3873 9.83783C19.9373 10.1434 20.3575 10.4833 20.6478 10.8576C20.938 11.2319 21.0832 11.6406 21.0832 12.0837V14.8337H17.4165ZM8.24984 7.50033C7.2415 7.50033 6.37831 7.1413 5.66025 6.42324C4.9422 5.70519 4.58317 4.84199 4.58317 3.83366C4.58317 2.82533 4.9422 1.96213 5.66025 1.24408C6.37831 0.52602 7.2415 0.166992 8.24984 0.166992C9.25817 0.166992 10.1214 0.52602 10.8394 1.24408C11.5575 1.96213 11.9165 2.82533 11.9165 3.83366C11.9165 4.84199 11.5575 5.70519 10.8394 6.42324C10.1214 7.1413 9.25817 7.50033 8.24984 7.50033ZM17.4165 3.83366C17.4165 4.84199 17.0575 5.70519 16.3394 6.42324C15.6214 7.1413 14.7582 7.50033 13.7498 7.50033C13.5818 7.50033 13.3679 7.48123 13.1082 7.44303C12.8484 7.40484 12.6346 7.36283 12.4665 7.31699C12.879 6.8281 13.196 6.28574 13.4175 5.68991C13.6391 5.09408 13.7498 4.47533 13.7498 3.83366C13.7498 3.19199 13.6391 2.57324 13.4175 1.97741C13.196 1.38158 12.879 0.839214 12.4665 0.350326C12.6804 0.273937 12.8943 0.224284 13.1082 0.201367C13.3221 0.178451 13.5359 0.166992 13.7498 0.166992C14.7582 0.166992 15.6214 0.52602 16.3394 1.24408C17.0575 1.96213 17.4165 2.82533 17.4165 3.83366Z" fill="#818194"/>
</svg>
