<svg width="22" height="23" viewBox="0 0 22 23" fill="none" xmlns="http://www.w3.org/2000/svg">
<path d="M0.916504 18.8337V16.267C0.916504 15.7475 1.05018 15.2701 1.31755 14.8347C1.58491 14.3993 1.94011 14.067 2.38317 13.8378C3.33039 13.3642 4.29289 13.009 5.27067 12.7722C6.24845 12.5354 7.2415 12.417 8.24984 12.417C9.25817 12.417 10.2512 12.5354 11.229 12.7722C12.2068 13.009 13.1693 13.3642 14.1165 13.8378C14.5596 14.067 14.9148 14.3993 15.1821 14.8347C15.4495 15.2701 15.5832 15.7475 15.5832 16.267V18.8337H0.916504ZM17.4165 18.8337V16.0837C17.4165 15.4114 17.2294 14.766 16.855 14.1472C16.4807 13.5285 15.9498 12.9975 15.2623 12.5545C16.0415 12.6462 16.7748 12.8028 17.4623 13.0243C18.1498 13.2458 18.7915 13.517 19.3873 13.8378C19.9373 14.1434 20.3575 14.4833 20.6478 14.8576C20.938 15.2319 21.0832 15.6406 21.0832 16.0837V18.8337H17.4165ZM8.24984 11.5003C7.2415 11.5003 6.37831 11.1413 5.66025 10.4232C4.9422 9.70519 4.58317 8.84199 4.58317 7.83366C4.58317 6.82533 4.9422 5.96213 5.66025 5.24408C6.37831 4.52602 7.2415 4.16699 8.24984 4.16699C9.25817 4.16699 10.1214 4.52602 10.8394 5.24408C11.5575 5.96213 11.9165 6.82533 11.9165 7.83366C11.9165 8.84199 11.5575 9.70519 10.8394 10.4232C10.1214 11.1413 9.25817 11.5003 8.24984 11.5003ZM17.4165 7.83366C17.4165 8.84199 17.0575 9.70519 16.3394 10.4232C15.6214 11.1413 14.7582 11.5003 13.7498 11.5003C13.5818 11.5003 13.3679 11.4812 13.1082 11.443C12.8484 11.4048 12.6346 11.3628 12.4665 11.317C12.879 10.8281 13.196 10.2857 13.4175 9.68991C13.6391 9.09408 13.7498 8.47533 13.7498 7.83366C13.7498 7.19199 13.6391 6.57324 13.4175 5.97741C13.196 5.38158 12.879 4.83921 12.4665 4.35033C12.6804 4.27394 12.8943 4.22428 13.1082 4.20137C13.3221 4.17845 13.5359 4.16699 13.7498 4.16699C14.7582 4.16699 15.6214 4.52602 16.3394 5.24408C17.0575 5.96213 17.4165 6.82533 17.4165 7.83366Z" fill="#0EABEB"/>
</svg>
