<svg width="46" height="46" viewBox="0 0 46 46" fill="none" xmlns="http://www.w3.org/2000/svg">
<circle cx="23" cy="23" r="23" fill="#E11D29" fill-opacity="0.22"/>
<path d="M29.8999 25.03C27.6899 25.03 25.8999 26.82 25.8999 29.03C25.8999 31.24 27.6899 33.03 29.8999 33.03C32.1099 33.03 33.8999 31.24 33.8999 29.03C33.8999 26.82 32.1099 25.03 29.8999 25.03ZM31.4999 30.68C31.3499 30.83 31.1599 30.9 30.9699 30.9C30.7799 30.9 30.5899 30.83 30.4399 30.68L29.9099 30.15L29.3599 30.7C29.2099 30.85 29.0199 30.92 28.8299 30.92C28.6399 30.92 28.4499 30.85 28.2999 30.7C28.0099 30.41 28.0099 29.93 28.2999 29.64L28.8499 29.09L28.3199 28.56C28.0299 28.27 28.0299 27.79 28.3199 27.5C28.6099 27.21 29.0899 27.21 29.3799 27.5L29.9099 28.03L30.4099 27.53C30.6999 27.24 31.1799 27.24 31.4699 27.53C31.7599 27.82 31.7599 28.3 31.4699 28.59L30.9699 29.09L31.4999 29.62C31.7899 29.91 31.7899 30.39 31.4999 30.68Z" fill="#E11D29"/>
<path d="M33 17.55V18C33 18.55 32.55 19 32 19H14C13.45 19 13 18.55 13 18V17.54C13 15.25 14.85 13.4 17.14 13.4H28.85C31.14 13.4 33 15.26 33 17.55Z" fill="#E11D29"/>
<path d="M13 21.5V26.46C13 28.75 14.85 30.6 17.14 30.6H23.4C23.98 30.6 24.48 30.11 24.43 29.53C24.29 28 24.78 26.34 26.14 25.02C26.7 24.47 27.39 24.05 28.14 23.81C29.39 23.41 30.6 23.46 31.67 23.82C32.32 24.04 33 23.57 33 22.88V21.49C33 20.94 32.55 20.49 32 20.49H14C13.45 20.5 13 20.95 13 21.5ZM19 27.25H17C16.59 27.25 16.25 26.91 16.25 26.5C16.25 26.09 16.59 25.75 17 25.75H19C19.41 25.75 19.75 26.09 19.75 26.5C19.75 26.91 19.41 27.25 19 27.25Z" fill="#E11D29"/>
</svg>
