<svg width="46" height="46" viewBox="0 0 46 46" fill="none" xmlns="http://www.w3.org/2000/svg">
<circle cx="23" cy="23" r="23" fill="#75FF75" fill-opacity="0.22"/>
<path d="M21.9449 12.0258L19.7358 17.1683H17.5266C17.1599 17.1683 16.8024 17.1958 16.4541 17.2692L17.3708 15.0692L17.4074 14.9867L17.4624 14.84C17.4899 14.7758 17.5083 14.7208 17.5358 14.675C18.5991 12.2092 19.7908 11.4392 21.9449 12.0258Z" fill="#39973D"/>
<path d="M28.169 17.4159L28.1507 17.4067C27.6007 17.2509 27.0415 17.1684 26.4732 17.1684H20.7349L22.7974 12.3742L22.8249 12.3101C22.9532 12.3559 23.0907 12.4201 23.2282 12.4659L25.254 13.3184C26.3815 13.7859 27.1699 14.2717 27.6557 14.8584C27.7382 14.9684 27.8115 15.0692 27.8849 15.1884C27.9674 15.3167 28.0315 15.4451 28.0682 15.5826C28.1049 15.6651 28.1324 15.7384 28.1507 15.8209C28.2882 16.2884 28.2974 16.8201 28.169 17.4159Z" fill="#39973D"/>
<path d="M22.4766 26.1883H22.7057C22.9807 26.1883 23.2099 25.9408 23.2099 25.6383C23.2099 25.2533 23.0999 25.1983 22.8616 25.1066L22.4766 24.9691V26.1883Z" fill="#39973D"/>
<path d="M27.7657 18.7267C27.3532 18.6075 26.9224 18.5433 26.4732 18.5433H17.5266C16.9032 18.5433 16.3166 18.6625 15.7666 18.9008C14.1716 19.5883 13.0532 21.1742 13.0532 23.0167V24.8042C13.0532 25.0242 13.0716 25.235 13.0991 25.455C13.3007 28.37 14.8591 29.9283 17.7741 30.1208C17.9849 30.1483 18.1957 30.1667 18.4249 30.1667H25.5749C28.9666 30.1667 30.7541 28.5533 30.9282 25.345C30.9374 25.1708 30.9466 24.9875 30.9466 24.8042V23.0167C30.9466 20.9908 29.5991 19.2858 27.7657 18.7267ZM23.1732 24.2083C23.5949 24.355 24.1632 24.6667 24.1632 25.6383C24.1632 26.4725 23.5124 27.1417 22.7057 27.1417H22.4766V27.3433C22.4766 27.6092 22.2657 27.82 21.9999 27.82C21.7341 27.82 21.5232 27.6092 21.5232 27.3433V27.1417H21.4407C20.5607 27.1417 19.8366 26.3992 19.8366 25.4825C19.8366 25.2167 20.0474 25.0058 20.3132 25.0058C20.5791 25.0058 20.7899 25.2167 20.7899 25.4825C20.7899 25.8675 21.0832 26.1883 21.4407 26.1883H21.5232V24.6392L20.8266 24.3917C20.4049 24.245 19.8366 23.9333 19.8366 22.9617C19.8366 22.1275 20.4874 21.4583 21.2941 21.4583H21.5232V21.2567C21.5232 20.9908 21.7341 20.78 21.9999 20.78C22.2657 20.78 22.4766 20.9908 22.4766 21.2567V21.4583H22.5591C23.4391 21.4583 24.1632 22.2008 24.1632 23.1175C24.1632 23.3833 23.9524 23.5942 23.6866 23.5942C23.4207 23.5942 23.2099 23.3833 23.2099 23.1175C23.2099 22.7325 22.9166 22.4117 22.5591 22.4117H22.4766V23.9608L23.1732 24.2083Z" fill="#39973D"/>
<path d="M20.79 22.9616C20.79 23.3466 20.9 23.4016 21.1384 23.4933L21.5234 23.6308V22.4116H21.2942C21.01 22.4116 20.79 22.6591 20.79 22.9616Z" fill="#39973D"/>
</svg>
