<svg width="22" height="23" viewBox="0 0 22 23" fill="none" xmlns="http://www.w3.org/2000/svg">
<path d="M6.41667 16.0833H8.25V11.5H6.41667V16.0833ZM13.75 16.0833H15.5833V6.91667H13.75V16.0833ZM10.0833 16.0833H11.9167V13.3333H10.0833V16.0833ZM10.0833 11.5H11.9167V9.66667H10.0833V11.5ZM4.58333 19.75C4.07917 19.75 3.64757 19.5705 3.28854 19.2115C2.92951 18.8524 2.75 18.4208 2.75 17.9167V5.08333C2.75 4.57917 2.92951 4.14757 3.28854 3.78854C3.64757 3.42951 4.07917 3.25 4.58333 3.25H17.4167C17.9208 3.25 18.3524 3.42951 18.7115 3.78854C19.0705 4.14757 19.25 4.57917 19.25 5.08333V17.9167C19.25 18.4208 19.0705 18.8524 18.7115 19.2115C18.3524 19.5705 17.9208 19.75 17.4167 19.75H4.58333Z" fill="#0EABEB"/>
</svg>
