<svg width="36" height="36" viewBox="0 0 36 36" fill="none" xmlns="http://www.w3.org/2000/svg">
<rect width="36" height="36" rx="5" fill="#F4F4F4"/>
<g clip-path="url(#clip0_936_115351)">
<path d="M27.1924 8.80758C24.737 6.35225 21.4724 5 18 5C14.5276 5 11.263 6.35225 8.80758 8.80758C6.35225 11.263 5 14.5276 5 18C5 21.4724 6.35225 24.737 8.80758 27.1924C11.263 29.6477 14.5276 31 18 31C21.4724 31 24.737 29.6477 27.1924 27.1924C29.6477 24.737 31 21.4724 31 18C31 14.5276 29.6477 11.263 27.1924 8.80758ZM22.5665 13.5088H20.3644C20.7187 13.9728 20.9627 14.5114 21.0779 15.0838H22.5666V16.6072H21.0781C20.7234 18.3721 19.1616 19.7057 17.2938 19.7057H15.4424L20.5025 24.7658L19.4253 25.843L13.4336 19.8514V18.1823H17.2938C18.3157 18.1823 19.1858 17.5227 19.5024 16.6072H13.4335V15.0838H19.5023C19.1856 14.1683 18.3156 13.5088 17.2937 13.5088H13.4335V11.9853H22.5665V13.5088Z" fill="#A7A7A7"/>
</g>
<defs>
<clipPath id="clip0_936_115351">
<rect width="26" height="26" fill="white" transform="translate(5 5)"/>
</clipPath>
</defs>
</svg>
