<svg width="20" height="20" viewBox="0 0 20 20" fill="none" xmlns="http://www.w3.org/2000/svg">
<path d="M9.02643 0.770402C6.84067 0.774066 4.74548 1.64398 3.19991 3.18955C1.65434 4.73512 0.784426 6.83031 0.780762 9.01607C0.782589 11.2037 1.65147 13.3014 3.19704 14.8495C4.74261 16.3977 6.83883 17.2701 9.02643 17.2756C10.9666 17.2756 12.7543 16.5931 14.1678 15.4636L17.6012 18.897C17.7752 19.0587 18.005 19.1468 18.2425 19.1426C18.48 19.1385 18.7066 19.0424 18.8747 18.8747C19.0429 18.707 19.1395 18.4806 19.1443 18.2432C19.1491 18.0057 19.0617 17.7756 18.9004 17.6013L15.4671 14.1644C16.6397 12.706 17.279 10.8909 17.279 9.01954C17.279 4.47402 13.5719 0.770402 9.02643 0.770402ZM9.02643 2.60662C12.5811 2.60662 15.4428 5.46489 15.4428 9.01607C15.4428 12.5673 12.5811 15.4428 9.02643 15.4428C5.47179 15.4428 2.61352 12.5776 2.61352 9.023C2.61352 5.46835 5.47179 2.60662 9.02643 2.60662Z" fill="#4F4F4F"/>
</svg>
