<svg width="24" height="24" viewBox="0 0 24 24" fill="none" xmlns="http://www.w3.org/2000/svg">
<path d="M20.9098 11.12V6.73001C20.9098 5.91001 20.2898 4.98001 19.5198 4.67001L13.9498 2.39001C12.6998 1.88001 11.2898 1.88001 10.0398 2.39001L4.46984 4.67001C3.70984 4.98001 3.08984 5.91001 3.08984 6.73001V11.12C3.08984 16.01 6.63984 20.59 11.4898 21.93C11.8198 22.02 12.1798 22.02 12.5098 21.93C17.3598 20.59 20.9098 16.01 20.9098 11.12ZM12.7498 12.87V15.5C12.7498 15.91 12.4098 16.25 11.9998 16.25C11.5898 16.25 11.2498 15.91 11.2498 15.5V12.87C10.2398 12.55 9.49984 11.61 9.49984 10.5C9.49984 9.12001 10.6198 8.00001 11.9998 8.00001C13.3798 8.00001 14.4998 9.12001 14.4998 10.5C14.4998 11.62 13.7598 12.55 12.7498 12.87Z" fill="#4F4F4F"/>
</svg>
