<svg width="24" height="24" viewBox="0 0 24 24" fill="none" xmlns="http://www.w3.org/2000/svg">
<path d="M20.91 11.12V6.73001C20.91 5.91001 20.29 4.98001 19.52 4.67001L13.95 2.39001C12.7 1.88001 11.29 1.88001 10.04 2.39001L4.47003 4.67001C3.71003 4.98001 3.09003 5.91001 3.09003 6.73001V11.12C3.09003 16.01 6.64003 20.59 11.49 21.93C11.82 22.02 12.18 22.02 12.51 21.93C17.36 20.59 20.91 16.01 20.91 11.12ZM12.75 12.87V15.5C12.75 15.91 12.41 16.25 12 16.25C11.59 16.25 11.25 15.91 11.25 15.5V12.87C10.24 12.55 9.50003 11.61 9.50003 10.5C9.50003 9.12001 10.62 8.00001 12 8.00001C13.38 8.00001 14.5 9.12001 14.5 10.5C14.5 11.62 13.76 12.55 12.75 12.87Z" fill="#0EABEB"/>
</svg>
