<svg width="22" height="22" viewBox="0 0 22 22" fill="none" xmlns="http://www.w3.org/2000/svg">
<g clip-path="url(#clip0_3065_99466)">
<mask id="mask0_3065_99466" style="mask-type:luminance" maskUnits="userSpaceOnUse" x="0" y="0" width="33" height="22">
<path d="M22 0H0V22H22V0Z" fill="white"/>
<path d="M11.2998 2.79307V10.6895L14.279 8.98145H19.207C20.3936 8.98145 21.3554 8.01956 21.3554 6.83302V2.79307C21.3554 1.60653 20.3936 0.644636 19.207 0.644636H13.4482C12.2617 0.644636 11.2998 1.60653 11.2998 2.79307Z" fill="white"/>
</mask>
<g mask="url(#mask0_3065_99466)">
<mask id="mask1_3065_99466" style="mask-type:luminance" maskUnits="userSpaceOnUse" x="0" y="0" width="22" height="22">
<path d="M0 6.48499e-05H21.9999V22H0V6.48499e-05Z" fill="white"/>
</mask>
<g mask="url(#mask1_3065_99466)">
<path d="M10.4217 16.0546L11.4105 15.0658C11.9551 14.5212 12.838 14.5212 13.3826 15.0658L15.6889 17.3721C16.2334 17.9167 16.2334 18.7996 15.6889 19.3442L14.7001 20.333L12.9591 21.2072C12.6971 21.3387 12.4005 21.3844 12.1111 21.3377C11.8218 21.291 11.5545 21.1543 11.3473 20.947L1.05344 10.6532C0.846202 10.446 0.709532 10.1787 0.662835 9.88938C0.616139 9.60004 0.661789 9.30335 0.793304 9.04143L1.66754 7.30047L2.65634 6.31164C3.20092 5.76705 4.0838 5.76705 4.62838 6.31164L6.93472 8.61798C7.47926 9.16256 7.47926 10.0454 6.93472 10.59L5.94589 11.5788" fill="#818194"/>
<path d="M10.4217 16.0546L11.4105 15.0658C11.9551 14.5212 12.838 14.5212 13.3826 15.0658L15.6889 17.3721C16.2334 17.9167 16.2334 18.7996 15.6889 19.3442L14.7001 20.333L12.9591 21.2072C12.6971 21.3387 12.4005 21.3844 12.1111 21.3377C11.8218 21.291 11.5545 21.1543 11.3473 20.947L1.05344 10.6532C0.846202 10.446 0.709532 10.1787 0.662835 9.88938C0.616139 9.60004 0.661789 9.30335 0.793304 9.04143L1.66754 7.30047L2.65634 6.31164C3.20092 5.76705 4.0838 5.76705 4.62838 6.31164L6.93472 8.61798C7.47926 9.16256 7.47926 10.0454 6.93472 10.59L5.94589 11.5788" stroke="#818194" stroke-width="1.17187" stroke-miterlimit="10" stroke-linecap="round" stroke-linejoin="round"/>
<path d="M11.2998 2.79307V10.6895L14.279 8.98145H19.207C20.3936 8.98145 21.3554 8.01956 21.3554 6.83302V2.79307C21.3554 1.60653 20.3936 0.644636 19.207 0.644636H13.4482C12.2617 0.644636 11.2998 1.60653 11.2998 2.79307Z" fill="#818194"/>
</g>
</g>
</g>
<defs>
<clipPath id="clip0_3065_99466">
<rect width="22" height="22" fill="white"/>
</clipPath>
</defs>
</svg>
