<svg width="22" height="22" viewBox="0 0 22 22" fill="none" xmlns="http://www.w3.org/2000/svg">
<g clip-path="url(#clip0_3065_20032)">
<mask id="mask0_3065_20032" style="mask-type:luminance" maskUnits="userSpaceOnUse" x="0" y="0" width="33" height="22">
<path d="M22 0H0V22H22V0Z" fill="white"/>
<path d="M11.2998 2.79111V10.6875L14.279 8.9795H19.207C20.3936 8.9795 21.3554 8.0176 21.3554 6.83107V2.79111C21.3554 1.60458 20.3936 0.642683 19.207 0.642683H13.4482C12.2617 0.642683 11.2998 1.60458 11.2998 2.79111Z" fill="white"/>
</mask>
<g mask="url(#mask0_3065_20032)">
<mask id="mask1_3065_20032" style="mask-type:luminance" maskUnits="userSpaceOnUse" x="0" y="0" width="22" height="22">
<path d="M0 6.48499e-05H21.9999V22H0V6.48499e-05Z" fill="white"/>
</mask>
<g mask="url(#mask1_3065_20032)">
<path d="M10.4212 16.0546L11.41 15.0658C11.9546 14.5212 12.8375 14.5212 13.3821 15.0658L15.6884 17.3721C16.2329 17.9167 16.2329 18.7996 15.6884 19.3442L14.6996 20.333L12.9586 21.2072C12.6967 21.3387 12.4 21.3844 12.1106 21.3377C11.8213 21.291 11.554 21.1543 11.3468 20.947L1.05295 10.6532C0.845714 10.446 0.709044 10.1787 0.662347 9.88938C0.61565 9.60004 0.661301 9.30335 0.792815 9.04143L1.66705 7.30047L2.65585 6.31164C3.20043 5.76705 4.08331 5.76705 4.62789 6.31164L6.93423 8.61798C7.47878 9.16256 7.47878 10.0454 6.93423 10.59L5.9454 11.5788" fill="#0EABEB"/>
<path d="M10.4212 16.0546L11.41 15.0658C11.9546 14.5212 12.8375 14.5212 13.3821 15.0658L15.6884 17.3721C16.2329 17.9167 16.2329 18.7996 15.6884 19.3442L14.6996 20.333L12.9586 21.2072C12.6967 21.3387 12.4 21.3844 12.1106 21.3377C11.8213 21.291 11.554 21.1543 11.3468 20.947L1.05295 10.6532C0.845714 10.446 0.709044 10.1787 0.662347 9.88938C0.61565 9.60004 0.661301 9.30335 0.792815 9.04143L1.66705 7.30047L2.65585 6.31164C3.20043 5.76705 4.08331 5.76705 4.62789 6.31164L6.93423 8.61798C7.47878 9.16256 7.47878 10.0454 6.93423 10.59L5.9454 11.5788" stroke="#0EABEB" stroke-width="1.17187" stroke-miterlimit="10" stroke-linecap="round" stroke-linejoin="round"/>
<path d="M11.2998 2.79502V10.6914L14.279 8.9834H19.207C20.3936 8.9834 21.3554 8.02151 21.3554 6.83497V2.79502C21.3554 1.60849 20.3936 0.646589 19.207 0.646589H13.4482C12.2617 0.646589 11.2998 1.60849 11.2998 2.79502Z" fill="#0EABEB"/>
</g>
</g>
</g>
<defs>
<clipPath id="clip0_3065_20032">
<rect width="22" height="22" fill="white"/>
</clipPath>
</defs>
</svg>
