<svg width="46" height="46" viewBox="0 0 46 46" fill="none" xmlns="http://www.w3.org/2000/svg">
<circle cx="23" cy="23" r="23" fill="#0EABEB" fill-opacity="0.25"/>
<path d="M26.78 12H19.22C15.44 12 14.5 13.01 14.5 17.04V28.3C14.5 30.96 15.96 31.59 17.73 29.69L17.74 29.68C18.56 28.81 19.81 28.88 20.52 29.83L21.53 31.18C22.34 32.25 23.65 32.25 24.46 31.18L25.47 29.83C26.19 28.87 27.44 28.8 28.26 29.68C30.04 31.58 31.49 30.95 31.49 28.29V17.04C31.5 13.01 30.56 12 26.78 12ZM26 21.75H20C19.59 21.75 19.25 21.41 19.25 21C19.25 20.59 19.59 20.25 20 20.25H26C26.41 20.25 26.75 20.59 26.75 21C26.75 21.41 26.41 21.75 26 21.75ZM27 17.75H19C18.59 17.75 18.25 17.41 18.25 17C18.25 16.59 18.59 16.25 19 16.25H27C27.41 16.25 27.75 16.59 27.75 17C27.75 17.41 27.41 17.75 27 17.75Z" fill="#0EABEB"/>
</svg>
