<svg width="22" height="23" viewBox="0 0 22 23" fill="none" xmlns="http://www.w3.org/2000/svg">
<path d="M17.4167 6.91667H15.5833V6C15.5833 5.27065 15.2936 4.57118 14.7779 4.05546C14.2622 3.53973 13.5627 3.25 12.8333 3.25H9.16667C8.43732 3.25 7.73785 3.53973 7.22212 4.05546C6.7064 4.57118 6.41667 5.27065 6.41667 6V6.91667H4.58333C4.09755 6.91812 3.63208 7.11174 3.28857 7.45524C2.94507 7.79874 2.75145 8.26422 2.75 8.75V17.9167C2.75145 18.4025 2.94507 18.8679 3.28857 19.2114C3.63208 19.5549 4.09755 19.7486 4.58333 19.75H17.4167C17.9025 19.7486 18.3679 19.5549 18.7114 19.2114C19.0549 18.8679 19.2486 18.4025 19.25 17.9167V8.75C19.2486 8.26422 19.0549 7.79874 18.7114 7.45524C18.3679 7.11174 17.9025 6.91812 17.4167 6.91667ZM8.25 6C8.25 5.75688 8.34658 5.52373 8.51849 5.35182C8.69039 5.17991 8.92355 5.08333 9.16667 5.08333H12.8333C13.0764 5.08333 13.3096 5.17991 13.4815 5.35182C13.6534 5.52373 13.75 5.75688 13.75 6V6.91667H8.25V6ZM13.75 14.25H11.9167V16.0833H10.0833V14.25H8.25V12.4167H10.0833V10.5833H11.9167V12.4167H13.75V14.25Z" fill="#0EABEB"/>
</svg>
