<svg width="61" height="60" viewBox="0 0 61 60" fill="none" xmlns="http://www.w3.org/2000/svg">
<circle cx="30.5" cy="30" r="30" fill="#E11D29"/>
<path d="M42.3371 21.5375C40.3246 21.3375 38.3121 21.1875 36.2871 21.075V21.0625L36.0121 19.4375C35.8246 18.2875 35.5496 16.5625 32.6246 16.5625H29.3496C26.4371 16.5625 26.1621 18.2125 25.9621 19.425L25.6996 21.025C24.5371 21.1 23.3746 21.175 22.2121 21.2875L19.6621 21.5375C19.1371 21.5875 18.7621 22.05 18.8121 22.5625C18.8621 23.075 19.3121 23.45 19.8371 23.4L22.3871 23.15C28.9371 22.5 35.5371 22.75 42.1621 23.4125C42.1996 23.4125 42.2246 23.4125 42.2621 23.4125C42.7371 23.4125 43.1496 23.05 43.1996 22.5625C43.2371 22.05 42.8621 21.5875 42.3371 21.5375Z" fill="white"/>
<path d="M40.0377 25.175C39.7377 24.8625 39.3252 24.6875 38.9002 24.6875H23.1002C22.6752 24.6875 22.2502 24.8625 21.9627 25.175C21.6752 25.4875 21.5127 25.9125 21.5377 26.35L22.3127 39.175C22.4502 41.075 22.6252 43.45 26.9877 43.45H35.0127C39.3752 43.45 39.5502 41.0875 39.6877 39.175L40.4627 26.3625C40.4877 25.9125 40.3252 25.4875 40.0377 25.175ZM33.0752 37.1875H28.9127C28.4002 37.1875 27.9752 36.7625 27.9752 36.25C27.9752 35.7375 28.4002 35.3125 28.9127 35.3125H33.0752C33.5877 35.3125 34.0127 35.7375 34.0127 36.25C34.0127 36.7625 33.5877 37.1875 33.0752 37.1875ZM34.1252 32.1875H27.8752C27.3627 32.1875 26.9377 31.7625 26.9377 31.25C26.9377 30.7375 27.3627 30.3125 27.8752 30.3125H34.1252C34.6377 30.3125 35.0627 30.7375 35.0627 31.25C35.0627 31.7625 34.6377 32.1875 34.1252 32.1875Z" fill="white"/>
</svg>
