<svg width="20" height="20" viewBox="0 0 20 20" fill="none" xmlns="http://www.w3.org/2000/svg">
<g clip-path="url(#clip0_744_155136)">
<path d="M5.2083 16.2503C4.5558 16.2491 3.92009 16.0434 3.39062 15.6621C2.86115 15.2807 2.46455 14.743 2.25664 14.1245L2.22747 14.0287C2.13413 13.7365 2.08552 13.432 2.0833 13.1253V7.44366L0.0616373 14.192C-0.0620948 14.6722 0.00758266 15.1817 0.255682 15.6111C0.503782 16.0404 0.910483 16.3553 1.3883 16.4878L14.2741 19.9387C14.435 19.9803 14.5958 20.0003 14.7541 20.0003C15.5841 20.0003 16.3425 19.4495 16.555 18.6378L17.3058 16.2503H5.2083ZM7.49997 7.50033C8.41914 7.50033 9.16664 6.75283 9.16664 5.83366C9.16664 4.91449 8.41914 4.16699 7.49997 4.16699C6.5808 4.16699 5.8333 4.91449 5.8333 5.83366C5.8333 6.75283 6.5808 7.50033 7.49997 7.50033Z" fill="white"/>
<path d="M17.9162 1.66699H5.41616C4.86383 1.66765 4.33431 1.88736 3.94375 2.27792C3.55319 2.66847 3.33349 3.19799 3.33282 3.75033V12.917C3.33282 14.0653 4.26782 15.0003 5.41616 15.0003H17.9162C19.0645 15.0003 19.9995 14.0653 19.9995 12.917V3.75033C19.9995 2.60199 19.0645 1.66699 17.9162 1.66699ZM5.41616 3.33366H17.9162C18.0267 3.33366 18.1326 3.37756 18.2108 3.4557C18.2889 3.53384 18.3328 3.63982 18.3328 3.75033V9.66616L15.7003 6.59449C15.5611 6.43461 15.3895 6.3062 15.1968 6.21783C15.0041 6.12947 14.7948 6.08316 14.5828 6.08199C14.3701 6.08309 14.1602 6.13073 13.9679 6.22157C13.7756 6.31241 13.6055 6.44425 13.4695 6.60783L10.3745 10.3228L9.36616 9.31699C9.09195 9.04322 8.72031 8.88945 8.33282 8.88945C7.94534 8.88945 7.5737 9.04322 7.29949 9.31699L4.99949 11.6162V3.75033C4.99949 3.63982 5.04339 3.53384 5.12153 3.4557C5.19967 3.37756 5.30565 3.33366 5.41616 3.33366Z" fill="white"/>
</g>
<defs>
<clipPath id="clip0_744_155136">
<rect width="20" height="20" fill="white"/>
</clipPath>
</defs>
</svg>
