<svg width="40" height="40" viewBox="0 0 40 40" fill="none" xmlns="http://www.w3.org/2000/svg">
<rect width="40" height="40" rx="10" fill="#F6F8FB"/>
<path d="M29.25 17.1502C26.94 13.5202 23.56 11.4302 20 11.4302C18.22 11.4302 16.49 11.9502 14.91 12.9202C13.33 13.9002 11.91 15.3302 10.75 17.1502C9.75 18.7202 9.75 21.2702 10.75 22.8402C13.06 26.4802 16.44 28.5602 20 28.5602C21.78 28.5602 23.51 28.0402 25.09 27.0702C26.67 26.0902 28.09 24.6602 29.25 22.8402C30.25 21.2802 30.25 18.7202 29.25 17.1502ZM20 24.0402C17.76 24.0402 15.96 22.2302 15.96 20.0002C15.96 17.7702 17.76 15.9602 20 15.9602C22.24 15.9602 24.04 17.7702 24.04 20.0002C24.04 22.2302 22.24 24.0402 20 24.0402Z" fill="#0EABEB"/>
<path d="M19.9999 17.1401C18.4299 17.1401 17.1499 18.4201 17.1499 20.0001C17.1499 21.5701 18.4299 22.8501 19.9999 22.8501C21.5699 22.8501 22.8599 21.5701 22.8599 20.0001C22.8599 18.4301 21.5699 17.1401 19.9999 17.1401Z" fill="#0EABEB"/>
</svg>
