<svg width="22" height="23" viewBox="0 0 22 23" fill="none" xmlns="http://www.w3.org/2000/svg">
<path d="M10.9449 2.52584L8.73577 7.66834H6.5266C6.15993 7.66834 5.80243 7.69584 5.4541 7.76917L6.37077 5.56918L6.40743 5.48667L6.46244 5.34001C6.48994 5.27584 6.50827 5.22084 6.53577 5.17501C7.5991 2.70917 8.79077 1.93917 10.9449 2.52584Z" fill="#0EABEB"/>
<path d="M17.169 7.9154L17.1507 7.90624C16.6007 7.7504 16.0415 7.6679 15.4732 7.6679H9.73486L11.7974 2.87374L11.8249 2.80957C11.9532 2.8554 12.0907 2.91957 12.2282 2.9654L14.254 3.8179C15.3815 4.2854 16.1699 4.77124 16.6557 5.3579C16.7382 5.4679 16.8115 5.56874 16.8849 5.6879C16.9674 5.81624 17.0315 5.94457 17.0682 6.08207C17.1049 6.16457 17.1324 6.2379 17.1507 6.3204C17.2882 6.7879 17.2974 7.31957 17.169 7.9154Z" fill="#0EABEB"/>
<path d="M11.4766 16.6879H11.7057C11.9807 16.6879 12.2099 16.4404 12.2099 16.1379C12.2099 15.7529 12.0999 15.6979 11.8616 15.6062L11.4766 15.4688V16.6879Z" fill="#0EABEB"/>
<path d="M16.7657 9.2263C16.3532 9.10714 15.9224 9.04297 15.4732 9.04297H6.52656C5.90322 9.04297 5.31656 9.16214 4.76656 9.40047C3.17156 10.088 2.05322 11.6738 2.05322 13.5163V15.3038C2.05322 15.5238 2.07156 15.7346 2.09906 15.9546C2.30072 18.8696 3.85906 20.428 6.77406 20.6205C6.98489 20.648 7.19572 20.6663 7.42489 20.6663H14.5749C17.9666 20.6663 19.7541 19.053 19.9282 15.8446C19.9374 15.6705 19.9466 15.4871 19.9466 15.3038V13.5163C19.9466 11.4905 18.5991 9.78547 16.7657 9.2263ZM12.1732 14.708C12.5949 14.8546 13.1632 15.1663 13.1632 16.138C13.1632 16.9721 12.5124 17.6413 11.7057 17.6413H11.4766V17.843C11.4766 18.1088 11.2657 18.3196 10.9999 18.3196C10.7341 18.3196 10.5232 18.1088 10.5232 17.843V17.6413H10.4407C9.56072 17.6413 8.83656 16.8988 8.83656 15.9821C8.83656 15.7163 9.04739 15.5055 9.31322 15.5055C9.57906 15.5055 9.78989 15.7163 9.78989 15.9821C9.78989 16.3671 10.0832 16.688 10.4407 16.688H10.5232V15.1388L9.82656 14.8913C9.40489 14.7446 8.83656 14.433 8.83656 13.4613C8.83656 12.6271 9.48739 11.958 10.2941 11.958H10.5232V11.7563C10.5232 11.4905 10.7341 11.2796 10.9999 11.2796C11.2657 11.2796 11.4766 11.4905 11.4766 11.7563V11.958H11.5591C12.4391 11.958 13.1632 12.7005 13.1632 13.6171C13.1632 13.883 12.9524 14.0938 12.6866 14.0938C12.4207 14.0938 12.2099 13.883 12.2099 13.6171C12.2099 13.2321 11.9166 12.9113 11.5591 12.9113H11.4766V14.4605L12.1732 14.708Z" fill="#0EABEB"/>
<path d="M9.79004 13.4621C9.79004 13.8471 9.90004 13.9021 10.1384 13.9938L10.5234 14.1313V12.9121H10.2942C10.01 12.9121 9.79004 13.1596 9.79004 13.4621Z" fill="#0EABEB"/>
</svg>
