<svg width="20" height="21" viewBox="0 0 20 21" fill="none" xmlns="http://www.w3.org/2000/svg">
<path d="M15.8327 8.0013C15.8327 4.7763 13.2243 2.16797 9.99935 2.16797C6.77435 2.16797 4.16602 4.7763 4.16602 8.0013C4.16602 11.018 6.44935 13.493 9.37435 13.8013V15.7096H7.49935C7.15768 15.7096 6.87435 15.993 6.87435 16.3346C6.87435 16.6763 7.15768 16.9596 7.49935 16.9596H9.37435V18.8346C9.37435 19.1763 9.65768 19.4596 9.99935 19.4596C10.341 19.4596 10.6243 19.1763 10.6243 18.8346V16.9596H12.4993C12.841 16.9596 13.1243 16.6763 13.1243 16.3346C13.1243 15.993 12.841 15.7096 12.4993 15.7096H10.6243V13.8013C13.5493 13.493 15.8327 11.018 15.8327 8.0013Z" fill="white"/>
</svg>
